<?xml version="1.0" standalone="no"?>
<!DOCTYPE svg PUBLIC "-//W3C//DTD SVG 20010904//EN"
 "http://www.w3.org/TR/2001/REC-SVG-20010904/DTD/svg10.dtd">
<svg version="1.0" xmlns="http://www.w3.org/2000/svg"
 width="221.000000pt" height="228.000000pt" viewBox="0 0 221.000000 228.000000"
 preserveAspectRatio="xMidYMid meet">

<g transform="translate(0.000000,228.000000) scale(0.100000,-0.100000)"
fill="#000000" stroke="none">
<path d="M307 2273 c-10 -10 -8 -25 2 -18 5 3 13 0 17 -6 5 -8 -1 -10 -20 -7
-14 3 -29 1 -32 -4 -4 -6 -10 -5 -15 3 -7 11 -9 11 -9 -2 0 -8 -16 -23 -35
-32 -40 -19 -65 -22 -65 -7 0 11 -39 13 -64 4 -10 -4 -16 -18 -16 -38 0 -36
-13 -61 -28 -52 -6 3 -17 3 -26 0 -14 -6 -16 -74 -16 -687 0 -647 1 -679 18
-665 26 22 70 38 102 38 23 0 27 -3 23 -20 -3 -11 -9 -17 -14 -14 -5 3 -9 -4
-9 -16 0 -12 -4 -18 -10 -15 -6 4 -10 -7 -10 -24 0 -17 -4 -31 -10 -31 -5 0
-10 7 -10 15 0 19 -14 19 -29 1 -9 -11 -7 -15 13 -20 14 -3 32 -13 40 -22 9
-8 16 -11 16 -5 0 5 -4 12 -9 15 -17 11 0 44 20 39 24 -7 24 -35 2 -70 -10
-15 -19 -41 -19 -58 -1 -16 -9 -64 -19 -105 -9 -41 -18 -85 -19 -98 -1 -12
-12 -30 -24 -38 -25 -17 -30 -72 -10 -93 11 -10 8 -17 -14 -35 -25 -19 -28
-29 -28 -79 l0 -57 261 0 c151 0 268 4 279 10 12 6 28 6 49 -1 37 -13 113 -3
90 11 -8 6 -15 6 -17 0 -2 -6 -15 -10 -28 -10 -22 0 -24 4 -24 45 0 43 1 45
30 45 17 0 30 5 30 10 0 6 7 10 15 10 8 0 15 -4 15 -8 0 -12 32 -11 48 1 14
11 13 14 16 -46 2 -54 -16 -59 -25 -6 l-6 34 -2 -39 c-1 -29 -4 -37 -16 -32
-8 3 -15 2 -15 -3 0 -5 19 -11 43 -15 58 -8 248 1 259 12 5 5 8 25 5 43 l-4
34 -1 -37 c-2 -40 -26 -54 -35 -20 -4 16 -5 16 -6 0 -2 -30 -31 -21 -32 10
l-1 27 -7 -25 c-6 -21 -13 -25 -48 -26 -41 -1 -42 0 -46 35 l-4 36 -1 -37 c-3
-50 -22 -49 -22 1 l0 38 98 1 c53 1 105 -1 114 -4 9 -3 24 -25 34 -49 9 -25
21 -45 26 -45 5 0 4 9 -2 21 -7 11 -10 23 -7 25 6 7 77 -28 77 -38 0 -4 26 -8
58 -7 58 0 58 2 -14 29 -18 6 -40 19 -50 29 -11 9 -34 23 -51 30 -18 7 -44 24
-59 38 -20 18 -29 21 -40 13 -16 -15 -37 -3 -30 16 3 8 -1 17 -9 20 -20 8 -20
73 0 80 8 4 21 1 28 -5 10 -7 17 -7 25 1 19 19 42 1 42 -36 0 -25 -5 -35 -19
-39 -11 -2 -24 0 -29 5 -6 6 -12 6 -16 0 -8 -14 20 -18 84 -12 l55 5 -6 35 -6
35 -2 -32 c0 -18 -5 -33 -10 -33 -6 0 -12 15 -14 33 l-4 32 -1 -32 c-3 -47
-22 -41 -22 6 0 39 0 39 39 37 22 0 43 -4 47 -8 4 -4 13 -3 20 3 23 19 44 2
44 -36 0 -19 -4 -35 -10 -35 -5 0 -10 -5 -10 -12 0 -6 7 -5 18 5 12 11 22 13
28 7 9 -9 115 -22 174 -23 8 0 20 -3 25 -6 6 -4 22 -7 37 -6 15 0 24 -3 21 -8
-9 -15 129 -3 145 13 8 8 24 15 36 16 42 2 147 27 152 35 3 5 21 9 41 9 23 0
61 13 102 36 53 29 69 34 84 25 10 -7 22 -9 27 -6 6 3 7 0 5 -7 -3 -8 8 -27
24 -42 28 -27 31 -28 37 -10 3 10 10 30 15 43 10 24 -4 43 -43 56 -19 7 -25
25 -8 25 6 0 10 -4 10 -8 0 -13 47 -32 76 -32 l25 0 -3 92 -3 93 -90 6 c-92 7
-204 25 -213 34 -13 12 15 60 36 63 23 4 29 16 12 27 -19 11 -107 -97 -102
-125 3 -13 2 -13 -8 0 -9 13 -13 12 -30 -8 -19 -23 -19 -25 -2 -48 9 -13 25
-26 35 -29 9 -4 14 -11 11 -17 -5 -8 5 -9 32 -5 27 4 34 3 24 -3 -10 -6 -11
-10 -2 -10 6 0 12 -9 12 -19 0 -14 -9 -21 -31 -26 -38 -8 -159 3 -176 17 -18
14 -175 68 -201 68 -12 0 -25 6 -28 14 -3 9 -25 13 -70 14 -55 1 -73 6 -112
32 -46 30 -60 33 -139 30 -25 -1 -43 3 -43 9 0 6 -17 11 -37 11 -21 0 -47 7
-57 15 -11 8 -28 15 -39 15 -10 0 -24 6 -32 13 -11 12 -5 13 36 9 30 -3 49 -1
49 6 0 6 18 5 48 -4 26 -8 58 -12 70 -9 13 3 30 1 37 -5 10 -8 19 -8 33 1 16
10 24 10 35 1 7 -7 17 -9 20 -6 11 11 -21 34 -46 34 -14 0 -41 16 -65 38 l-41
38 -88 -29 c-69 -23 -112 -31 -200 -35 l-113 -5 0 -28 c0 -41 -26 -37 -41 6
-7 19 -17 35 -21 35 -4 0 -8 8 -8 18 0 14 -2 15 -10 2 -5 -8 -10 -11 -10 -7 0
4 -9 3 -19 -3 -13 -6 -28 -7 -45 0 -17 6 -27 6 -32 -2 -4 -6 -3 -9 2 -6 5 3
15 0 22 -8 7 -8 8 -14 3 -14 -5 0 -11 -7 -13 -15 -2 -8 -8 -11 -15 -7 -15 10
-27 89 -13 97 18 11 12 35 -7 28 -16 -6 -16 -5 -4 11 10 12 17 14 25 6 16 -16
28 -12 21 9 -5 16 1 22 32 30 26 8 39 7 44 -1 9 -14 29 -1 29 19 0 9 -6 13
-14 10 -8 -3 -16 -1 -18 5 -3 8 -10 8 -25 -1 -12 -6 -30 -11 -40 -10 -11 0 -5
6 17 16 32 14 33 16 17 28 -18 13 -18 15 -2 39 18 27 49 34 61 15 3 -6 19 -9
35 -7 17 3 30 -1 33 -9 3 -7 2 -13 -2 -13 -4 0 -7 -11 -7 -25 0 -23 1 -24 13
-8 6 9 12 27 12 39 0 12 4 24 9 26 4 2 11 13 15 25 6 17 2 22 -16 26 -21 4
-20 4 4 6 22 1 32 10 52 53 14 28 22 56 19 61 -3 6 -2 7 4 4 5 -3 22 17 37 46
16 29 45 72 64 96 23 28 30 42 19 38 -12 -4 -17 -1 -17 11 0 19 45 52 105 77
22 9 53 23 68 31 16 8 33 14 38 14 5 0 33 16 61 35 48 33 56 36 117 33 66 -3
66 -3 66 -33 0 -20 -5 -30 -15 -30 -8 0 -18 -4 -22 -10 -5 -6 -11 -6 -16 2 -5
7 -13 9 -22 3 -11 -7 -12 -15 -2 -48 7 -22 12 -49 12 -62 0 -12 7 -46 16 -75
11 -39 19 -52 29 -48 11 4 12 10 5 23 -13 24 -13 30 3 30 22 0 87 -61 87 -81
0 -25 27 -79 40 -79 6 0 10 -6 10 -14 0 -10 16 -17 48 -22 26 -3 56 -9 67 -11
11 -3 26 -5 33 -5 6 -1 12 -5 12 -9 0 -4 8 -5 19 -2 11 3 21 -2 24 -11 4 -10
1 -13 -9 -9 -8 3 -14 -1 -14 -10 0 -27 16 -27 40 -2 26 28 82 154 74 166 -3 5
2 9 12 9 9 0 37 15 63 34 l47 35 57 -53 c31 -29 57 -61 57 -71 0 -9 22 -69 49
-134 27 -64 61 -152 76 -196 15 -44 29 -82 31 -84 2 -2 4 354 4 792 l0 797
-695 0 -696 0 -9 -22 -9 -23 -7 23 -6 22 -237 0 c-131 0 -241 -3 -244 -7z
m225 -58 c3 -13 1 -22 -3 -19 -9 5 -13 44 -5 44 2 0 6 -11 8 -25z m-392 -31
c0 -11 -5 -14 -17 -10 -16 6 -16 6 0 -12 26 -29 22 -62 -7 -62 -22 0 -24 4
-24 50 -1 46 1 50 24 50 15 0 24 -6 24 -16z m300 6 c0 -5 10 -10 21 -10 17 0
20 -4 15 -22 -3 -13 -6 -31 -6 -40 0 -10 -7 -18 -15 -18 -10 0 -15 11 -15 35
0 19 -4 35 -10 35 -5 0 -10 7 -10 15 0 8 5 15 10 15 6 0 10 -4 10 -10z m260
-40 c0 -51 -19 -72 -21 -22 l-1 27 -7 -25 c-5 -18 -14 -25 -31 -25 -21 0 -26
6 -28 33 -4 37 19 53 49 33 16 -9 19 -8 19 9 0 11 5 20 10 20 6 0 10 -22 10
-50z m70 0 c0 -49 -1 -50 -30 -50 -29 0 -30 1 -30 50 0 49 1 50 30 50 29 0 30
-1 30 -50z m-166 -8 c1 -33 -2 -42 -14 -40 -10 2 -16 18 -18 46 -3 37 0 43 14
40 12 -2 17 -14 18 -46z m-399 -2 c0 -31 -3 -35 -25 -35 -19 0 -26 6 -28 23
-5 36 5 54 30 50 19 -2 23 -9 23 -38z m144 26 c11 -8 13 -8 7 2 -4 7 -1 12 8
12 11 0 17 -10 18 -32 l1 -33 4 33 c6 46 23 40 23 -8 0 -36 -2 -40 -25 -40
-14 0 -25 5 -25 10 0 6 -7 6 -19 -1 -24 -16 -48 -6 -54 23 -3 17 -5 15 -6 -9
-1 -25 -6 -33 -19 -33 -11 0 -18 8 -19 23 -1 12 -4 32 -7 43 -5 20 -2 21 47
22 28 0 58 -5 66 -12z m194 1 c2 -6 4 -23 3 -37 -1 -20 -6 -25 -26 -25 -19 0
-26 6 -28 23 -2 13 -1 30 2 38 7 17 42 19 49 1z m287 -27 c0 -51 -19 -53 -22
-2 l-1 37 -4 -37 c-6 -51 -23 -49 -23 2 0 36 3 40 25 40 23 0 25 -4 25 -40z
m70 -5 c0 -42 -2 -45 -27 -45 -26 0 -28 3 -31 45 -3 44 -2 45 28 45 29 0 30
-2 30 -45z m118 33 c9 -9 12 -9 12 1 0 7 9 11 23 9 18 -2 22 -9 22 -38 0 -26
-5 -36 -19 -38 -10 -2 -22 2 -27 10 -6 10 -9 10 -9 1 0 -20 -30 -15 -31 5 -1
16 -2 16 -6 0 -7 -30 -23 -20 -25 15 l-1 32 -4 -32 c-6 -47 -23 -41 -23 7 0
40 0 40 38 40 21 0 43 -5 50 -12z m-978 -68 c0 -5 -4 -10 -10 -10 -5 0 -10 5
-10 10 0 6 5 10 10 10 6 0 10 -4 10 -10z m146 -27 c0 -10 4 -18 11 -18 21 0
24 -12 5 -18 -29 -7 -41 5 -31 31 10 26 17 29 15 5z m174 -1 c0 -14 -2 -15
-10 -2 -8 13 -10 12 -15 -1 -6 -17 -51 -20 -74 -5 -12 8 -12 10 3 16 10 3 35
7 57 7 31 2 39 -2 39 -15z m40 -19 c0 -11 -3 -11 -13 -1 -8 7 -14 18 -14 25 0
9 4 10 14 2 7 -6 13 -18 13 -26z m36 14 c-2 -30 -26 -34 -26 -4 0 13 6 24 14
24 7 0 13 -9 12 -20z m39 0 c0 -13 -5 -24 -11 -24 -6 0 -9 10 -8 21 3 27 3 26
12 26 4 0 7 -10 7 -23z m-227 -1 c9 -6 10 -12 4 -18 -7 -7 -16 -5 -27 6 -9 9
-21 13 -27 10 -7 -4 -8 -2 -4 4 8 13 33 12 54 -2z m265 8 c-7 -3 -9 -12 -6
-20 3 -8 0 -14 -6 -14 -12 0 -15 23 -4 33 3 4 11 7 17 6 7 0 6 -2 -1 -5z
m-358 -24 c-5 -14 -2 -20 9 -20 12 0 16 -10 16 -40 0 -48 -19 -54 -22 -7 l-1
32 -4 -32 c-4 -29 -8 -33 -34 -33 -25 0 -29 4 -30 30 -1 17 -2 36 -3 43 -1 6
7 11 17 10 11 0 16 4 13 12 -3 9 2 11 15 8 10 -3 19 0 19 6 0 6 3 11 6 11 3 0
2 -9 -1 -20z m236 -21 c16 -11 29 -15 29 -9 0 6 10 10 22 8 26 -3 38 -38 14
-38 -9 0 -16 -8 -15 -17 0 -11 3 -13 6 -5 7 17 23 15 23 -3 0 -9 -9 -15 -25
-15 -14 0 -25 6 -25 13 0 9 -2 9 -9 -1 -5 -9 -24 -12 -52 -10 l-44 3 -3 43
c-2 32 0 42 12 42 10 0 16 -13 19 -42 l4 -43 1 48 c1 26 5 47 8 47 3 0 19 -9
35 -21z m209 -1 c0 -18 -2 -20 -9 -8 -6 8 -7 18 -5 22 9 14 14 9 14 -14z m730
12 c0 -5 7 -10 15 -10 11 0 15 -11 15 -40 0 -48 -19 -54 -22 -7 l-1 32 -4 -32
c-4 -29 -8 -33 -34 -33 -25 0 -29 4 -30 30 -1 17 -2 36 -3 43 -1 6 7 11 17 11
9 -1 17 2 17 7 0 5 7 9 15 9 8 0 15 -4 15 -10z m150 -40 c0 -38 -4 -50 -15
-50 -13 0 -16 11 -14 50 2 34 7 50 16 50 9 0 13 -15 13 -50z m-1198 -5 c3 -48
-11 -60 -32 -27 -11 16 -11 16 -6 0 4 -14 -1 -18 -24 -18 -35 0 -41 24 -12 46
16 13 16 14 -2 7 -13 -4 -17 -2 -14 8 2 8 14 15 26 17 15 2 22 -3 25 -20 4
-20 4 -20 6 5 2 47 29 33 33 -18z m1300 0 c3 -46 -6 -56 -31 -32 -11 10 -13
10 -7 0 4 -8 1 -13 -8 -13 -11 0 -17 10 -18 33 l-1 32 -4 -32 c-6 -47 -23 -41
-23 8 0 40 1 41 30 37 17 -3 30 -1 30 4 0 4 6 8 14 8 9 0 15 -15 18 -45z m273
-3 c1 -55 -22 -56 -27 -1 -4 42 -1 52 16 46 5 -2 10 -22 11 -45z m-1277 16 c2
-12 -3 -18 -15 -19 -17 -1 -17 -2 0 -6 26 -7 15 -28 -14 -28 -17 0 -25 6 -27
23 -4 26 -22 20 -22 -9 0 -10 -4 -19 -10 -19 -5 0 -10 18 -10 40 l0 39 47 -2
c36 -1 49 -6 51 -19z m80 3 c3 -10 -1 -12 -14 -8 -18 7 -18 6 -1 -7 26 -20 22
-46 -7 -46 -21 0 -25 5 -24 33 0 17 3 36 5 40 7 12 36 4 41 -12z m83 12 c1 -5
2 -23 3 -40 2 -30 -1 -33 -26 -33 -33 0 -38 25 -10 46 16 13 16 14 0 8 -18 -6
-24 6 -11 19 9 9 43 9 44 0z m119 -33 c0 -48 -19 -54 -22 -7 l-1 32 -4 -32
c-2 -18 -8 -33 -14 -33 -5 0 -10 15 -11 33 l-1 32 -4 -32 c-6 -50 -33 -43 -33
7 l0 40 45 0 45 0 0 -40z m61 28 c0 -10 2 -10 6 0 3 7 23 12 49 12 l44 0 0
-40 c0 -48 -19 -54 -22 -7 l-1 32 -4 -32 c-2 -18 -8 -33 -14 -33 -5 0 -10 15
-11 33 l-1 32 -4 -31 c-4 -30 -6 -32 -49 -32 -43 -1 -44 -1 -44 32 0 18 3 36
7 39 11 12 43 8 44 -5z m162 -1 c2 -6 4 -23 3 -37 -1 -19 -7 -26 -28 -28 -26
-3 -28 -1 -28 31 0 18 3 37 7 40 11 12 41 8 46 -6z m85 -28 c3 -42 -18 -58
-43 -33 -27 28 -15 77 19 72 16 -2 22 -11 24 -39z m70 -1 c2 -29 0 -38 -12
-38 -9 0 -17 8 -17 18 -1 16 -2 16 -6 0 -8 -33 -23 -18 -23 23 0 38 1 40 28
37 23 -3 27 -8 30 -40z m179 27 c3 -9 -2 -22 -13 -30 -11 -7 -16 -17 -11 -21
4 -4 7 -2 7 4 0 7 5 12 10 12 6 0 10 -7 10 -15 0 -9 -9 -15 -25 -15 -22 0 -25
4 -25 33 0 19 3 37 7 40 12 12 33 7 40 -8z m339 4 c11 -9 14 -8 14 0 0 7 10
11 23 9 17 -2 22 -10 23 -33 2 -38 -13 -58 -34 -46 -8 5 -23 6 -33 4 -16 -4
-19 1 -21 28 l-1 34 -4 -32 c-5 -39 -23 -45 -23 -8 0 14 -4 25 -10 25 -5 0
-10 -11 -10 -24 0 -23 -4 -25 -42 -23 -37 2 -43 5 -46 25 -6 44 2 50 79 51 40
0 78 -4 85 -10z m161 -99 c8 0 11 -4 8 -10 -8 -12 5 -13 25 -1 20 13 34 2 19
-15 -17 -20 -5 -28 20 -13 14 9 17 17 10 25 -7 8 -6 15 3 20 7 4 10 4 6 -1 -4
-4 0 -14 10 -21 9 -7 12 -14 6 -14 -18 0 -25 -29 -13 -52 6 -11 16 -18 22 -15
20 7 32 -16 31 -59 -1 -62 -9 -75 -43 -72 -16 1 -38 -5 -48 -14 -26 -23 -54
-25 -83 -5 -23 16 -70 24 -70 11 0 -3 10 -15 23 -26 25 -22 27 -22 -60 4 -34
9 -46 9 -55 0 -9 -9 -8 -12 8 -12 10 -1 30 -7 44 -15 23 -12 23 -14 7 -21 -10
-4 -36 -1 -58 5 -22 7 -49 9 -59 6 -23 -7 -27 -35 -6 -35 12 0 28 -22 30 -43
1 -4 14 -19 31 -33 23 -20 36 -24 60 -19 109 22 110 22 110 -81 0 -60 -2 -70
-15 -63 -8 4 -36 11 -62 14 -54 7 -81 29 -46 38 12 4 19 9 15 13 -8 9 -77 -27
-77 -39 0 -5 6 -7 13 -4 7 3 18 -3 24 -12 6 -9 30 -23 53 -31 23 -8 44 -19 47
-26 6 -17 -15 -54 -30 -54 -25 0 -67 25 -63 37 3 7 -12 19 -33 29 -30 13 -37
21 -34 38 4 22 -32 46 -69 46 -11 0 -25 14 -36 38 -9 20 -21 40 -27 44 -6 5
-4 18 7 35 9 15 18 53 22 83 8 76 17 113 32 125 7 6 14 19 16 30 5 28 42 31
68 5 25 -25 56 -20 45 8 -10 25 -23 135 -18 150 3 6 13 12 22 13 9 0 32 2 51
4 19 2 40 -1 47 -6 8 -7 14 -3 19 13 l7 23 15 -23 c8 -12 21 -22 29 -22z
m-1495 6 c7 4 8 2 4 -5 -9 -13 -26 -5 -25 12 0 9 2 8 6 -1 2 -6 10 -9 15 -6z
m1628 -71 c0 -8 -7 -15 -15 -15 -8 0 -15 7 -15 15 0 8 7 15 15 15 8 0 15 -7
15 -15z m-571 -91 c12 -15 21 -34 21 -43 -1 -12 -6 -9 -20 9 -10 14 -26 33
-34 43 -13 14 -14 17 -2 17 8 0 24 -12 35 -26z m-1427 -131 c-9 -25 -10 -21
-10 32 0 55 1 57 10 28 7 -21 7 -40 0 -60z m1335 65 c-3 -8 -6 -5 -6 6 -1 11
2 17 5 13 3 -3 4 -12 1 -19z m20 -45 c-3 -10 -5 -4 -5 12 0 17 2 24 5 18 2 -7
2 -21 0 -30z m-214 20 c-7 -2 -19 -2 -25 0 -7 3 -2 5 12 5 14 0 19 -2 13 -5z
m212 -38 c32 0 57 -38 45 -69 -11 -29 -26 -32 -52 -12 -12 8 -19 32 -23 72 -3
35 -2 49 3 34 5 -15 15 -25 27 -25z m42 13 c-3 -8 -6 -5 -6 6 -1 11 2 17 5 13
3 -3 4 -12 1 -19z m43 8 c0 -8 -7 -16 -15 -20 -13 -4 -14 -2 -5 14 13 23 20
26 20 6z m285 -74 c-3 -3 -11 0 -18 7 -9 10 -8 11 6 5 10 -3 15 -9 12 -12z
m12 -28 c-5 -5 -57 13 -57 20 0 3 14 0 31 -6 16 -6 28 -12 26 -14z m-1269
-114 c-3 -55 -2 -56 50 -107 47 -44 53 -55 50 -84 -3 -29 -11 -39 -58 -67 -37
-22 -58 -42 -65 -62 -5 -16 -13 -32 -17 -36 -5 -4 -8 -16 -8 -27 0 -63 -44
-151 -85 -170 -30 -14 -36 -14 -48 -2 -8 8 -18 11 -22 7 -5 -4 -5 -1 0 7 4 8
2 17 -6 22 -18 11 -42 12 -35 0 10 -15 -19 -42 -37 -35 -18 7 -24 34 -7 34 30
0 -20 72 -69 100 -13 7 -13 11 -2 24 8 9 11 19 8 23 -10 10 53 52 69 46 8 -3
14 0 14 6 0 6 15 11 34 11 19 0 37 6 40 13 3 6 3 1 0 -11 -5 -21 -3 -22 13
-14 10 6 33 12 50 15 30 5 63 27 63 42 0 4 7 13 15 21 17 18 20 34 5 34 -5 0
-10 -6 -10 -14 0 -7 -12 -22 -27 -31 -27 -18 -28 -18 -12 1 16 19 49 78 49 89
0 16 -18 0 -37 -33 -11 -20 -34 -45 -51 -54 l-30 -18 8 33 c9 40 30 81 37 73
3 -3 23 38 44 92 22 53 43 105 49 114 5 10 10 32 11 50 l1 33 9 -35 c5 -19 8
-60 7 -90z m1410 -146 c-6 -12 -16 -20 -23 -17 -7 2 -15 -4 -18 -14 -4 -17 -4
-17 -12 1 -6 14 -2 23 14 36 34 25 52 22 39 -6z m70 1 c-3 -3 -9 2 -12 12 -6
14 -5 15 5 6 7 -7 10 -15 7 -18z m-618 -27 c0 -4 -6 -8 -12 -8 -7 0 -14 12
-15 27 -1 26 0 27 13 8 8 -10 14 -22 14 -27z m385 -33 c17 -14 25 -25 18 -25
-6 0 -14 4 -17 9 -3 5 -14 7 -24 4 -10 -2 -28 5 -41 16 l-24 21 29 0 c16 -1
43 -12 59 -25z m-995 -75 c8 -5 11 -10 5 -10 -5 0 -17 5 -25 10 -8 5 -10 10
-5 10 6 0 17 -5 25 -10z m-115 -95 c66 -17 37 -17 -45 0 -36 7 -51 13 -35 13
17 0 53 -6 80 -13z m130 -25 c13 -6 5 -7 -25 -3 -25 3 -47 7 -49 9 -9 8 55 2
74 -6z m-238 -56 c2 -13 1 -15 -4 -4 -3 8 -11 19 -17 23 -7 6 -6 7 4 4 8 -2
16 -12 17 -23z m183 -11 c0 -5 -10 -8 -22 -8 -13 -1 -40 -4 -60 -8 -24 -5 -38
-4 -38 2 0 9 27 14 98 19 12 1 22 -1 22 -5z m-178 -65 c-5 -5 -18 -8 -28 -5
-15 4 -14 5 4 6 15 1 21 5 16 13 -5 7 -3 8 5 3 8 -5 9 -11 3 -17z m-52 -8 c0
-5 -2 -10 -4 -10 -3 0 -8 5 -11 10 -3 6 -1 10 4 10 6 0 11 -4 11 -10z m70 -35
c0 -2 -10 -9 -22 -15 -22 -11 -22 -10 -4 4 21 17 26 19 26 11z m-348 -82 c-11
-15 -27 -48 -35 -73 -15 -42 -16 -43 -18 -15 0 17 -2 47 -3 68 -2 32 0 37 18
37 12 0 28 4 36 10 23 14 24 4 2 -27z m918 -103 c14 -11 20 -20 13 -20 -21 0
-63 19 -63 30 0 16 23 11 50 -10z m-143 -31 c-11 -7 -28 -7 -45 -1 -25 8 -23
9 18 10 35 1 41 -1 27 -9z m-382 -19 c3 -5 -3 -10 -15 -10 -12 0 -18 5 -15 10
3 6 10 10 15 10 5 0 12 -4 15 -10z m30 -20 c-3 -5 -1 -10 6 -10 7 0 10 -2 7
-5 -3 -3 -13 -2 -22 1 -14 5 -15 9 -4 15 17 11 20 11 13 -1z m-81 -27 c-2 -39
-5 -42 -13 -13 -6 20 0 35 14 40 1 0 0 -12 -1 -27z m43 1 c-3 -3 -12 -4 -19
-1 -8 3 -5 6 6 6 11 1 17 -2 13 -5z m143 -54 c5 0 9 -16 8 -35 -1 -19 -5 -32
-10 -29 -5 3 -8 14 -6 23 2 10 -1 19 -7 20 -19 5 -27 32 -13 48 12 15 13 14
16 -5 2 -12 7 -22 12 -22z m-582 -67 c-3 -27 -4 -27 -17 10 -11 31 -11 40 1
54 12 15 13 14 16 -10 2 -15 2 -39 0 -54z m509 61 c2 -7 -15 -14 -43 -19 -26
-3 -53 -9 -60 -12 -8 -3 -14 1 -14 11 0 8 10 18 23 20 12 3 31 7 42 10 29 6
48 2 52 -10z m178 -69 c24 -12 25 -13 5 -8 -14 4 -33 7 -42 7 -10 0 -18 4 -18
8 0 12 21 9 55 -7z m-109 -33 c3 -48 4 -50 22 -54 16 -3 16 -4 0 -10 -14 -6
-21 1 -33 29 -9 20 -13 45 -9 55 8 25 18 15 20 -20z m1268 23 c-4 -8 -8 -15
-10 -15 -2 0 -4 7 -4 15 0 8 4 15 10 15 5 0 7 -7 4 -15z m-1331 -2 c-7 -2 -19
-2 -25 0 -7 3 -2 5 12 5 14 0 19 -2 13 -5z m-572 -34 c-5 -13 -10 -19 -10 -12
-1 15 10 45 15 40 3 -2 0 -15 -5 -28z m805 -6 c15 -16 31 -17 36 -3 4 12 78
-18 112 -45 22 -17 24 -16 -72 -19 -44 -1 -66 -6 -72 -16 -9 -13 -10 -13 -10
0 0 15 -42 40 -69 40 -9 1 -32 10 -51 21 l-35 20 31 -5 c18 -3 43 -8 58 -12
15 -3 26 -2 26 4 0 6 10 8 23 5 18 -5 20 -3 10 8 -7 7 -13 20 -12 29 0 13 1
13 6 0 4 -8 12 -20 19 -27z m482 -6 c12 -13 19 -27 15 -31 -5 -5 2 -5 15 -2
24 8 31 -7 10 -21 -16 -9 -46 -6 -75 9 -17 8 -26 8 -38 -2 -11 -9 -19 -9 -28
-2 -13 11 -53 6 -73 -10 -14 -11 -47 2 -110 41 l-49 30 65 4 c36 2 106 4 156
5 83 2 92 0 112 -21z m-571 7 c-3 -3 -12 -4 -19 -1 -8 3 -5 6 6 6 11 1 17 -2
13 -5z m708 -14 c3 -5 1 -10 -4 -10 -6 0 -11 5 -11 10 0 6 2 10 4 10 3 0 8 -4
11 -10z m-835 -41 l35 -7 -36 -1 c-20 0 -52 2 -70 6 -33 6 -33 7 -9 13 14 4
29 4 35 1 5 -2 25 -8 45 -12z m980 -9 c0 -26 -19 -37 -79 -43 -55 -7 -78 0
-111 33 -23 23 -8 31 35 18 32 -9 105 -1 105 11 0 5 11 6 25 3 15 -2 25 -11
25 -22z m-1547 -37 c-6 -58 -11 -67 -26 -54 -9 7 -17 7 -24 0 -19 -19 -43 2
-43 37 0 42 22 54 52 28 12 -11 18 -13 14 -6 -8 14 12 45 24 37 4 -3 6 -22 3
-42z m137 34 c0 -7 9 -13 20 -13 11 0 20 6 20 14 0 7 5 10 10 7 6 -3 10 -26
10 -49 0 -39 -3 -44 -25 -48 -14 -3 -25 -1 -25 5 0 5 -6 5 -13 -2 -8 -6 -17
-8 -20 -4 -9 8 -9 88 0 96 11 11 23 8 23 -6z m128 -48 c-3 -39 -6 -44 -28 -44
-22 0 -25 5 -28 40 -2 33 1 42 20 51 32 14 40 4 36 -47z m82 12 c0 -42 -3 -49
-22 -54 -13 -4 -26 -1 -30 6 -17 26 -5 77 18 77 8 0 14 5 14 10 0 6 5 10 10
10 6 0 10 -22 10 -49z m100 -2 c0 -42 -3 -50 -17 -47 -10 1 -23 -1 -30 -5 -23
-14 -43 4 -43 39 0 38 21 54 45 34 8 -7 16 -10 16 -6 1 3 3 11 4 16 1 6 3 12
4 15 0 3 6 5 11 5 6 0 10 -23 10 -51z m220 41 c0 -5 7 -10 15 -10 10 0 15 -11
16 -32 l1 -33 7 30 c5 24 3 33 -14 43 -19 13 -19 13 0 7 71 -24 75 -27 73 -53
-2 -41 -16 -54 -41 -40 -16 8 -22 8 -25 -1 -7 -21 -22 0 -23 32 l-2 32 -6 -35
c-6 -34 -10 -36 -51 -31 -5 0 -10 22 -10 47 0 57 22 56 31 -2 l6 -39 2 48 c0
26 6 47 11 47 6 0 10 -4 10 -10z m490 0 c0 -5 7 -10 15 -10 8 0 15 -8 16 -17
1 -13 3 -11 7 5 4 13 12 23 17 23 6 0 13 -10 17 -23 4 -16 6 -18 7 -5 1 11 9
17 26 17 23 0 25 -4 25 -40 0 -48 -19 -54 -22 -7 l-1 32 -4 -32 c-5 -37 -22
-45 -24 -10 l-2 22 -4 -22 c-3 -18 -11 -23 -34 -23 -26 0 -29 4 -31 33 l-1 32
-4 -32 c-4 -29 -8 -33 -34 -33 -28 0 -29 2 -29 46 0 57 22 56 31 -2 l6 -39 2
48 c0 26 6 47 11 47 6 0 10 -4 10 -10z m-1074 -44 c7 -42 2 -53 -28 -51 -19 1
-23 8 -24 36 -2 42 2 49 26 49 14 0 21 -10 26 -34z m492 -14 c-3 -43 -5 -47
-28 -47 -14 0 -24 5 -23 11 1 7 -6 10 -17 7 -17 -4 -20 0 -22 28 l-1 34 -4
-32 c-6 -45 -23 -41 -23 5 l0 38 61 1 60 2 -3 -47z m780 1 c-3 -43 -5 -48 -27
-48 -21 0 -25 6 -29 34 -5 46 3 61 33 61 25 0 26 -2 23 -47z m-546 -84 c7 0 4
-4 -7 -9 -31 -13 -35 -12 -35 13 0 32 13 42 22 17 4 -11 13 -20 20 -21z m-334
16 c4 -4 -4 -4 -17 0 -18 5 -22 4 -16 -5 5 -9 4 -11 -3 -6 -7 4 -12 2 -12 -3
0 -6 -4 -11 -10 -11 -5 0 -10 8 -10 18 0 15 7 18 30 17 17 -1 33 -5 38 -10z
m-468 -40 c19 -2 38 -4 43 -4 4 -1 7 -19 7 -41 0 -29 -4 -40 -15 -40 -8 0 -15
6 -16 13 0 10 -2 10 -6 0 -10 -25 -23 -12 -25 25 l-1 37 -4 -37 c-5 -50 -23
-49 -23 0 0 28 -4 39 -15 39 -11 0 -15 -11 -15 -39 0 -27 -4 -38 -15 -38 -11
0 -15 12 -15 51 l0 51 33 -7 c17 -3 48 -8 67 -10z m130 -35 c0 -47 -2 -50 -26
-50 -23 0 -25 3 -22 43 2 27 7 41 16 40 6 -2 12 2 12 7 0 6 5 10 10 10 6 0 10
-22 10 -50z m99 2 l2 -49 -43 1 c-39 1 -43 3 -46 29 -5 38 14 60 39 46 18 -9
23 -5 20 14 0 4 5 7 12 7 9 0 14 -16 16 -48z m231 -3 c0 -54 -19 -65 -31 -18
l-6 24 -4 -24 c-7 -43 -29 -37 -29 8 0 37 2 41 25 41 14 0 25 5 25 10 0 6 5
10 10 10 6 0 10 -23 10 -51z m-112 32 c14 -1 17 -77 2 -86 -5 -3 -25 -3 -45 1
-32 6 -35 9 -37 43 l-1 36 -4 -37 c-6 -52 -23 -48 -23 5 l0 42 48 -1 c26 -1
53 -2 60 -3z"/>
<path d="M112 1990 c0 -14 2 -19 5 -12 2 6 2 18 0 25 -3 6 -5 1 -5 -13z"/>
<path d="M1292 1985 c0 -16 2 -22 5 -12 2 9 2 23 0 30 -3 6 -5 -1 -5 -18z"/>
<path d="M908 1983 c7 -3 16 -2 19 1 4 3 -2 6 -13 5 -11 0 -14 -3 -6 -6z"/>
<path d="M1628 1983 c7 -3 16 -2 19 1 4 3 -2 6 -13 5 -11 0 -14 -3 -6 -6z"/>
<path d="M1791 1974 c0 -11 3 -14 6 -6 3 7 2 16 -1 19 -3 4 -6 -2 -5 -13z"/>
<path d="M480 1315 c-7 -9 -10 -18 -7 -21 3 -3 10 4 17 15 13 25 8 27 -10 6z"/>
<path d="M470 1150 c0 -5 5 -10 11 -10 5 0 7 5 4 10 -3 6 -8 10 -11 10 -2 0
-4 -4 -4 -10z"/>
<path d="M338 949 c-10 -5 -18 -14 -18 -19 0 -14 30 -40 48 -40 14 0 13 2 -2
13 -18 13 -17 15 9 35 l28 22 -24 0 c-13 0 -32 -5 -41 -11z"/>
<path d="M240 899 c0 -5 5 -7 10 -4 6 3 10 8 10 11 0 2 -4 4 -10 4 -5 0 -10
-5 -10 -11z"/>
<path d="M885 370 c4 -6 11 -8 16 -5 14 9 11 15 -7 15 -8 0 -12 -5 -9 -10z"/>
<path d="M292 290 c0 -14 2 -19 5 -12 2 6 2 18 0 25 -3 6 -5 1 -5 -13z"/>
<path d="M362 285 c0 -16 2 -22 5 -12 2 9 2 23 0 30 -3 6 -5 -1 -5 -18z"/>
<path d="M452 285 c0 -16 2 -22 5 -12 2 9 2 23 0 30 -3 6 -5 -1 -5 -18z"/>
<path d="M1321 274 c0 -11 3 -14 6 -6 3 7 2 16 -1 19 -3 4 -6 -2 -5 -13z"/>
<path d="M151 134 c0 -11 3 -14 6 -6 3 7 2 16 -1 19 -3 4 -6 -2 -5 -13z"/>
<path d="M242 135 c0 -16 2 -22 5 -12 2 9 2 23 0 30 -3 6 -5 -1 -5 -18z"/>
<path d="M1017 1324 c-36 -19 -28 -31 10 -15 15 6 48 15 73 20 l45 9 -50 1
c-27 0 -63 -7 -78 -15z"/>
<path d="M2005 1130 c10 -11 20 -20 23 -20 3 0 -3 9 -13 20 -10 11 -20 20 -23
20 -3 0 3 -9 13 -20z"/>
<path d="M1298 1103 c6 -2 18 -2 25 0 6 3 1 5 -13 5 -14 0 -19 -2 -12 -5z"/>
<path d="M1375 1070 c10 -11 20 -20 23 -20 3 0 -3 9 -13 20 -10 11 -20 20 -23
20 -3 0 3 -9 13 -20z"/>
<path d="M1683 977 c9 -23 -6 -59 -37 -90 -14 -15 -26 -30 -26 -35 0 -4 -13
-20 -28 -35 -22 -21 -31 -24 -40 -15 -7 7 -12 19 -12 27 0 21 -6 10 -14 -24
-5 -23 -4 -26 4 -15 8 11 9 3 4 -32 -3 -27 -4 -48 -1 -48 3 0 22 26 43 58 21
31 47 66 57 77 10 11 32 39 48 63 29 40 29 43 13 65 -11 15 -15 16 -11 4z"/>
<path d="M1127 883 c-18 -52 -17 -64 6 -61 12 2 21 10 19 17 -2 8 3 11 12 8
10 -4 13 -1 10 8 -3 8 -12 11 -19 9 -8 -4 -15 3 -17 18 -4 23 -4 23 -11 1z"/>
<path d="M705 820 c-3 -5 -1 -10 4 -10 6 0 11 5 11 10 0 6 -2 10 -4 10 -3 0
-8 -4 -11 -10z"/>
<path d="M675 791 c-6 -11 9 -23 19 -14 9 9 7 23 -3 23 -6 0 -12 -4 -16 -9z"/>
<path d="M608 783 c6 -2 18 -2 25 0 6 3 1 5 -13 5 -14 0 -19 -2 -12 -5z"/>
<path d="M1280 646 c0 -8 61 -12 66 -4 3 4 -11 8 -30 8 -20 0 -36 -2 -36 -4z"/>
<path d="M90 624 c0 -8 5 -12 10 -9 6 4 8 11 5 16 -9 14 -15 11 -15 -7z"/>
<path d="M1403 633 c9 -2 23 -2 30 0 6 3 -1 5 -18 5 -16 0 -22 -2 -12 -5z"/>
<path d="M1830 636 c0 -2 7 -6 15 -10 8 -3 15 -1 15 4 0 6 -7 10 -15 10 -8 0
-15 -2 -15 -4z"/>
<path d="M1600 594 c0 -3 13 -19 30 -37 17 -18 30 -43 30 -58 0 -24 16 -49 31
-49 4 0 9 11 12 25 3 21 -5 36 -43 75 -45 47 -60 58 -60 44z"/>
<path d="M964 292 c11 -12 19 -13 27 -5 7 7 3 12 -16 15 -25 5 -25 4 -11 -10z"/>
<path d="M2179 260 l-24 -19 25 -1 c19 0 26 6 27 20 2 25 1 25 -28 0z"/>
<path d="M1136 251 c-3 -5 3 -11 15 -14 16 -4 18 -3 8 9 -13 16 -16 17 -23 5z"/>
<path d="M1730 230 c-8 -5 -10 -10 -5 -10 6 0 17 5 25 10 8 5 11 10 5 10 -5 0
-17 -5 -25 -10z"/>
<path d="M2170 205 c7 -8 19 -15 26 -15 8 0 14 7 14 15 0 10 -10 15 -26 15
-22 0 -25 -2 -14 -15z"/>
<path d="M1874 195 c3 -9 6 -23 6 -31 0 -9 4 -13 9 -9 5 3 33 -6 63 -19 29
-14 42 -23 28 -21 -14 2 -43 7 -65 10 -22 4 -37 4 -33 0 4 -4 3 -18 -2 -31 -9
-24 2 -34 15 -14 9 14 41 12 54 -4 6 -7 22 -11 36 -8 14 2 23 7 21 10 -3 3 0
12 7 20 10 12 8 17 -7 26 -10 6 -45 28 -79 49 -39 25 -57 33 -53 22z m53 -91
c-3 -3 -12 -4 -19 -1 -8 3 -5 6 6 6 11 1 17 -2 13 -5z"/>
<path d="M2153 149 c-53 -10 -76 -22 -79 -43 -3 -22 10 -19 81 13 65 30 64 42
-2 30z"/>
<path d="M1620 85 c-13 -24 -12 -28 14 -53 19 -18 30 -23 33 -14 3 6 9 9 15 6
6 -4 5 3 -2 15 -6 12 -15 19 -21 16 -13 -9 -11 9 3 23 10 10 10 15 -2 22 -22
14 -25 13 -40 -15z"/>
<path d="M1769 96 c-6 -54 -6 -77 0 -80 4 -3 8 5 8 16 2 23 24 42 34 30 4 -4
9 -16 12 -27 4 -17 5 -16 7 5 l2 25 9 -25 c8 -22 8 -22 3 5 -3 17 -6 37 -7 46
-2 17 -66 22 -68 5z"/>
<path d="M2153 95 c-18 -8 -33 -17 -33 -20 0 -3 20 -5 45 -5 36 0 45 3 44 18
0 10 -3 12 -6 5 -2 -7 -9 -13 -15 -13 -6 0 -8 7 -4 15 3 8 4 15 3 15 -1 -1
-17 -7 -34 -15z"/>
<path d="M1698 72 c-6 -23 1 -52 13 -52 12 0 12 57 0 64 -5 3 -11 -2 -13 -12z"/>
<path d="M1737 77 c-4 -10 -7 -28 -7 -40 1 -20 2 -20 11 -4 6 10 9 28 7 40 -3
20 -4 20 -11 4z"/>
<path d="M1900 46 c0 -14 4 -27 8 -30 5 -3 6 8 4 25 -5 35 -12 38 -12 5z"/>
<path d="M1797 41 c-4 -17 -3 -21 5 -13 5 5 8 16 6 23 -3 8 -7 3 -11 -10z"/>
<path d="M1863 44 c-3 -8 -2 -19 3 -24 5 -5 9 1 9 16 0 28 -3 30 -12 8z"/>
<path d="M1936 41 c-4 -7 -5 -15 -2 -18 9 -9 19 4 14 18 -4 11 -6 11 -12 0z"/>
<path d="M1966 35 c-3 -8 -1 -15 4 -15 6 0 10 7 10 15 0 8 -2 15 -4 15 -2 0
-6 -7 -10 -15z"/>
<path d="M1991 34 c0 -11 3 -14 6 -6 3 7 2 16 -1 19 -3 4 -6 -2 -5 -13z"/>
<path d="M2036 35 c-3 -8 -1 -15 4 -15 6 0 10 7 10 15 0 8 -2 15 -4 15 -2 0
-6 -7 -10 -15z"/>
<path d="M2066 35 c-3 -8 -1 -15 4 -15 6 0 10 7 10 15 0 8 -2 15 -4 15 -2 0
-6 -7 -10 -15z"/>
<path d="M2116 25 c4 -8 8 -15 10 -15 2 0 4 7 4 15 0 8 -4 15 -10 15 -5 0 -7
-7 -4 -15z"/>
<path d="M2175 20 c-3 -5 -1 -10 4 -10 6 0 11 5 11 10 0 6 -2 10 -4 10 -3 0
-8 -4 -11 -10z"/>
</g>
</svg>
