<?xml version="1.0" standalone="no"?>
<!DOCTYPE svg PUBLIC "-//W3C//DTD SVG 20010904//EN"
 "http://www.w3.org/TR/2001/REC-SVG-20010904/DTD/svg10.dtd">
<svg version="1.0" xmlns="http://www.w3.org/2000/svg"
 width="1012.000000pt" height="1024.000000pt" viewBox="0 0 1012.000000 1024.000000"
 preserveAspectRatio="xMidYMid meet">

<g transform="translate(0.000000,1024.000000) scale(0.100000,-0.100000)"
fill="#000000" stroke="none">
<path d="M4760 10224 c-30 -8 -70 -24 -88 -35 -34 -19 -34 -19 -99 1 -122 37
-270 20 -347 -41 -26 -21 -28 -21 -116 -4 -140 25 -242 -3 -316 -87 -29 -33
-30 -33 -84 -25 -135 21 -245 -10 -335 -94 -62 -59 -63 -59 -123 -59 -133 0
-245 -43 -327 -125 -50 -50 -55 -52 -120 -58 -114 -11 -241 -83 -309 -176 -29
-39 -43 -50 -74 -55 -97 -15 -233 -116 -283 -211 -19 -36 -29 -44 -60 -48
-102 -14 -240 -118 -297 -224 -26 -50 -36 -60 -72 -71 -61 -18 -139 -72 -187
-127 -39 -43 -83 -135 -83 -170 0 -8 -5 -15 -11 -15 -6 0 -40 -14 -76 -32
-107 -52 -208 -180 -228 -289 -4 -24 -15 -40 -28 -46 -40 -19 -126 -93 -166
-143 -43 -54 -64 -105 -81 -190 -9 -48 -15 -58 -44 -74 -52 -28 -134 -115
-162 -172 -14 -28 -30 -82 -36 -120 -11 -67 -13 -71 -72 -125 -39 -35 -73 -79
-91 -115 -26 -52 -30 -70 -31 -151 l-1 -92 -52 -63 c-78 -95 -104 -157 -109
-253 -2 -44 1 -91 6 -105 7 -20 3 -32 -23 -70 -85 -119 -123 -247 -106 -358
10 -62 9 -65 -20 -104 -62 -86 -89 -273 -55 -383 11 -36 10 -45 -13 -95 -23
-48 -26 -68 -26 -160 1 -80 5 -118 21 -160 l20 -54 -24 -59 c-45 -113 -38
-277 17 -361 18 -27 18 -30 -1 -89 -27 -87 -22 -250 10 -322 13 -27 31 -59 42
-70 17 -19 18 -23 4 -75 -34 -124 -3 -299 66 -375 46 -50 52 -69 39 -120 -30
-119 6 -275 84 -361 33 -38 34 -42 39 -135 4 -81 10 -107 35 -160 29 -61 74
-116 119 -146 17 -11 22 -27 27 -88 14 -158 83 -275 205 -344 7 -4 19 -38 27
-76 28 -132 116 -269 200 -312 35 -18 45 -31 45 -58 0 -11 16 -54 35 -94 42
-88 126 -174 203 -210 29 -14 52 -29 52 -35 0 -23 49 -114 80 -150 43 -48 110
-94 179 -122 47 -19 57 -28 70 -63 40 -102 154 -207 261 -238 51 -16 60 -22
81 -62 56 -105 189 -203 300 -219 50 -7 53 -10 113 -87 89 -116 166 -159 306
-172 l65 -6 47 -62 c77 -103 178 -155 301 -155 59 0 61 -1 118 -55 32 -31 80
-65 106 -77 56 -25 171 -35 225 -20 34 9 39 7 84 -30 116 -96 251 -125 383
-83 11 3 48 -10 92 -34 132 -70 252 -89 351 -55 43 14 49 14 85 -4 118 -59
257 -71 372 -32 63 21 66 21 126 5 94 -26 191 -17 284 24 l74 33 56 -16 c120
-34 275 -13 355 47 23 18 37 22 58 16 136 -37 311 -4 396 75 21 19 35 21 155
21 122 0 136 2 189 27 31 14 76 45 101 67 l44 41 89 0 c155 1 254 38 345 130
53 55 58 57 120 63 136 13 232 62 301 152 36 48 39 49 124 66 130 27 221 99
269 212 13 31 21 36 82 51 37 10 87 28 109 41 59 34 138 125 164 188 20 48 26
55 71 70 117 42 241 158 276 258 15 42 25 55 58 71 119 60 200 155 244 283 21
61 30 75 68 100 82 56 151 175 168 288 6 38 13 50 40 67 96 59 181 197 191
311 6 58 10 66 42 92 92 71 153 195 157 318 l2 75 52 55 c29 29 66 83 84 119
30 60 32 72 33 171 1 104 2 109 32 144 93 113 130 259 101 393 -10 47 -9 52
20 93 67 95 94 236 68 348 -15 63 -15 64 14 125 58 124 62 238 11 340 l-27 53
23 58 c52 131 50 246 -9 355 l-30 56 16 65 c32 139 13 298 -46 373 -19 25 -20
33 -11 104 17 132 -11 251 -80 342 -35 47 -38 55 -38 119 0 40 -8 95 -20 133
-20 65 -87 171 -115 182 -11 4 -15 21 -15 64 0 138 -46 258 -130 336 -45 42
-50 51 -50 89 0 125 -81 273 -192 353 -23 16 -29 31 -38 89 -19 124 -87 235
-183 300 -46 31 -53 40 -77 112 -46 137 -130 238 -238 287 -23 10 -42 25 -42
32 0 31 -44 128 -80 175 -45 61 -127 124 -179 140 -33 10 -41 19 -61 66 -44
107 -170 212 -258 215 -54 1 -68 12 -95 71 -30 66 -107 146 -172 177 -31 15
-74 26 -112 28 -58 4 -64 7 -82 36 -33 52 -143 151 -201 181 -36 18 -77 29
-119 33 -64 5 -66 6 -119 63 -78 85 -174 131 -285 137 -75 4 -85 7 -124 39
-23 18 -68 46 -100 61 -52 24 -71 27 -170 28 l-112 1 -49 37 c-112 82 -229
112 -338 86 -52 -13 -56 -12 -82 8 -107 86 -262 113 -388 69 -40 -15 -41 -15
-134 34 -88 46 -99 49 -168 49 -53 0 -94 -7 -147 -25 l-73 -25 -44 19 c-99 42
-219 52 -318 25z m146 -68 c-9 -14 -12 -27 -8 -30 5 -3 38 0 74 6 47 8 73 9
90 1 22 -10 20 -11 -32 -39 l-55 -29 107 -5 c100 -5 139 -14 107 -24 -8 -3
-40 -12 -71 -20 -89 -25 -81 -36 29 -37 54 -1 109 -4 123 -8 22 -7 19 -9 -27
-20 -28 -7 -59 -18 -69 -25 -15 -11 -8 -14 47 -20 80 -9 149 -26 149 -36 0
-16 -72 -32 -138 -32 -55 0 -77 6 -136 37 -39 19 -114 68 -166 107 -52 39
-121 89 -153 110 -31 22 -55 44 -52 49 10 15 97 38 149 38 l48 1 -16 -24z
m494 4 c13 -8 13 -10 -2 -10 -9 0 -29 -5 -45 -11 l-28 -12 50 -13 c28 -7 77
-16 110 -20 92 -10 97 -21 14 -31 l-74 -9 59 -22 c32 -12 85 -25 117 -29 73
-7 77 -23 7 -23 -79 0 -89 -14 -26 -33 29 -10 75 -21 101 -26 70 -13 69 -21
-1 -21 -34 0 -62 -4 -62 -8 0 -5 45 -24 101 -41 121 -39 121 -56 1 -55 -122 0
-181 34 -401 231 -57 51 -108 93 -113 93 -4 0 -8 4 -8 10 0 26 167 51 200 30z
m-1008 -22 c-30 -30 11 -42 76 -22 89 26 150 9 75 -22 -48 -20 -51 -23 -33
-34 23 -14 94 -12 125 4 21 11 33 12 52 3 28 -13 21 -22 -32 -40 -21 -8 -41
-19 -43 -25 -6 -19 49 -26 97 -12 61 18 92 16 108 -6 12 -17 10 -21 -27 -38
-72 -36 -41 -56 56 -36 51 10 67 10 79 0 44 -37 -16 -65 -135 -65 -99 1 -121
10 -316 136 -66 42 -137 85 -157 95 -20 10 -37 22 -37 26 0 12 79 47 105 48
15 0 16 -3 7 -12z m1433 -38 c19 -8 19 -9 -2 -9 -13 -1 -23 -5 -23 -10 0 -14
29 -22 102 -31 38 -4 80 -16 95 -26 l28 -19 -62 -3 c-35 -2 -63 -7 -63 -11 0
-14 61 -38 115 -46 60 -8 101 -28 116 -56 11 -21 10 -21 -55 -17 -36 2 -66 1
-66 -2 0 -12 78 -50 131 -63 78 -20 74 -36 -8 -30 -63 5 -67 4 -52 -11 8 -9
37 -25 65 -36 l49 -19 -42 -1 c-59 0 -138 32 -203 83 -30 24 -106 100 -168
170 l-112 126 37 6 c21 4 43 8 48 10 18 6 50 4 70 -5z m-1815 -18 c0 -4 -12
-15 -27 -24 -26 -15 -26 -17 -9 -24 12 -5 43 1 80 14 104 37 167 22 82 -20
-26 -12 -46 -26 -46 -30 0 -11 55 -10 120 4 55 11 121 4 104 -11 -5 -4 -30
-16 -57 -25 -74 -28 -49 -40 64 -32 53 4 100 3 103 -2 3 -5 -19 -19 -49 -31
-77 -32 -61 -45 46 -38 52 3 91 2 94 -4 4 -5 -18 -20 -47 -34 -66 -31 -160
-34 -239 -6 -30 10 -115 50 -189 88 -74 39 -151 75 -170 82 l-34 11 31 31 c18
19 51 37 79 45 60 16 64 16 64 6z m2287 -85 l26 -14 -34 -7 c-31 -6 -32 -7
-16 -23 10 -11 39 -18 79 -21 61 -4 88 -15 88 -33 0 -5 -18 -9 -39 -9 -22 0
-43 -5 -46 -10 -8 -12 31 -28 109 -44 74 -15 87 -36 22 -36 -24 0 -47 -4 -51
-9 -9 -16 36 -40 97 -52 39 -8 62 -18 69 -30 9 -18 5 -19 -47 -19 -51 0 -55
-1 -43 -17 19 -22 88 -53 120 -53 43 0 44 -27 2 -35 -85 -16 -174 20 -255 103
-88 89 -251 314 -236 324 18 12 123 1 155 -15z m-2712 -52 c-29 -24 -29 -25
-7 -25 12 0 56 10 97 22 56 16 79 19 97 11 22 -10 22 -11 -19 -31 -23 -12 -44
-26 -48 -32 -9 -15 48 -12 115 5 37 10 66 12 81 7 22 -9 22 -10 -19 -37 -59
-39 -42 -51 46 -31 46 10 79 13 94 7 21 -8 19 -10 -29 -31 -60 -26 -60 -40 0
-41 l42 -1 -35 -10 c-19 -5 -75 -8 -125 -6 -76 4 -117 13 -265 63 -96 32 -179
61 -184 66 -24 21 94 89 153 89 l36 -1 -30 -24z m3095 -62 c25 -7 25 -7 -5
-13 l-30 -6 31 -16 c17 -9 54 -20 82 -24 28 -3 66 -16 84 -28 l33 -21 -60 -5
-60 -5 30 -21 c17 -12 57 -30 90 -40 57 -17 74 -29 75 -47 0 -4 -28 -5 -62 -2
l-63 6 27 -25 c15 -14 55 -35 88 -47 34 -12 66 -31 72 -42 8 -16 8 -19 -5 -14
-8 3 -36 9 -63 12 l-49 7 28 -30 c16 -17 56 -42 88 -57 74 -33 77 -49 7 -40
-128 17 -207 84 -347 295 -53 79 -100 150 -104 157 -6 10 3 13 40 13 26 0 59
-3 73 -7z m-1647 -58 c89 -58 256 -74 361 -35 56 21 60 22 87 6 106 -63 240
-87 342 -61 65 16 67 16 96 -4 16 -12 59 -35 95 -52 73 -34 185 -49 246 -32
33 10 38 8 85 -34 97 -85 209 -118 325 -95 45 8 45 8 105 -46 83 -77 168 -115
261 -118 l73 -2 64 -63 c78 -79 155 -118 246 -127 65 -7 66 -7 90 -52 37 -67
131 -157 196 -186 31 -14 82 -28 114 -31 56 -5 58 -6 82 -52 47 -91 161 -184
260 -214 9 -3 26 -33 38 -66 29 -81 111 -169 193 -211 34 -16 67 -30 73 -30 7
0 15 -17 19 -38 15 -97 119 -237 207 -278 26 -13 41 -27 45 -44 15 -69 58
-170 92 -215 21 -27 62 -67 92 -88 51 -35 56 -42 67 -95 28 -136 86 -237 171
-296 40 -27 42 -31 42 -80 0 -109 44 -220 115 -291 l43 -43 4 -104 c3 -93 7
-111 36 -171 19 -39 50 -81 76 -104 l43 -38 -9 -65 c-16 -120 22 -261 89 -332
24 -25 25 -30 14 -72 -26 -106 -6 -238 50 -326 l28 -46 -25 -79 c-22 -68 -25
-95 -22 -176 3 -90 5 -99 40 -155 34 -56 35 -60 22 -87 -23 -44 -54 -175 -54
-226 1 -25 9 -71 20 -101 l19 -55 -23 -35 c-61 -95 -81 -217 -52 -324 l18 -64
-36 -54 c-68 -101 -93 -221 -72 -333 8 -38 5 -44 -39 -99 -67 -81 -87 -139
-93 -266 -4 -89 -8 -107 -24 -119 -40 -27 -108 -134 -128 -198 -11 -36 -20
-93 -20 -128 0 -61 -1 -63 -39 -89 -82 -57 -143 -161 -162 -274 -11 -68 -14
-74 -45 -88 -52 -25 -151 -137 -165 -186 -7 -24 -16 -47 -21 -52 -4 -6 -8 -31
-8 -57 0 -47 -1 -47 -54 -78 -30 -16 -77 -53 -104 -80 -51 -51 -112 -157 -112
-195 0 -31 -9 -40 -65 -66 -75 -35 -187 -152 -212 -220 -20 -53 -22 -56 -81
-76 -136 -47 -255 -148 -287 -244 -13 -40 -22 -51 -43 -56 -117 -25 -236 -99
-286 -178 -28 -44 -31 -46 -76 -46 -107 0 -224 -64 -290 -159 l-35 -50 -60 -1
c-117 -1 -213 -40 -288 -116 l-47 -47 -77 2 c-123 3 -210 -30 -299 -111 -39
-36 -42 -37 -79 -27 -22 6 -82 9 -135 7 -105 -5 -165 -25 -232 -79 -36 -28
-40 -29 -80 -18 -104 29 -264 7 -342 -46 l-37 -25 -70 25 c-123 44 -235 32
-330 -36 l-29 -20 -68 28 c-59 24 -80 28 -172 28 -82 0 -115 -4 -148 -19 l-42
-19 -61 28 c-33 15 -96 34 -140 42 -72 15 -83 15 -149 -1 l-72 -18 -51 33
c-148 94 -221 113 -337 85 l-68 -17 -81 55 c-91 63 -158 86 -245 86 -59 0 -60
1 -112 54 -75 77 -145 109 -251 114 l-84 5 -31 43 c-64 89 -178 158 -281 170
-53 6 -58 9 -81 48 -56 95 -199 192 -302 204 -42 4 -47 8 -70 54 -50 99 -149
184 -248 215 -31 9 -56 22 -56 28 0 5 -13 38 -29 71 -51 108 -135 182 -237
208 -45 11 -47 14 -69 73 -43 120 -123 216 -210 253 -38 16 -45 24 -55 62 -30
120 -77 192 -170 265 -50 39 -60 51 -60 77 0 49 -28 152 -55 206 -31 62 -76
113 -123 142 -49 29 -52 34 -52 99 0 92 -51 218 -112 277 -33 31 -34 35 -28
83 14 110 -24 230 -99 312 -39 42 -40 45 -30 83 6 21 9 77 7 124 -4 91 -32
169 -84 237 -24 31 -24 36 -15 90 25 131 4 278 -48 351 l-21 31 21 77 c29 106
24 215 -14 298 l-27 58 30 62 c59 119 61 226 6 334 l-24 48 24 39 c63 105 85
248 51 337 -18 47 -18 48 2 77 12 16 36 60 54 98 30 64 32 75 32 179 l0 110
49 65 c27 35 60 89 74 119 29 64 39 166 23 224 -10 39 -9 41 33 85 75 81 126
194 126 280 0 32 9 44 70 99 87 78 132 163 138 258 4 62 5 64 46 88 94 55 190
190 203 285 5 33 11 40 58 65 104 54 192 165 216 272 10 44 16 52 45 63 103
37 218 148 251 241 16 46 21 50 74 70 115 42 214 127 260 224 12 25 23 31 78
42 129 27 212 89 271 204 17 33 24 37 94 54 42 10 103 31 136 47 58 30 145
106 155 138 4 12 27 20 92 28 106 15 192 54 259 120 l48 46 110 1 c99 1 117 4
172 29 34 16 82 49 108 76 l47 48 102 -4 c114 -5 190 14 254 63 l34 26 64 -18
c85 -22 185 -15 263 21 31 14 65 33 74 42 17 15 21 15 52 0 95 -45 253 -47
335 -4 25 13 47 25 49 26 1 0 13 -6 25 -14z m-1753 -10 c0 -3 -16 -19 -35 -36
-62 -55 -32 -68 51 -22 96 51 105 55 129 49 36 -9 31 -22 -19 -51 -24 -14 -50
-32 -56 -40 -21 -25 51 -19 116 10 56 25 124 33 124 16 0 -5 -22 -23 -50 -41
-27 -18 -50 -36 -50 -41 0 -17 53 -9 127 21 42 17 78 29 80 26 11 -10 -26 -48
-72 -73 -42 -23 -65 -28 -145 -31 -52 -2 -122 1 -155 7 -124 23 -345 84 -345
96 0 18 41 52 85 70 27 11 36 13 28 4 -7 -7 -13 -19 -13 -27 0 -20 37 -6 89
34 30 23 55 34 78 34 18 0 33 -2 33 -5z m3822 -82 c37 -15 39 -17 20 -24 -46
-17 -22 -38 72 -62 54 -15 96 -40 96 -58 0 -4 -25 -5 -55 -2 -48 5 -55 4 -49
-10 3 -9 39 -32 79 -51 40 -19 75 -42 79 -51 5 -14 2 -16 -16 -11 -52 15 -88
18 -88 8 0 -13 27 -34 98 -73 80 -45 88 -81 12 -54 -24 8 -46 13 -49 9 -6 -6
53 -64 104 -101 28 -21 28 -22 8 -23 -73 -1 -178 71 -242 165 -25 36 -191 352
-191 363 0 8 79 -8 122 -25z m-4222 -99 c0 -4 -14 -23 -32 -43 -31 -35 -31
-36 -10 -39 12 -2 47 12 80 32 31 20 66 36 77 36 15 0 10 -9 -25 -45 -37 -38
-41 -45 -24 -45 25 0 78 16 119 37 17 8 44 13 60 11 l30 -3 -42 -29 c-24 -16
-43 -33 -43 -37 0 -15 54 -10 115 11 32 11 61 17 64 14 11 -11 -63 -64 -119
-85 -75 -29 -188 -27 -359 5 -73 14 -151 26 -172 26 -22 0 -39 4 -39 8 0 14
73 79 108 97 33 16 33 16 23 -4 -15 -27 -14 -31 9 -31 10 0 42 20 70 45 36 32
59 45 80 45 17 0 30 -3 30 -6z m4619 -104 c33 -17 34 -18 12 -25 -22 -7 -22
-8 -5 -26 10 -11 42 -26 71 -35 30 -9 63 -25 73 -37 37 -39 27 -42 -70 -19
-24 5 -24 5 -9 -19 15 -23 40 -38 124 -76 36 -16 75 -64 57 -71 -4 -1 -34 7
-67 18 -32 11 -61 18 -63 15 -13 -12 39 -61 97 -93 56 -31 101 -75 89 -87 -3
-3 -35 6 -73 20 -37 14 -70 24 -73 21 -12 -13 34 -59 97 -96 39 -22 73 -45 76
-50 12 -20 -62 -9 -113 16 -102 51 -161 141 -285 436 -30 70 -51 130 -48 133
9 10 71 -5 110 -25z m-5053 -165 c-27 -33 -33 -45 -21 -45 20 0 80 31 124 64
32 24 71 35 71 20 0 -4 -17 -25 -37 -48 -29 -32 -34 -42 -21 -44 17 -3 84 27
130 59 26 19 58 25 58 12 0 -3 -18 -21 -40 -40 -22 -19 -40 -38 -40 -43 0 -12
58 4 128 35 34 15 65 26 67 23 13 -13 -70 -87 -127 -114 -58 -27 -72 -29 -183
-29 -66 0 -173 4 -238 9 l-118 8 17 27 c23 35 66 82 72 76 3 -2 -1 -11 -8 -20
-10 -13 -9 -15 9 -15 12 0 48 24 81 55 41 38 68 55 86 55 l26 0 -36 -45z
m5449 -82 c44 -22 95 -62 95 -75 0 -6 -12 -8 -31 -4 -44 9 -34 -10 35 -63 90
-68 115 -123 41 -88 -20 9 -40 17 -46 17 -20 0 12 -40 61 -77 47 -35 79 -77
68 -89 -4 -3 -27 3 -52 15 -65 28 -61 5 9 -55 80 -69 91 -117 16 -70 -47 30
-51 31 -51 11 0 -8 17 -31 37 -52 l37 -37 -33 20 c-91 52 -154 164 -224 394
-25 80 -48 153 -52 164 -7 16 -5 18 26 11 19 -4 48 -14 64 -22z m-5645 -130
c0 -5 -14 -26 -31 -48 -16 -22 -25 -41 -19 -43 13 -5 90 40 114 67 11 12 31
21 48 21 l29 0 -23 -31 c-55 -73 -53 -69 -19 -59 37 10 45 15 94 53 21 16 41
27 44 24 12 -13 -22 -70 -65 -107 -69 -62 -114 -71 -365 -77 l-219 -6 16 31
c21 40 73 99 99 114 18 9 19 8 14 -21 -9 -46 10 -40 73 24 72 73 102 76 59 6
-11 -18 -18 -36 -15 -38 8 -8 67 32 100 66 27 28 66 42 66 24z m6010 -143 c36
-19 77 -57 68 -65 -2 -3 -19 -1 -36 4 -18 5 -32 7 -32 5 0 -19 28 -47 73 -73
49 -28 88 -73 75 -87 -4 -3 -28 4 -54 15 -26 12 -49 19 -52 16 -3 -3 27 -36
66 -74 45 -43 72 -77 72 -90 0 -27 -2 -27 -53 10 -35 26 -43 28 -45 14 -2 -10
22 -43 57 -80 34 -35 61 -70 61 -79 0 -22 -3 -21 -55 16 -75 53 -69 15 12 -76
65 -73 53 -89 -28 -37 -102 64 -126 117 -189 425 l-37 185 31 -6 c17 -3 47
-14 66 -23z m-6323 -128 c9 -5 2 -21 -23 -52 -49 -62 -26 -63 62 -1 41 28 76
51 79 51 15 0 0 -25 -37 -67 l-43 -46 30 7 c17 4 49 20 73 36 54 38 43 11 -18
-44 -42 -38 -99 -67 -169 -86 -35 -9 -383 -51 -388 -46 -1 1 8 24 21 51 23 49
76 110 76 87 0 -6 -4 -14 -10 -17 -13 -8 -13 -25 0 -25 6 0 42 29 80 65 40 37
78 65 90 65 20 0 19 -3 -10 -46 -18 -25 -30 -48 -27 -50 9 -10 61 24 97 61 19
21 49 43 65 51 36 16 37 16 52 6z m6636 -177 c40 -28 50 -50 17 -40 -11 3 -20
2 -20 -4 0 -24 15 -43 61 -76 42 -30 74 -72 64 -83 -2 -2 -21 6 -44 18 l-41
20 0 -22 c0 -14 20 -41 55 -73 30 -29 55 -59 55 -68 0 -22 -5 -22 -57 8 -36
22 -43 23 -43 10 0 -28 17 -50 60 -80 49 -34 63 -56 54 -89 l-6 -25 -39 20
-39 19 0 -20 c0 -11 18 -37 40 -59 29 -28 40 -47 40 -69 0 -26 -3 -29 -22 -24
-12 3 -43 26 -69 52 -77 77 -96 148 -118 446 -6 71 -13 138 -17 147 -9 26 25
22 69 -8z m-6790 -177 c-35 -62 -105 -119 -183 -149 -30 -12 -129 -36 -220
-55 -91 -18 -173 -36 -182 -39 -49 -19 24 132 83 173 20 14 20 14 0 -27 -13
-25 -17 -41 -10 -41 6 0 45 34 86 75 67 67 93 86 93 70 0 -3 -16 -29 -35 -57
-19 -29 -33 -54 -30 -56 6 -6 86 52 115 83 32 34 87 74 75 54 -5 -7 -21 -33
-37 -56 -15 -23 -28 -44 -28 -48 0 -11 42 17 107 72 35 30 67 52 70 50 3 -3
-9 -26 -27 -51 -17 -25 -27 -46 -22 -46 5 0 44 25 87 55 43 30 81 53 83 50 2
-2 -9 -28 -25 -57z m7113 -204 c50 -50 58 -78 19 -68 -14 3 -25 3 -25 -2 0 -4
25 -33 55 -65 31 -32 55 -67 55 -78 0 -20 -3 -20 -55 10 -30 17 -55 28 -55 23
0 -4 27 -44 60 -90 79 -108 79 -130 -1 -69 -33 26 -62 45 -65 43 -2 -3 13 -29
35 -59 38 -54 71 -112 71 -125 0 -4 -12 4 -27 18 -28 25 -73 53 -73 44 0 -2
20 -43 45 -90 51 -98 57 -123 24 -106 -42 23 -99 93 -119 147 -28 74 -39 173
-42 375 l-4 166 29 -15 c16 -8 49 -34 73 -59z m-7411 -138 c-48 -101 -130
-151 -353 -215 -78 -22 -158 -47 -178 -56 -20 -8 -40 -15 -45 -15 -13 0 21
100 48 141 29 44 38 48 46 18 8 -29 20 -19 56 46 17 30 40 59 51 65 24 13 25
4 9 -53 -18 -66 -6 -61 56 22 79 106 104 110 65 11 -34 -87 -22 -86 51 6 84
106 110 121 74 42 -22 -48 -31 -78 -22 -78 2 0 39 35 82 78 88 86 105 83 60
-12z m7707 -275 c38 -60 35 -72 -7 -31 -21 21 -35 28 -35 19 1 -21 35 -94 69
-143 51 -73 38 -89 -20 -26 -48 52 -50 53 -44 25 3 -16 23 -67 45 -112 22 -44
40 -85 40 -90 0 -4 -23 17 -50 47 l-50 55 14 -45 c8 -25 25 -71 40 -103 14
-32 26 -61 26 -65 0 -4 -18 13 -40 38 -22 25 -40 40 -40 33 0 -6 14 -48 30
-93 17 -45 30 -86 30 -91 0 -18 -50 23 -84 70 -65 89 -78 183 -51 381 8 58 15
136 15 173 l0 69 42 -33 c22 -18 54 -53 70 -78z m-7958 -8 c-13 -59 -57 -134
-97 -167 -56 -45 -99 -66 -242 -116 -66 -23 -146 -55 -177 -71 l-58 -29 0 32
c1 40 39 117 40 81 0 -13 4 -23 9 -23 16 0 51 51 61 92 11 40 41 78 61 78 6 0
9 -6 6 -14 -13 -35 -19 -86 -9 -86 19 0 63 62 74 106 8 29 18 44 32 48 29 7
30 2 16 -49 -7 -25 -10 -48 -7 -51 14 -15 48 22 67 73 22 61 42 83 73 83 17 0
18 -5 12 -52 l-7 -52 23 16 c13 8 31 33 39 55 20 54 38 73 66 73 21 0 24 -3
18 -27z m8124 -318 c12 -9 36 -37 54 -63 l32 -47 -28 19 -29 18 6 -31 c4 -17
22 -55 42 -83 23 -36 35 -64 35 -88 l0 -35 -40 45 c-35 40 -39 42 -40 22 0
-12 14 -49 30 -82 30 -59 40 -133 20 -145 -5 -3 -24 15 -42 40 -27 38 -34 43
-36 27 -2 -11 9 -55 23 -97 14 -43 24 -82 23 -87 -2 -6 -21 16 -43 48 -45 67
-56 57 -31 -28 8 -29 13 -54 11 -56 -5 -6 -55 83 -66 120 -19 60 -13 200 16
363 16 85 31 155 34 155 4 0 16 -7 29 -15z m-8371 -66 c-14 -117 -94 -196
-310 -305 -84 -42 -164 -85 -178 -95 -14 -10 -29 -16 -33 -12 -14 14 -4 100
16 143 l22 45 4 -37 c6 -69 25 -47 66 73 31 93 78 114 55 25 -22 -89 10 -72
56 29 29 63 70 113 83 101 2 -2 -4 -28 -12 -57 -9 -29 -14 -55 -11 -57 9 -9
37 23 62 71 25 51 70 103 80 94 3 -3 -3 -29 -12 -57 -9 -28 -14 -54 -11 -57
10 -10 47 29 68 72 20 39 46 75 56 75 3 0 2 -23 -1 -51z m8580 -361 c34 -37
63 -88 63 -114 0 -15 -2 -15 -25 0 -24 16 -25 16 -25 -5 0 -12 14 -44 30 -71
17 -26 30 -60 30 -75 l0 -27 -41 39 -41 40 7 -35 c4 -19 18 -56 31 -82 23 -45
31 -88 18 -88 -4 0 -24 19 -45 43 -48 53 -51 35 -12 -75 21 -57 25 -80 17 -88
-9 -9 -19 -1 -40 29 -16 22 -33 41 -38 41 -13 0 4 -91 25 -133 29 -55 13 -65
-32 -21 -64 63 -88 162 -64 274 21 102 98 380 105 380 4 0 20 -15 37 -32z
m-8857 -53 c-21 -77 8 -71 50 10 27 52 16 7 -16 -64 -32 -71 -118 -154 -278
-266 -70 -49 -134 -94 -142 -100 -20 -14 -27 0 -26 51 0 47 14 90 41 134 l16
24 6 -34 5 -35 21 45 c12 25 29 64 39 88 10 24 26 48 37 54 19 10 20 8 15 -36
-10 -85 24 -61 57 41 14 46 44 83 66 83 3 0 2 -21 -2 -47 -4 -27 -4 -52 1 -56
9 -10 46 46 55 85 8 30 53 84 62 74 3 -3 0 -26 -7 -51z m-84 -398 c-7 -62 -42
-138 -94 -203 -57 -73 -342 -300 -353 -282 -10 15 -10 70 1 113 6 25 8 27 15
12 14 -34 35 1 35 60 0 55 21 123 39 123 5 0 12 -22 16 -50 4 -27 10 -50 15
-50 13 0 29 51 36 115 7 64 26 105 49 105 10 0 15 -17 17 -67 l3 -68 22 35
c13 19 28 59 34 90 13 58 33 100 49 100 6 0 10 -30 10 -67 l1 -68 24 27 c13
16 29 52 35 85 7 32 17 67 23 78 10 19 11 18 19 -10 5 -16 7 -52 4 -78z m9136
-22 l21 -40 -22 19 c-21 19 -21 19 -21 -9 0 -15 14 -52 31 -81 22 -39 29 -64
27 -91 l-3 -38 -35 50 -35 50 -3 -31 c-2 -17 8 -61 22 -98 17 -45 23 -73 17
-88 -7 -19 -11 -16 -42 35 -30 51 -34 55 -41 36 -5 -14 -1 -49 13 -97 14 -51
18 -81 12 -95 -8 -18 -12 -13 -32 36 -13 32 -28 54 -33 50 -11 -6 -6 -105 8
-172 11 -53 -16 -35 -51 34 -27 54 -30 69 -30 150 1 80 5 103 44 210 24 66 52
150 64 187 l21 68 24 -23 c13 -12 33 -40 44 -62z m129 -390 c9 -22 20 -56 23
-75 l7 -35 -20 24 c-18 20 -22 21 -27 7 -8 -21 -2 -49 26 -112 16 -37 21 -60
15 -80 l-7 -29 -16 23 c-10 13 -27 35 -39 50 l-22 27 -1 -40 c0 -21 7 -58 16
-82 11 -27 14 -52 9 -70 -7 -27 -8 -27 -33 27 l-25 55 -10 -29 c-6 -19 -6 -50
1 -94 8 -47 8 -71 0 -86 -12 -23 -13 -23 -38 47 -18 51 -29 28 -32 -65 l-3
-93 -22 45 c-29 61 -38 144 -23 216 7 33 39 118 72 189 33 72 70 156 82 187
23 65 36 63 67 -7z m-9406 -52 c-12 -102 -55 -164 -227 -335 -87 -86 -160
-153 -162 -150 -12 21 -17 79 -11 125 7 46 9 49 18 30 23 -53 42 -19 42 78 0
51 5 82 14 93 17 21 25 11 36 -49 l7 -40 16 30 c9 17 21 59 27 94 14 84 33 91
37 14 l3 -58 22 35 c13 19 26 57 29 83 4 30 15 56 28 69 l21 19 5 -53 5 -53
22 35 c13 19 31 56 40 83 16 44 18 46 26 25 5 -13 6 -47 2 -75z m-79 -432
c-11 -110 -46 -172 -191 -336 -38 -44 -82 -95 -96 -114 l-27 -34 -15 29 c-19
39 -32 108 -18 99 6 -3 11 -14 11 -23 1 -15 3 -14 16 3 12 16 14 35 9 90 -4
46 -2 81 6 100 l12 30 17 -55 16 -55 14 40 c7 22 14 65 15 96 1 30 5 61 9 67
13 22 26 12 27 -20 1 -18 4 -44 8 -58 l7 -25 17 26 c10 14 21 58 25 99 8 84
32 111 33 38 0 -23 4 -51 8 -62 6 -15 10 -12 24 20 9 22 21 59 27 84 22 88 21
87 37 55 12 -21 14 -45 9 -94z m9572 30 c17 -49 16 -77 -2 -62 -25 21 -27 -30
-4 -94 15 -42 19 -70 14 -90 -8 -33 -12 -31 -50 37 -18 32 -19 32 -29 11 -7
-16 -5 -40 7 -87 20 -80 20 -120 2 -135 -12 -10 -18 -2 -35 44 -12 31 -21 61
-21 68 0 7 -7 3 -16 -8 -12 -16 -14 -37 -8 -107 6 -85 1 -138 -14 -138 -4 0
-16 29 -26 65 -10 36 -22 65 -26 65 -16 0 -21 -56 -14 -144 6 -84 6 -90 -9
-77 -22 18 -47 103 -47 161 0 103 34 191 158 406 93 163 94 164 120 85z
m-9622 -378 c11 -24 17 -65 17 -110 0 -92 -18 -128 -168 -333 -97 -132 -111
-148 -123 -133 -18 25 -32 82 -32 133 l0 45 24 -30 c21 -26 25 -28 31 -12 4 9
4 32 1 50 -24 123 -15 163 19 87 10 -22 22 -37 27 -33 6 3 9 44 7 96 -5 104
11 128 33 52 7 -26 18 -47 23 -48 6 -1 12 35 15 83 3 47 10 94 17 105 10 17
12 15 23 -25 18 -72 19 -75 32 -62 6 6 13 47 16 92 2 44 8 80 13 80 5 0 16
-17 25 -37z m9664 -85 c20 -43 24 -111 11 -158 -7 -25 -7 -25 -19 8 -19 55
-32 27 -32 -68 0 -88 -5 -120 -20 -120 -4 0 -13 20 -19 45 -20 81 -41 48 -41
-66 0 -39 -5 -73 -13 -84 -16 -20 -19 -17 -37 39 -10 32 -14 36 -22 22 -5 -9
-12 -47 -15 -85 -9 -110 -33 -125 -43 -28 -5 51 -6 52 -20 27 -8 -14 -17 -45
-21 -70 -6 -43 -6 -42 -8 21 -2 117 23 176 159 379 42 63 85 130 94 148 9 17
19 32 22 32 3 0 14 -19 24 -42z m-9658 -483 c0 -82 -28 -166 -89 -266 -112
-183 -136 -218 -145 -213 -15 10 -48 86 -48 113 0 24 0 24 16 5 14 -17 15 -10
10 91 -6 116 4 164 23 112 6 -15 14 -39 17 -52 3 -14 10 -25 14 -25 16 0 20
33 13 121 -5 77 -4 92 12 109 24 27 33 18 41 -41 13 -96 29 -69 40 68 7 90 18
100 29 25 3 -26 10 -54 14 -61 12 -18 31 41 32 98 1 44 1 45 11 16 5 -16 10
-61 10 -100z m9664 29 c9 -22 14 -58 12 -92 l-3 -57 -16 33 c-14 29 -17 31
-29 17 -9 -11 -11 -35 -7 -82 5 -63 -6 -123 -23 -123 -4 0 -13 23 -20 50 -20
85 -40 60 -40 -50 0 -65 -14 -120 -31 -120 -4 0 -10 27 -14 61 -6 54 -9 59
-22 46 -9 -8 -18 -45 -23 -84 -13 -117 -50 -157 -50 -53 0 101 -35 68 -51 -48
-12 -82 -24 -97 -38 -46 -35 126 11 231 184 421 45 48 94 105 110 125 17 21
34 38 38 38 4 0 15 -16 23 -36z m-9646 -358 c51 -114 32 -223 -74 -446 -41
-85 -77 -164 -81 -175 l-6 -20 -16 20 c-30 39 -63 121 -62 155 l0 35 22 -40
22 -40 3 39 c2 22 -1 67 -7 101 -13 71 -14 122 -4 111 4 -4 17 -33 29 -64 17
-43 24 -53 29 -39 7 17 2 126 -9 197 -5 29 -1 25 24 -27 17 -35 33 -63 37 -63
3 0 3 48 -1 106 -7 111 2 129 24 49 18 -65 30 -39 30 68 0 97 9 104 40 33z
m9609 -146 c0 -49 -1 -53 -12 -32 -22 39 -37 7 -37 -78 0 -69 -9 -100 -31
-100 -4 0 -10 21 -14 46 -6 43 -8 45 -22 31 -10 -10 -18 -43 -22 -89 -4 -40
-10 -79 -14 -86 -14 -21 -27 -3 -27 36 0 54 -13 70 -34 41 -11 -16 -16 -45
-16 -91 0 -57 -3 -69 -22 -82 -27 -19 -38 -12 -38 22 0 15 -4 33 -9 41 -15 23
-41 -28 -41 -81 0 -47 -23 -88 -50 -88 -16 0 -23 48 -16 108 11 96 48 156 159
262 56 52 130 124 166 160 74 73 79 72 80 -20z m-9524 -317 c23 -47 34 -147
23 -198 -4 -22 -40 -131 -80 -243 -70 -198 -71 -202 -91 -185 -21 20 -47 65
-47 85 0 9 3 9 12 0 36 -36 38 19 3 88 -14 27 -25 64 -25 82 l1 33 33 -37 c18
-21 36 -38 40 -38 14 0 4 56 -20 110 -19 43 -23 63 -16 76 8 15 13 12 36 -25
15 -23 31 -39 36 -36 16 10 11 63 -10 105 -23 46 -26 83 -6 99 11 10 20 5 41
-23 45 -59 63 -20 25 54 -23 44 -26 80 -8 98 15 15 31 2 53 -45z m9433 -145
c-5 -89 -17 -112 -41 -78 -14 20 -15 20 -20 3 -3 -10 -8 -40 -12 -68 -4 -27
-14 -63 -23 -80 l-16 -30 -7 30 c-4 17 -7 45 -8 63 -2 56 -17 35 -46 -65 -16
-54 -34 -101 -39 -105 -7 -5 -13 20 -16 75 l-5 82 -40 -115 -40 -115 -3 60
c-2 33 -7 64 -11 68 -5 5 -18 -20 -31 -55 -28 -77 -60 -138 -73 -138 -6 0 -8
32 -5 78 8 130 54 194 258 357 63 51 126 103 140 116 35 34 44 15 38 -83z
m-9297 -338 c28 -72 22 -140 -27 -325 -20 -77 -41 -162 -47 -190 -5 -27 -13
-54 -18 -59 -13 -14 -66 32 -88 77 -28 58 -27 76 2 49 49 -46 50 -12 2 74 -21
38 -35 75 -35 96 l1 33 39 -45 40 -45 0 33 c0 18 -11 55 -25 82 -24 48 -33
104 -17 113 4 3 20 -17 37 -44 48 -81 60 -58 24 48 -11 34 -19 77 -17 95 l3
33 29 -52 c16 -29 33 -53 38 -53 13 0 9 64 -7 110 -8 23 -15 54 -15 68 0 26 0
26 30 -8 16 -19 39 -60 51 -90z m9142 -190 l-18 -45 -5 45 -5 45 -19 -29 c-11
-15 -32 -62 -46 -104 -31 -88 -57 -111 -46 -41 4 24 9 55 12 69 5 25 5 25 -21
-5 -14 -16 -42 -64 -62 -105 -20 -41 -38 -77 -39 -79 -11 -13 -11 12 0 67 8
34 10 62 6 62 -3 0 -22 -27 -41 -60 -63 -111 -70 -122 -74 -118 -2 2 2 28 10
58 18 68 18 65 -1 50 -8 -8 -33 -44 -56 -82 -54 -91 -63 -95 -55 -23 14 132
90 220 304 348 70 42 137 83 148 91 19 14 20 13 23 -42 2 -37 -3 -72 -15 -102z
m-8986 -328 c4 -57 -2 -133 -22 -273 -15 -107 -29 -195 -31 -197 -7 -9 -58 36
-78 67 -23 37 -49 102 -43 108 2 2 16 -6 30 -18 38 -29 35 -8 -8 82 -33 70
-43 109 -28 109 4 0 22 -14 40 -32 l33 -32 0 27 c0 14 -11 52 -25 83 -14 31
-25 71 -25 88 l1 31 40 -45 40 -45 -4 35 c-3 19 -15 61 -27 93 -31 79 -15 95
29 30 l32 -48 -4 50 c-2 28 -7 59 -10 70 -4 11 7 -8 24 -43 24 -48 32 -80 36
-140z m8824 -30 c-12 -72 -30 -114 -31 -69 0 58 -29 23 -71 -87 -11 -31 -30
-61 -41 -67 -26 -14 -29 -9 -18 32 27 92 -6 86 -51 -10 -36 -76 -65 -111 -91
-111 -23 0 -23 8 1 70 11 27 15 50 10 50 -13 0 -83 -92 -98 -129 -8 -17 -19
-31 -27 -31 -10 0 -9 13 7 57 10 31 16 59 13 62 -6 6 -45 -35 -76 -79 l-18
-25 6 30 c16 74 66 143 146 202 68 50 331 184 341 174 4 -4 3 -36 -2 -69z
m-8709 -152 c47 -39 96 -138 104 -211 8 -73 -6 -489 -16 -489 -13 0 -68 49
-91 82 l-22 30 22 -7 c37 -11 25 22 -28 78 -46 48 -75 107 -54 107 5 0 28 -14
51 -31 33 -24 42 -27 42 -14 0 22 -17 54 -53 94 -37 44 -60 97 -49 116 6 12
17 6 52 -30 24 -25 48 -45 52 -45 23 0 -14 90 -66 159 -27 36 -33 65 -17 76 5
3 29 -15 52 -40 23 -25 47 -45 52 -45 19 0 -4 66 -43 123 -57 84 -53 100 12
47z m8507 -241 c-4 -28 -21 -72 -36 -97 l-28 -47 -5 40 -5 40 -23 -29 c-12
-16 -25 -41 -29 -55 -8 -36 -32 -81 -42 -81 -4 0 -6 24 -4 53 l4 52 -26 -30
c-14 -16 -35 -51 -47 -77 -27 -56 -64 -75 -54 -27 3 16 9 44 13 62 l6 32 -22
-20 c-13 -11 -38 -45 -58 -77 -30 -49 -58 -76 -69 -65 -2 1 3 25 11 52 8 26
15 53 15 59 0 17 -70 -56 -97 -101 -14 -24 -28 -43 -33 -43 -4 0 -3 23 2 52
25 139 102 200 376 299 74 27 137 51 140 54 15 14 18 0 11 -46z m-8233 -222
c65 -76 82 -161 86 -429 4 -201 6 -197 -79 -115 -50 47 -53 56 -18 49 14 -2
25 -1 25 2 0 19 -33 64 -64 86 -39 28 -60 59 -54 84 3 14 8 13 40 -9 20 -14
42 -25 47 -25 18 0 -7 50 -49 98 -42 47 -55 91 -22 73 9 -5 26 -19 36 -30 50
-56 43 4 -9 82 -19 29 -35 63 -35 76 0 24 1 24 40 -14 33 -33 40 -36 40 -19 0
11 -16 52 -35 92 l-35 73 29 -21 c16 -11 42 -35 57 -53z m7988 -189 c-14 -43
-19 -49 -23 -31 -9 35 -31 14 -71 -69 -50 -103 -98 -127 -66 -32 9 26 16 50
16 53 0 13 -75 -69 -97 -107 -23 -39 -59 -70 -69 -60 -2 3 6 28 18 56 12 28
19 55 15 59 -9 8 -62 -42 -89 -85 -11 -18 -33 -39 -49 -48 l-30 -15 31 61 c30
59 30 61 8 49 -13 -6 -51 -39 -85 -72 -54 -53 -63 -58 -63 -39 0 73 91 174
203 227 84 40 360 125 365 113 2 -4 -4 -32 -14 -60z m-7778 -111 c60 -42 108
-111 133 -192 18 -59 67 -402 59 -410 -6 -6 -105 42 -112 54 -4 7 1 11 13 11
12 0 21 4 21 8 0 10 -41 48 -92 85 -35 25 -56 62 -44 74 3 3 21 -4 41 -16 20
-11 41 -21 46 -21 17 0 -12 42 -69 102 -67 71 -69 102 -2 58 25 -16 48 -30 52
-30 16 0 -8 43 -59 104 -62 75 -63 106 0 50 22 -21 42 -33 44 -27 5 15 -40
103 -71 141 -46 53 -30 57 40 9z m7548 -230 c-8 -24 -28 -59 -44 -78 l-29 -34
-1 29 c0 27 -1 28 -22 14 -13 -8 -37 -39 -53 -69 -27 -47 -71 -86 -84 -74 -2
3 4 25 14 50 28 73 -2 73 -55 -1 -32 -45 -76 -81 -86 -71 -3 3 6 26 21 51 23
39 24 46 10 46 -9 0 -40 -22 -68 -49 -91 -85 -134 -94 -78 -16 21 30 27 45 18
45 -17 0 -97 -52 -122 -80 -31 -34 -36 -22 -11 28 58 113 146 160 405 213 80
16 147 31 149 34 3 3 16 5 28 5 22 0 23 -1 8 -43z m-7260 -82 c48 -20 113 -80
136 -125 28 -56 48 -134 70 -280 11 -74 23 -148 27 -164 5 -26 4 -28 -18 -21
-45 14 -94 43 -119 70 l-25 27 33 -7 c17 -3 32 -4 32 -2 0 21 -20 42 -70 72
-62 37 -89 73 -48 61 13 -4 39 -9 58 -12 35 -5 34 -5 -40 64 -41 39 -72 74
-67 78 4 4 28 -2 52 -14 25 -12 48 -22 50 -22 17 0 -3 30 -53 83 -52 55 -81
97 -66 97 3 0 22 -9 44 -20 22 -11 44 -20 50 -20 17 0 -21 58 -62 96 -57 51
-51 67 16 39z m6961 -252 c-20 -47 -75 -106 -75 -80 0 36 -33 13 -79 -55 -29
-44 -65 -68 -79 -54 -3 4 4 27 16 51 37 76 -18 53 -82 -34 -35 -48 -91 -80
-108 -63 -4 4 11 33 33 65 34 48 38 57 22 57 -22 0 -59 -27 -121 -88 -28 -27
-52 -42 -68 -42 l-26 0 41 57 c22 31 38 59 36 61 -13 13 -65 -16 -116 -65 -33
-31 -62 -54 -65 -51 -10 11 34 82 73 119 78 75 181 107 423 134 85 10 157 19
159 21 2 2 10 4 18 4 11 0 10 -7 -2 -37z m-6588 -82 c83 -60 127 -143 182
-343 22 -79 45 -156 51 -172 l10 -28 -37 7 c-40 7 -108 39 -117 54 -3 5 3 7
14 4 52 -14 -10 61 -81 97 -23 12 -41 30 -47 48 l-10 29 49 -20 c27 -11 52
-17 56 -13 4 4 -10 23 -32 42 -106 92 -115 101 -115 127 0 34 5 34 60 -3 24
-16 46 -27 48 -25 7 7 -35 68 -68 100 -35 33 -56 65 -42 65 5 0 29 -13 53 -29
24 -17 45 -28 47 -26 7 6 -20 50 -51 83 -38 40 -23 42 30 3z m6243 -237 c-15
-40 -57 -89 -100 -119 -45 -31 -60 -28 -36 7 36 51 5 42 -78 -24 -47 -37 -91
-56 -102 -45 -3 3 6 23 20 44 16 22 22 39 15 42 -6 2 -41 -18 -77 -43 -37 -25
-77 -46 -90 -46 -22 0 -30 14 -12 25 5 3 19 19 30 35 31 43 6 39 -69 -11 -37
-25 -69 -39 -83 -37 -22 3 -21 5 15 37 20 19 37 38 37 43 0 15 -35 8 -80 -17
l-45 -25 35 30 c83 72 197 101 465 118 77 5 146 9 152 10 9 2 10 -5 3 -24z
m-5920 -20 c52 -25 115 -89 154 -156 14 -25 48 -104 76 -176 27 -72 59 -150
70 -173 l22 -42 -43 7 c-47 8 -113 35 -144 60 -19 15 -18 16 25 10 l45 -5 -40
36 c-22 21 -64 51 -92 67 -85 48 -87 71 -4 38 28 -11 57 -20 63 -20 18 0 -41
58 -111 108 -64 46 -71 68 -12 37 49 -25 81 -35 81 -26 0 5 -35 39 -77 76 -43
37 -79 72 -81 76 -2 5 22 -3 52 -16 31 -14 56 -22 56 -18 0 4 -33 41 -72 81
-66 66 -70 73 -43 66 17 -4 50 -17 75 -30z m440 -278 c58 -41 123 -138 185
-277 27 -61 62 -131 77 -156 15 -24 28 -46 28 -50 0 -8 -99 3 -108 12 -4 4 -1
10 5 12 27 10 -8 43 -62 58 -85 25 -120 71 -45 59 25 -4 40 -3 40 4 0 21 -61
61 -104 67 -34 5 -46 13 -55 32 -12 25 -11 25 26 19 21 -4 46 -9 56 -12 25 -8
21 9 -10 38 -27 25 -37 29 -95 42 -17 4 -29 16 -36 36 l-11 30 51 0 c50 0 50
0 36 23 -9 13 -38 29 -72 40 -43 14 -57 24 -62 42 -3 13 -3 28 0 34 10 15 105
-17 156 -53z m4895 49 c72 -8 154 -15 183 -15 28 0 52 -4 52 -8 0 -19 -62 -94
-93 -112 -45 -28 -49 -25 -26 15 32 53 3 43 -88 -31 -32 -26 -64 -44 -79 -44
l-25 0 37 45 c20 25 34 48 30 52 -8 9 -53 -13 -96 -47 -45 -35 -84 -52 -106
-43 -12 4 -7 15 27 49 24 24 40 46 37 50 -7 6 -64 -19 -135 -60 -27 -15 -51
-22 -65 -18 -20 5 -18 8 25 45 26 21 47 43 47 48 0 15 -49 -1 -119 -38 -35
-18 -66 -31 -69 -29 -9 10 49 76 90 103 43 29 126 51 198 52 25 0 104 -6 175
-14z m-395 -231 c63 -14 147 -28 185 -32 l70 -8 -43 -42 c-47 -46 -63 -52 -55
-22 9 34 -29 24 -91 -25 -86 -66 -131 -58 -64 12 30 31 31 33 10 33 -34 0 -84
-24 -111 -54 -24 -25 -71 -36 -71 -16 0 5 16 28 36 50 l36 40 -30 0 c-20 0
-43 -10 -64 -29 -51 -43 -73 -52 -102 -41 -33 12 -33 17 6 57 30 31 31 33 10
33 -30 0 -84 -23 -101 -43 -12 -16 -47 -15 -74 0 -13 8 43 62 85 84 87 45 171
45 368 3z m-4142 1 c64 -30 142 -109 197 -199 22 -37 68 -110 102 -163 35 -53
60 -99 57 -102 -12 -12 -140 -5 -164 8 l-25 14 39 11 c33 9 37 13 24 23 -8 7
-43 19 -79 26 -117 25 -147 57 -52 57 55 0 56 0 38 20 -10 11 -44 27 -76 36
-55 16 -99 44 -99 65 0 5 10 7 23 5 12 -3 40 -8 62 -11 l40 -7 -25 26 c-13 15
-46 34 -73 44 -48 17 -104 58 -94 68 3 3 22 1 44 -5 21 -6 49 -11 62 -11 23 0
24 1 6 20 -9 10 -47 34 -82 52 -35 18 -67 36 -69 40 -12 19 94 7 144 -17z
m3769 -179 c100 -25 192 -46 204 -46 22 0 21 -2 -12 -36 -33 -35 -81 -64 -128
-79 -22 -7 -23 -5 -17 19 9 35 -7 34 -75 -7 -48 -29 -89 -38 -89 -19 0 3 17
23 37 44 20 21 35 40 32 42 -2 2 -33 -8 -69 -23 -72 -31 -144 -48 -139 -33 2
6 28 29 57 52 30 23 52 43 50 45 -2 3 -53 -12 -112 -31 -60 -19 -110 -33 -113
-30 -2 2 16 18 40 35 47 32 71 67 39 57 -58 -18 -196 -45 -201 -40 -10 10 69
72 113 88 66 25 176 14 383 -38z m-3385 7 c66 -24 147 -89 220 -180 35 -43 92
-111 127 -151 50 -58 61 -76 50 -84 -22 -15 -140 -3 -179 18 l-35 19 40 5 c36
5 38 7 20 16 -11 7 -47 19 -80 29 -110 31 -138 65 -55 65 83 0 59 20 -71 60
-20 6 -45 20 -54 30 -18 20 -17 20 41 20 l59 1 -23 19 c-13 11 -48 27 -78 37
-30 9 -62 26 -72 36 -17 20 -16 20 41 14 70 -7 72 6 7 40 -52 27 -27 31 42 6z
m498 -134 c77 -38 100 -57 238 -197 109 -111 149 -158 140 -164 -7 -4 -42 -8
-77 -8 -57 0 -63 2 -46 14 18 13 18 14 -5 26 -16 8 -43 10 -85 6 -52 -5 -66
-3 -86 13 -26 21 -25 21 49 36 70 14 11 45 -87 45 -56 0 -74 4 -97 22 l-28 23
29 6 c17 4 50 7 74 8 37 1 42 3 31 16 -16 19 -102 45 -150 45 -26 0 -43 7 -60
25 l-23 25 66 0 c36 0 68 4 72 10 10 16 -38 39 -107 50 -98 15 -109 21 -73 37
51 23 129 9 225 -38z m2217 42 c51 -10 391 -128 407 -142 13 -11 -72 -68 -127
-84 -28 -8 -52 -13 -54 -11 -2 2 13 14 34 27 34 22 36 24 16 27 -13 2 -61 -6
-108 -18 -116 -29 -135 -23 -60 20 40 22 54 35 43 38 -18 4 -172 -21 -200 -33
-10 -4 -18 -3 -18 3 0 6 20 18 45 27 25 10 50 25 57 33 12 13 7 15 -42 9 -30
-3 -80 -9 -110 -12 l-55 -5 53 25 c28 13 52 28 52 31 0 4 -47 4 -105 1 -58 -3
-105 -2 -105 2 0 13 78 52 122 60 60 12 98 12 155 2z m-412 -96 c33 -9 131
-51 217 -94 l157 -79 -37 -24 c-54 -35 -139 -64 -98 -33 17 13 18 15 2 21 -17
7 -36 4 -127 -17 -31 -7 -64 -9 -75 -5 -16 6 -10 12 36 36 l55 29 -71 1 c-39
0 -85 -5 -102 -11 -25 -8 -35 -7 -56 6 -14 10 -24 21 -21 25 3 5 29 16 57 26
68 22 47 32 -77 34 l-90 2 63 22 c35 12 60 25 56 29 -4 4 -37 7 -72 7 -73 0
-75 7 -5 26 65 17 117 17 188 -1z m-1383 -25 c84 -26 130 -58 287 -197 148
-132 148 -133 27 -140 l-71 -4 24 19 c34 27 16 33 -83 30 -68 -2 -89 0 -102
13 -15 15 -12 17 35 29 86 20 62 39 -63 49 -50 4 -81 11 -84 19 -2 8 10 12 40
12 101 1 77 33 -37 49 -102 15 -133 51 -44 51 44 0 50 2 39 15 -7 8 -38 22
-69 31 -92 27 -88 25 -66 34 35 15 101 11 167 -10z m956 -30 c37 -17 129 -70
205 -117 130 -80 137 -86 118 -100 -37 -25 -90 -43 -128 -43 l-38 0 30 24 c29
23 29 23 7 30 -13 4 -43 1 -72 -9 -27 -9 -64 -15 -82 -13 l-33 3 43 23 c67 36
54 44 -55 36 -103 -7 -113 -1 -44 31 60 27 41 39 -49 31 -115 -9 -145 8 -65
38 25 10 45 21 45 26 0 15 -53 21 -119 14 l-66 -7 19 22 c51 57 175 62 284 11z
m-445 -23 c39 -20 110 -65 157 -99 47 -34 106 -76 132 -94 35 -24 44 -35 35
-42 -16 -13 -108 -44 -114 -38 -3 2 5 7 16 11 55 17 -2 39 -64 25 -52 -12
-132 -13 -139 -1 -4 5 16 17 44 26 27 9 50 20 50 25 0 12 -104 24 -154 17 -37
-5 -78 5 -66 16 3 2 29 12 58 22 73 23 55 39 -51 43 -45 2 -89 5 -97 8 -23 8
6 22 63 29 27 4 45 11 40 15 -14 14 -115 40 -155 40 -21 0 -38 4 -38 9 0 17
67 30 138 27 59 -2 85 -9 145 -39z"/>
<path d="M4690 9513 c-19 -1 -87 -8 -150 -14 -314 -29 -653 -104 -949 -209
-181 -64 -239 -89 -481 -208 -467 -228 -804 -474 -1180 -858 -507 -518 -851
-1089 -1073 -1779 -140 -436 -206 -917 -194 -1420 18 -700 173 -1328 481
-1944 508 -1015 1517 -1854 2626 -2185 224 -67 492 -120 800 -158 168 -21 770
-17 945 5 318 41 564 97 850 192 1002 332 1835 1008 2400 1945 311 516 504
1130 571 1810 21 212 24 643 5 840 -38 417 -129 826 -255 1152 -293 760 -757
1401 -1371 1897 -296 239 -698 478 -1035 617 -400 164 -839 269 -1298 309
-148 13 -588 18 -692 8z m474 -320 c9 -56 7 -93 -4 -93 -5 0 -10 4 -10 9 0 5
-12 23 -26 40 -23 28 -32 31 -81 31 -99 0 -95 10 -87 -228 7 -226 12 -246 63
-257 16 -3 35 -13 42 -21 10 -12 -5 -14 -102 -14 -63 0 -138 -3 -168 -7 -43
-5 -53 -3 -49 7 2 8 17 18 34 23 60 20 61 21 47 326 -6 148 -7 153 -30 164
-17 7 -38 7 -79 -2 -49 -11 -57 -17 -70 -46 -28 -67 -45 -47 -35 40 l6 50 165
5 c91 3 213 7 271 8 l106 2 7 -37z m-620 18 c3 -4 -3 -16 -14 -26 -30 -27 -26
-101 20 -335 22 -113 40 -206 40 -207 1 -16 -63 23 -265 162 -131 91 -243 165
-247 165 -5 0 -6 -17 -3 -37 25 -144 49 -244 68 -283 20 -42 25 -45 65 -48 28
-2 42 -8 42 -18 0 -8 -3 -14 -7 -14 -22 0 -184 -29 -193 -35 -5 -3 -10 1 -10
9 0 8 9 20 19 26 11 5 22 18 25 28 10 31 -60 387 -85 434 -6 10 -26 20 -50 24
-73 12 -61 30 29 45 31 5 69 11 83 15 22 5 52 -11 170 -92 244 -166 256 -174
264 -174 14 0 -25 223 -47 267 -11 23 -70 49 -87 39 -5 -4 -13 -1 -17 5 -9 16
15 29 56 30 19 0 55 6 80 13 59 17 58 17 64 7z m1227 -162 c130 -72 144 -249
29 -353 -71 -64 -198 -71 -287 -16 -74 44 -109 151 -82 247 16 59 80 126 135
141 61 17 155 8 205 -19z m-1945 -64 c13 -31 24 -58 24 -60 0 -14 -29 -2 -50
20 -29 31 -77 33 -135 6 -65 -29 -67 -35 -33 -128 33 -91 39 -95 103 -69 27
12 36 23 45 55 6 23 14 41 18 41 8 0 72 -142 72 -160 0 -6 -13 -2 -29 9 -16
12 -43 21 -61 21 -37 0 -90 -25 -90 -43 0 -29 58 -181 72 -191 41 -26 174 68
200 141 15 42 24 42 38 -2 28 -84 -13 -130 -155 -175 -55 -18 -129 -45 -164
-61 -91 -41 -108 -39 -71 8 11 14 20 32 20 39 0 17 -140 395 -152 411 -5 7
-28 13 -51 15 -22 2 -42 8 -44 13 -2 6 59 32 134 59 76 27 165 62 198 77 33
15 66 28 73 28 7 1 24 -24 38 -54z m2268 -6 l152 -41 -5 -41 c-6 -40 -31 -65
-31 -30 0 10 -6 28 -14 39 -16 22 -86 47 -108 39 -19 -8 -51 -99 -43 -124 8
-27 50 -37 83 -20 15 7 31 15 36 17 7 4 1 -59 -10 -100 -7 -25 -21 -22 -28 5
-6 24 -43 47 -75 47 -24 0 -51 -65 -51 -121 0 -30 6 -46 23 -60 l22 -18 -27
-1 c-15 0 -51 9 -80 20 -29 11 -61 20 -70 20 -10 0 -18 5 -18 10 0 6 7 10 15
10 23 0 43 49 75 185 36 151 36 152 8 182 -12 13 -18 23 -14 23 4 0 76 -18
160 -41z m611 -208 c102 -46 171 -84 173 -93 2 -9 -3 -31 -11 -49 -13 -30 -15
-32 -22 -14 -22 61 -57 95 -100 95 -18 0 -145 -259 -145 -295 0 -12 9 -34 20
-48 28 -35 25 -39 -12 -18 -18 11 -68 34 -110 52 -43 17 -78 35 -78 38 0 3 16
7 36 8 20 1 41 6 46 11 5 5 38 73 73 151 71 157 71 160 -4 182 -32 10 -42 9
-65 -6 -16 -11 -26 -13 -26 -6 0 21 30 71 43 70 6 0 89 -35 182 -78z m-3455
32 c0 -3 -7 -14 -16 -24 -31 -34 -9 -84 110 -259 l113 -165 47 2 c33 1 46 -3
46 -12 0 -8 -9 -16 -19 -20 -11 -3 -61 -31 -111 -61 -51 -31 -94 -53 -97 -51
-2 3 2 18 11 34 15 29 14 31 -77 168 -76 115 -93 134 -95 113 -2 -14 6 -110
17 -214 11 -104 17 -192 13 -196 -4 -3 -83 43 -177 102 -93 60 -171 107 -173
105 -9 -9 118 -232 142 -247 6 -4 31 -8 54 -8 60 0 52 -14 -42 -74 -80 -50
-99 -53 -76 -12 24 46 1 105 -120 315 -65 111 -83 126 -145 117 -29 -5 -45 -4
-45 3 0 6 4 11 9 11 5 0 33 18 62 40 30 23 64 43 76 46 17 5 67 -22 198 -106
97 -61 179 -110 181 -107 2 2 -5 89 -16 192 -12 104 -20 200 -18 214 2 19 18
35 63 63 58 35 85 46 85 31z m3767 -200 c75 -49 87 -63 54 -63 -23 0 -78 -61
-87 -96 -7 -29 18 -55 93 -96 49 -26 60 -20 93 47 20 41 20 46 5 74 -8 17 -12
31 -7 31 10 0 88 -51 127 -83 l30 -25 -25 -7 c-18 -5 -49 -44 -114 -147 l-89
-140 17 -29 c25 -43 4 -38 -82 19 l-73 49 33 9 c24 7 40 23 65 64 18 30 33 60
33 67 0 6 -30 32 -66 58 l-67 46 -23 -22 c-13 -12 -34 -42 -45 -67 -21 -42
-21 -46 -5 -72 26 -45 3 -43 -59 5 -32 24 -66 47 -76 50 -27 9 -23 22 9 29 21
5 44 33 111 137 83 130 87 142 66 192 -11 26 2 21 82 -30z m-4386 -242 c41
-41 52 -68 22 -56 -54 22 -88 17 -133 -17 -67 -51 -65 -65 31 -183 45 -55 106
-129 137 -163 59 -68 54 -66 135 -46 44 11 32 -10 -40 -64 -38 -28 -90 -73
-118 -101 -65 -67 -98 -71 -55 -6 11 17 20 40 20 53 0 29 -264 352 -287 352
-9 0 -38 -22 -65 -49 -45 -46 -49 -53 -43 -83 11 -50 11 -50 -1 -55 -13 -4
-63 68 -67 95 -1 14 43 56 153 145 85 69 178 146 205 171 28 25 54 45 59 46 4
0 26 -17 47 -39z m2759 -36 c694 -84 1318 -382 1831 -873 388 -371 713 -901
854 -1393 80 -276 114 -510 122 -829 23 -938 -274 -1713 -907 -2364 -784 -807
-1878 -1134 -2990 -894 -914 196 -1791 907 -2179 1765 -266 587 -363 1303
-260 1910 29 177 105 463 160 612 273 732 882 1406 1594 1766 350 177 725 278
1170 315 143 11 447 4 605 -15z m2127 -71 c149 -120 138 -107 123 -144 -7 -17
-21 -35 -31 -40 -16 -9 -17 -6 -12 26 5 31 1 40 -33 75 -21 21 -45 39 -54 39
-18 0 -71 -52 -89 -87 -9 -19 -7 -25 17 -43 20 -16 36 -20 59 -17 40 7 41 1 4
-51 -38 -51 -54 -62 -46 -29 7 28 -36 87 -64 87 -17 0 -82 -70 -93 -101 -16
-42 54 -89 132 -89 57 0 61 -11 17 -44 -40 -30 -87 -11 -177 72 -41 38 -86 75
-100 82 l-25 14 37 11 c31 9 54 31 133 130 95 120 104 139 85 176 -20 36 8 20
117 -67z m-5347 -379 c50 -25 65 -52 65 -116 l0 -59 55 -16 c30 -9 90 -19 133
-22 65 -4 81 -2 98 13 29 27 45 7 30 -37 -27 -81 -101 -119 -193 -99 -29 6
-82 18 -118 26 -62 14 -66 13 -85 -5 -19 -20 -19 -20 34 -74 72 -73 102 -85
147 -61 74 40 48 -7 -75 -135 l-72 -75 6 37 c4 28 1 42 -12 55 -48 48 -307
269 -323 277 -13 6 -29 2 -54 -13 -49 -31 -57 -8 -11 36 20 20 62 70 92 112
125 171 187 205 283 156z m5926 -92 c15 -21 40 -54 55 -74 l28 -37 -14 -93
c-8 -52 -25 -164 -39 -249 -13 -85 -23 -157 -21 -158 2 -2 48 28 103 66 112
80 128 105 117 178 -4 29 -3 45 3 43 13 -5 122 -157 122 -170 0 -12 -4 -11
-34 2 -39 18 -72 -1 -274 -154 -101 -76 -186 -137 -188 -134 -3 3 15 141 41
307 25 167 43 305 40 308 -9 9 -231 -154 -258 -190 -21 -28 -26 -66 -13 -110
6 -21 5 -28 -5 -28 -15 1 -134 168 -126 176 3 3 23 0 45 -7 23 -7 45 -8 54 -3
8 5 83 61 166 124 159 121 186 155 163 199 -28 52 -2 55 35 4z m-6208 -590
c176 -14 218 -15 248 -4 19 7 38 10 41 7 3 -3 -23 -53 -58 -112 -60 -101 -64
-105 -71 -78 -11 41 -34 54 -94 54 l-53 0 -51 -85 c-58 -95 -58 -107 -4 -154
42 -38 51 -38 89 -5 29 25 30 25 33 5 2 -12 -9 -37 -26 -59 -16 -20 -33 -48
-37 -62 -17 -57 -45 -67 -45 -16 0 27 -14 53 -62 117 -133 172 -268 378 -268
405 0 15 10 16 73 11 39 -4 168 -14 285 -24z m6142 -227 c19 -11 76 -13 285
-9 143 3 275 1 293 -3 l33 -9 -52 -75 c-28 -41 -75 -104 -103 -140 -168 -209
-206 -262 -206 -291 0 -48 -15 -33 -55 54 -21 45 -46 93 -57 106 -21 28 -9 53
16 32 22 -19 52 -5 91 44 l36 43 -37 84 c-51 113 -49 111 -107 104 -65 -7 -77
-19 -77 -73 0 -60 -17 -52 -49 23 -14 33 -34 72 -43 87 -10 14 -18 29 -18 32
0 9 24 5 50 -9z m-6462 -46 c83 -51 99 -184 30 -257 -31 -33 -37 -28 -25 18 8
33 7 47 -7 75 -21 44 -91 79 -141 70 -43 -8 -95 -66 -95 -105 0 -26 6 -31 68
-56 175 -71 326 -125 349 -125 15 0 36 12 53 30 15 16 30 27 33 24 12 -12 -85
-261 -100 -257 -4 1 -9 14 -11 27 -2 14 -15 34 -30 45 -21 15 -379 151 -397
151 -2 0 -20 -14 -40 -31 -32 -29 -35 -29 -35 -10 0 11 13 53 29 93 15 40 38
105 50 143 43 135 92 185 181 185 37 0 65 -6 88 -20z m7186 -192 c25 -59 68
-200 62 -205 -3 -3 -17 2 -31 11 -26 17 -26 17 -98 -44 -88 -76 -207 -190
-207 -200 0 -13 163 -34 259 -34 104 1 121 10 121 66 0 53 25 29 43 -40 10
-37 24 -79 32 -94 19 -37 1 -45 -34 -16 -25 21 -48 27 -192 42 -188 20 -390
53 -402 65 -4 4 -5 14 -2 22 3 8 98 102 210 209 171 162 205 199 205 222 0 38
17 35 34 -4z m-7469 -334 c23 -9 18 -24 -10 -24 -45 0 -73 -21 -94 -71 -12
-26 -21 -63 -21 -81 0 -32 4 -35 48 -51 26 -9 66 -21 89 -26 51 -11 60 -2 69
60 5 39 3 49 -22 78 l-27 33 59 -7 c69 -8 124 -23 124 -35 0 -4 -13 -10 -30
-13 -36 -8 -70 -58 -70 -104 0 -39 23 -53 125 -77 65 -14 71 -14 83 1 37 50
38 153 1 225 -10 20 -19 41 -19 46 0 16 47 1 80 -27 49 -40 50 -90 7 -221 -19
-58 -38 -125 -42 -150 -13 -92 -25 -102 -52 -46 l-16 35 -215 53 -214 53 -33
-39 c-18 -21 -34 -35 -37 -30 -2 5 20 105 51 223 l55 213 48 -6 c26 -4 55 -9
63 -12z m7664 -306 c13 -38 43 -239 36 -246 -3 -4 -14 4 -24 16 l-17 23 -59
-39 c-33 -22 -77 -57 -98 -79 l-38 -40 80 -26 c44 -15 94 -27 111 -27 31 0 33
3 45 53 3 16 11 27 17 25 13 -5 37 -112 37 -168 l0 -35 -25 29 c-19 22 -55 39
-142 68 -155 50 -211 60 -272 47 -68 -14 -100 -42 -100 -84 0 -19 -5 -37 -10
-40 -14 -9 -27 31 -35 110 -7 72 -19 139 -31 168 -11 31 25 19 41 -13 14 -28
20 -30 68 -30 73 0 135 33 245 129 51 44 101 85 112 91 12 7 22 26 26 50 7 45
20 51 33 18z m-7566 -178 c68 -26 131 -84 163 -153 30 -66 32 -153 4 -295 -11
-56 -20 -116 -20 -132 0 -39 -10 -38 -38 5 -12 19 -28 35 -35 35 -6 0 -99 14
-205 30 -214 32 -236 30 -253 -20 -14 -40 -37 -38 -30 3 1 4 10 78 21 165 24
183 33 222 66 279 61 106 183 137 327 83z m7579 -782 c-4 -83 -14 -118 -32
-118 -6 0 -10 10 -10 22 0 15 -18 40 -50 69 -52 48 -63 71 -31 62 11 -3 39 6
63 21 24 14 48 26 54 26 7 0 9 -27 6 -82z m-7742 -123 c23 -19 50 -35 60 -35
50 0 25 -32 -56 -73 -28 -15 -54 -33 -57 -42 -4 -8 -11 -15 -16 -15 -20 0 -23
49 -5 96 14 37 15 52 7 75 -10 25 -9 29 7 29 10 0 37 -16 60 -35z m7401 -395
c35 0 38 -17 4 -26 -38 -9 -85 -69 -85 -107 0 -40 15 -57 52 -57 23 0 35 10
61 47 17 26 47 64 66 85 30 34 38 38 81 38 81 0 140 -54 140 -131 0 -50 -28
-127 -51 -140 -11 -5 -41 -9 -67 -7 l-47 3 41 22 c61 32 94 76 94 124 0 30 -5
42 -25 55 -37 24 -65 8 -114 -64 -85 -126 -140 -142 -223 -64 -36 33 -45 81
-25 135 9 23 21 55 27 71 7 19 15 26 26 22 9 -3 29 -6 45 -6z m-7111 -145 c0
-13 9 -51 19 -85 18 -56 18 -61 3 -53 -58 28 -273 -16 -324 -67 -56 -57 -28
-174 49 -207 34 -14 46 -14 142 3 119 22 161 42 161 79 0 41 17 28 24 -17 3
-24 9 -54 12 -67 6 -21 5 -22 -14 -12 -29 16 -59 14 -154 -9 -46 -11 -102 -20
-126 -20 -97 0 -160 70 -177 197 -8 60 18 131 57 157 13 8 82 30 153 47 72 18
133 37 137 43 4 6 8 22 8 35 0 20 2 21 15 11 8 -7 15 -23 15 -35z m7115 -185
c52 -32 68 -97 40 -164 -19 -46 -32 -46 -27 -1 3 28 -1 40 -26 65 -55 55 -140
30 -155 -46 -4 -21 1 -27 32 -40 45 -19 263 -84 281 -84 8 0 24 10 37 22 13
12 25 19 28 16 4 -4 -52 -178 -62 -188 -2 -2 -6 5 -9 17 -3 12 -13 25 -22 28
-114 45 -252 85 -295 85 -15 0 -32 -9 -41 -22 -9 -12 -18 -19 -21 -17 -8 8 63
260 81 287 20 30 73 62 103 62 13 0 38 -9 56 -20z m-6976 -359 l22 -60 -57
-118 c-30 -65 -64 -140 -75 -167 l-20 -48 38 7 c51 9 123 41 150 67 14 13 23
34 24 52 0 30 1 30 20 -13 11 -24 22 -54 25 -67 6 -21 3 -23 -28 -18 -25 4
-67 -8 -173 -49 -77 -31 -152 -59 -168 -62 -33 -9 -35 -15 48 166 59 128 108
249 101 249 -17 0 -178 -68 -208 -88 -32 -20 -38 -30 -38 -58 0 -19 -4 -34 -9
-34 -8 0 -35 63 -47 113 -6 26 -5 27 18 16 29 -13 46 -8 197 50 119 46 141 63
141 103 0 42 14 27 39 -41z m6839 -84 c12 -11 26 -35 31 -51 l8 -31 79 3 c56
2 89 9 112 22 18 11 35 20 38 20 11 0 2 -65 -13 -90 -21 -37 -52 -50 -116 -50
-56 0 -123 -15 -132 -30 -9 -15 62 -62 105 -67 30 -4 45 -1 60 12 32 29 26 -3
-17 -89 l-36 -74 -21 30 c-16 23 -53 45 -155 89 -74 33 -139 59 -145 59 -5 0
-20 -10 -33 -22 l-23 -21 0 21 c0 11 9 36 20 55 11 18 29 59 40 91 27 80 54
121 93 140 38 19 73 13 105 -17z m-6628 -438 c37 -73 41 -96 12 -67 -8 8 -41
-4 -134 -50 -181 -90 -188 -95 -188 -137 0 -51 -14 -37 -60 58 -39 83 -43 100
-15 77 19 -16 41 -7 190 72 118 64 135 78 135 116 0 37 17 17 60 -69z m6530
60 c60 -27 79 -45 106 -104 46 -97 21 -211 -64 -287 -50 -45 -105 -62 -161
-49 -144 32 -227 173 -173 294 32 72 69 114 125 142 61 30 107 31 167 4z
m-6351 -343 l110 -164 -22 -19 c-40 -36 -44 -35 -43 12 1 45 -27 97 -55 103
-8 1 -71 -37 -139 -86 l-125 -89 2 -41 c1 -23 0 -42 -2 -42 -6 0 -125 169
-132 187 -4 9 6 7 31 -8 l37 -22 97 66 c53 36 115 81 136 99 36 31 38 36 26
58 -23 45 -42 60 -77 60 -18 0 -33 4 -33 10 0 10 48 39 67 40 7 0 62 -74 122
-164z m6049 -54 c1 -5 -24 -12 -58 -14 -67 -5 -104 -26 -134 -77 -26 -45 -15
-92 37 -148 50 -55 112 -85 173 -85 85 0 134 58 134 157 1 56 2 59 16 40 11
-15 15 -37 12 -85 -6 -118 -88 -203 -197 -204 -90 0 -180 60 -215 146 -40 95
-2 216 84 269 27 16 51 36 54 45 5 13 12 11 48 -10 24 -14 44 -30 46 -34z
m-5794 -286 l97 -119 -27 -29 c-35 -36 -58 -38 -43 -4 7 14 9 35 6 48 -7 24
-60 88 -74 88 -19 -1 -103 -72 -103 -87 0 -27 41 -63 72 -63 15 0 28 -4 28 -8
0 -8 -38 -45 -74 -73 -18 -13 -19 -12 -13 10 7 29 -15 85 -39 99 -15 8 -28 1
-71 -35 -29 -25 -53 -53 -53 -63 0 -41 63 -87 144 -105 27 -6 28 -7 13 -22
-21 -21 -69 -21 -102 1 -14 10 -41 38 -58 64 -18 26 -53 68 -79 93 -27 26 -48
50 -48 54 0 4 13 5 30 2 26 -6 42 5 149 93 118 98 141 128 127 166 -16 41 30
-1 118 -110z m248 -268 c126 -121 148 -159 134 -230 -17 -92 -111 -177 -206
-186 -73 -7 -128 24 -235 132 l-90 91 32 3 c27 3 52 23 140 118 104 111 114
128 98 167 -15 36 14 14 127 -95z m5060 41 l33 -30 -42 6 c-38 6 -45 3 -82
-30 -23 -21 -41 -42 -41 -48 0 -15 81 -97 96 -97 21 0 54 51 54 83 l0 30 42
-35 c55 -45 58 -58 16 -58 -29 0 -88 -37 -88 -56 0 -14 78 -97 99 -105 19 -8
29 -5 47 12 31 29 64 98 64 132 0 35 16 34 35 -2 24 -47 5 -79 -111 -186
l-104 -97 0 34 c0 29 -13 49 -75 119 -124 138 -164 166 -193 137 -6 -6 -15 -8
-19 -4 -7 7 214 225 229 226 4 0 22 -14 40 -31z m-310 -252 c-3 -27 8 -48 69
-132 81 -113 129 -185 129 -197 0 -14 -40 -9 -240 27 -107 19 -196 33 -198 30
-8 -7 107 -173 136 -195 20 -16 35 -20 59 -15 18 3 33 2 33 -3 0 -8 -16 -20
-102 -76 l-27 -17 11 34 c10 33 7 38 -68 146 -89 129 -116 154 -156 149 -16
-3 -28 -1 -28 4 0 13 94 77 114 78 11 0 93 -12 183 -26 90 -15 166 -24 169
-21 8 7 -74 123 -109 156 -23 21 -30 22 -57 12 -49 -17 -33 8 30 47 30 17 55
32 55 32 1 0 -1 -15 -3 -33z m-4245 -207 c6 0 32 -18 57 -39 25 -21 51 -41 57
-43 10 -3 9 -15 -5 -51 -10 -26 -21 -47 -26 -47 -4 0 -10 19 -13 42 -6 47 -32
86 -69 107 -23 13 -29 13 -52 -2 -43 -29 -38 -50 44 -163 24 -34 34 -60 35
-85 0 -72 -90 -148 -160 -135 -37 7 -121 60 -135 86 -6 11 -4 34 7 69 18 56
33 67 33 24 0 -73 37 -133 88 -146 34 -8 52 2 67 37 16 38 8 60 -45 127 -22
28 -43 61 -46 74 -8 31 12 98 35 119 24 21 70 36 96 31 11 -3 25 -5 32 -5z
m3810 -107 c-1 -46 33 -123 103 -232 49 -76 54 -81 87 -81 19 0 32 -4 28 -10
-7 -12 -167 -92 -172 -86 -2 2 1 13 8 23 10 17 2 39 -57 154 -38 74 -77 142
-86 151 -10 10 -32 18 -50 18 -20 0 -28 4 -22 9 7 7 154 90 160 91 1 0 1 -17
1 -37z m-3384 -133 c113 -56 118 -61 96 -117 l-11 -28 -18 41 c-20 46 -53 74
-86 74 -28 0 -30 -2 -104 -163 l-64 -137 22 -30 c13 -17 20 -30 17 -30 -12 0
-171 79 -190 95 -19 16 -18 16 16 10 23 -3 40 -1 47 7 16 21 130 252 137 279
5 19 0 27 -24 42 -32 19 -86 23 -96 7 -8 -13 -25 -13 -25 1 0 6 9 24 21 40
l20 29 67 -34 c37 -18 115 -57 175 -86z m3161 0 c15 -5 34 -26 43 -45 16 -34
16 -39 1 -83 l-17 -47 37 -38 c41 -43 100 -77 132 -77 31 0 24 -26 -15 -50
-48 -30 -90 -21 -156 33 -91 74 -97 77 -114 71 -20 -8 -15 -38 18 -104 19 -37
29 -46 58 -51 l34 -5 -35 -16 c-126 -59 -152 -68 -145 -50 17 40 15 52 -18
133 -19 46 -40 103 -46 125 -16 58 -45 92 -84 96 l-32 4 35 16 c205 97 248
110 304 88z m-2864 -339 c11 -127 23 -217 30 -226 19 -23 -4 -20 -87 12 l-73
28 27 21 c25 19 26 24 17 65 -8 38 -15 46 -49 63 -52 24 -111 32 -129 17 -27
-22 -29 -62 -5 -94 12 -16 18 -28 13 -26 -5 2 -37 15 -71 28 -59 22 -74 41
-33 41 10 0 42 27 71 61 82 95 249 243 261 231 5 -5 18 -105 28 -221z m2655
-141 c36 0 -5 -27 -65 -44 -30 -8 -66 -18 -80 -22 -21 -5 -23 -4 -12 7 19 20
15 42 -16 78 -27 33 -28 33 -72 21 -87 -23 -110 -39 -110 -75 0 -51 9 -65 41
-65 49 0 32 -17 -38 -38 -37 -12 -69 -20 -70 -18 -2 1 3 16 11 32 7 16 17 65
20 109 9 111 35 281 47 313 11 27 12 25 167 -136 100 -103 164 -162 177 -162z
m-2297 249 l162 -42 0 -49 c0 -53 -10 -56 -30 -9 -13 33 -54 54 -95 49 -23 -2
-30 -11 -42 -48 -14 -47 -63 -249 -63 -263 0 -4 15 -22 33 -39 23 -22 26 -29
12 -24 -11 4 -58 16 -105 27 -117 27 -122 30 -75 44 45 13 46 16 91 213 16 75
22 118 15 125 -5 5 -30 12 -56 14 -38 5 -50 2 -70 -17 -25 -23 -25 -23 -25 -2
0 11 5 33 12 47 14 32 5 33 236 -26z m1742 -34 l-24 -26 28 -147 c16 -81 33
-155 37 -164 5 -9 22 -19 39 -23 44 -10 29 -21 -37 -29 -32 -4 -76 -9 -98 -12
-32 -4 -36 -3 -22 6 10 6 17 23 17 41 0 41 -41 219 -51 219 -9 0 -18 -29 -55
-165 -14 -55 -29 -106 -33 -113 -8 -14 -38 23 -136 162 -27 39 -50 65 -52 59
-2 -6 0 -51 6 -100 9 -84 11 -90 45 -119 l36 -31 -45 -6 c-25 -4 -57 -10 -72
-13 l-28 -7 19 22 c23 25 24 64 7 218 -13 119 -23 147 -63 164 -16 6 -27 13
-25 15 2 2 31 8 66 12 l62 9 28 -36 c15 -20 53 -75 84 -123 31 -49 59 -88 62
-88 11 0 42 83 70 183 26 91 30 98 59 106 17 5 46 10 65 10 l34 1 -23 -25z
m-1405 -36 c22 -7 76 -14 120 -18 l80 -6 3 -47 c3 -50 -11 -66 -22 -23 -8 30
-53 55 -100 55 -42 0 -43 -1 -55 -76 -10 -66 -5 -74 45 -74 18 0 38 8 49 20
24 27 29 19 26 -43 -3 -56 -15 -81 -25 -50 -7 23 -46 43 -82 43 -31 0 -44 -31
-44 -105 0 -45 4 -56 21 -66 29 -15 89 -6 140 21 23 11 44 19 47 16 2 -3 -1
-18 -7 -34 -22 -52 -80 -64 -181 -37 -30 8 -76 15 -101 15 -56 0 -67 9 -38 31
19 14 25 36 40 145 26 181 25 198 -8 223 l-28 20 40 1 c22 0 58 -5 80 -11z
m517 -67 c10 -10 24 -92 16 -92 -3 0 -26 20 -50 45 -52 51 -94 59 -128 25 -43
-43 -18 -78 78 -111 70 -23 108 -60 118 -114 21 -114 -87 -191 -218 -155 -32
9 -39 17 -53 61 -19 56 -12 77 14 39 40 -61 100 -91 150 -75 31 9 54 50 47 79
-4 18 -25 33 -83 61 -106 50 -133 77 -133 132 0 35 6 50 36 82 21 24 46 41 62
43 38 4 133 -9 144 -20z"/>
<path d="M5583 9021 c-77 -76 -69 -265 12 -329 36 -28 73 -28 116 1 43 29 61
79 62 172 1 79 -14 117 -63 159 -43 36 -90 35 -127 -3z"/>
<path d="M4665 8134 c-359 -44 -670 -140 -988 -302 -288 -146 -527 -321 -762
-557 -393 -393 -663 -850 -789 -1335 -83 -320 -100 -467 -101 -835 0 -337 16
-481 80 -745 80 -326 221 -644 414 -935 419 -633 1148 -1131 1866 -1274 242
-48 327 -56 630 -55 247 0 311 3 430 22 529 82 1005 289 1417 613 134 106 411
385 514 519 327 423 502 820 588 1340 103 620 29 1250 -211 1785 -89 200 -253
466 -402 653 -404 507 -1006 894 -1621 1042 -224 54 -382 72 -670 75 -203 3
-307 0 -395 -11z m855 -397 c35 -18 39 -75 9 -140 -23 -49 -24 -49 -64 -44
-25 4 -80 -3 -150 -20 -138 -32 -303 -34 -485 -7 -173 26 -280 25 -317 -2 -38
-28 -43 -85 -13 -127 24 -32 19 -41 -28 -53 -33 -9 -95 36 -129 93 -58 100
-21 210 90 267 79 41 162 44 347 16 180 -28 407 -24 530 8 88 23 175 27 210 9z
m199 -43 c38 46 35 -5 -6 -91 -39 -83 -88 -110 -156 -84 l-25 10 30 75 c26 63
34 76 53 76 13 0 33 9 46 19 24 19 24 19 35 0 9 -18 12 -19 23 -5z m-696 -367
c64 -32 74 -50 113 -215 13 -57 31 -120 39 -139 9 -20 14 -38 12 -40 -2 -2
-18 10 -34 27 l-30 30 -12 -26 c-8 -19 -15 -24 -22 -17 -7 7 -6 20 4 39 26 52
29 87 8 117 -13 21 -17 40 -14 71 5 42 5 43 -28 50 -27 5 -37 2 -49 -15 -15
-18 -18 -19 -29 -5 -16 19 -31 21 -31 3 0 -8 -11 -24 -24 -36 -28 -27 -41 -15
-31 30 9 38 -6 56 -56 69 -21 6 -43 20 -49 30 -11 20 -50 28 -50 11 0 -16 62
-62 92 -68 29 -6 45 -20 34 -30 -3 -4 -16 -1 -29 5 -12 6 -46 18 -75 27 -48
15 -55 15 -76 1 -29 -19 -34 -15 -28 24 7 46 44 70 109 70 50 0 55 -2 71 -31
15 -26 21 -29 47 -24 17 3 41 7 53 9 39 7 36 13 -15 32 -73 26 -76 37 -12 32
33 -3 79 -16 112 -31z m-407 2 c13 -12 20 -28 17 -40 -7 -24 -4 -24 -65 7 -48
25 -51 27 -33 40 27 20 55 17 81 -7z m1102 -136 c73 -29 82 -40 49 -52 -26
-10 -63 -5 -85 12 -9 7 -19 4 -33 -9 -17 -16 -24 -16 -52 -6 -48 19 -51 19
-55 -8 -2 -14 -10 -29 -18 -33 -9 -5 -14 -25 -14 -54 0 -56 -19 -113 -37 -113
-8 0 -18 -11 -23 -25 -5 -14 -16 -25 -24 -25 -7 0 -17 -7 -20 -16 -3 -9 -12
-14 -19 -11 -7 3 -21 -1 -31 -9 -11 -7 -23 -11 -28 -8 -5 3 -15 0 -23 -6 -8
-6 -23 -9 -34 -5 -10 3 -22 1 -26 -4 -4 -7 -14 -7 -32 0 -21 8 -30 6 -49 -12
-21 -19 -27 -21 -50 -10 -23 10 -28 9 -46 -14 l-20 -26 -24 22 -23 21 -27 -21
c-34 -26 -42 -26 -71 1 l-23 22 -30 -29 -29 -28 -18 31 c-13 22 -23 30 -35 26
-10 -3 -27 2 -39 10 -13 9 -33 13 -49 9 -20 -3 -29 0 -34 12 -4 10 -12 15 -22
11 -18 -7 -74 32 -74 51 0 7 -7 13 -15 13 -9 0 -15 9 -15 24 0 14 -4 27 -10
31 -5 3 -7 12 -3 20 3 9 1 21 -5 28 -6 6 -9 37 -7 68 l3 57 -46 6 c-26 4 -56
6 -67 5 -59 -6 -121 -3 -124 6 -6 14 75 42 153 55 89 14 140 -6 167 -64 24
-52 23 -60 -2 -114 -19 -38 -20 -49 -10 -82 6 -22 24 -49 39 -60 28 -23 37
-23 170 -5 33 5 42 3 42 -9 0 -22 19 -30 36 -15 13 10 20 10 36 0 15 -9 23
-10 34 0 11 9 18 9 26 1 9 -9 16 -8 30 5 17 15 19 15 37 -1 18 -16 19 -15 38
15 14 21 23 27 28 19 5 -8 14 -5 31 11 l24 22 52 -24 c67 -31 156 -33 188 -4
32 29 41 59 31 111 -12 63 3 111 50 156 64 61 138 67 257 21z m-948 20 c0 -5
-7 -33 -15 -63 -10 -34 -15 -88 -13 -144 2 -81 0 -90 -17 -96 -11 -4 -23 -2
-27 4 -11 16 -9 123 2 172 13 58 47 134 60 134 5 0 10 -3 10 -7z m288 -51 c4
-23 -14 -62 -27 -62 -15 0 -22 49 -11 71 14 25 34 20 38 -9z m-187 -14 c16
-18 29 -40 29 -49 0 -22 -26 -44 -35 -30 -8 15 -33 111 -28 111 2 0 17 -15 34
-32z m109 -12 c0 -29 -24 -61 -38 -52 -17 10 -15 47 4 67 20 22 34 16 34 -15z
m-760 -6 c19 -12 19 -12 -85 -61 -63 -30 -84 -44 -69 -46 19 -4 56 8 157 51
32 14 37 14 37 1 0 -21 -127 -82 -218 -106 -82 -21 -212 -26 -212 -8 0 6 64
41 143 78 78 37 158 74 177 83 41 20 50 21 70 8z m1774 -79 c94 -51 115 -66
100 -72 -31 -12 -106 -10 -161 4 -59 16 -153 73 -153 93 0 20 16 17 66 -12 64
-37 79 -23 17 16 -52 32 -59 41 -47 53 8 8 40 -7 178 -82z m-1546 51 c8 -10
11 -29 8 -45 -3 -16 -1 -37 4 -48 9 -16 7 -19 -9 -19 -41 0 -71 19 -71 45 0
23 -4 25 -44 25 -25 0 -47 4 -50 9 -12 19 7 39 47 49 51 12 98 6 115 -16z
m1288 8 c31 0 32 -28 0 -36 -13 -3 -40 2 -61 10 -31 13 -35 19 -25 30 8 11 18
12 36 5 14 -5 36 -9 50 -9z m-121 -30 l28 -29 -29 -11 c-34 -13 -74 -5 -74 15
0 21 22 55 36 55 5 0 23 -13 39 -30z m-525 -24 c0 -25 -22 -51 -33 -39 -11 10
-8 48 5 61 15 15 28 6 28 -22z m-80 9 c12 -15 5 -75 -9 -75 -4 0 -16 9 -26 20
-16 18 -17 23 -5 45 15 29 23 31 40 10z m-78 -45 c-3 -33 -10 -36 -29 -17 -14
13 -14 19 -3 32 18 21 36 13 32 -15z m778 9 c0 -10 -103 -79 -118 -79 -6 0
-16 -9 -22 -19 -5 -11 -19 -23 -30 -26 -13 -4 -20 -15 -20 -31 0 -17 -8 -27
-25 -34 -14 -5 -31 -21 -37 -36 -11 -23 -17 -25 -50 -21 -34 5 -40 2 -55 -24
-32 -53 -96 -54 -101 -1 -4 35 12 44 21 12 7 -26 27 -26 27 0 0 11 8 23 18 26
9 3 25 10 34 15 10 5 25 9 33 9 25 0 130 111 145 153 13 34 17 37 55 37 22 0
54 8 70 19 29 17 55 18 55 0z m-1404 2 c-3 -5 -32 -24 -64 -42 -75 -42 -50
-50 34 -10 74 35 84 37 84 18 0 -17 -59 -50 -137 -76 -70 -23 -153 -27 -198
-7 -29 12 -29 12 60 40 50 16 115 41 145 57 56 28 86 36 76 20z m554 -41 c-9
-17 -50 -56 -50 -47 0 3 10 27 21 54 18 41 22 45 29 28 4 -11 4 -27 0 -35z
m948 20 c56 -34 124 -60 158 -60 41 0 26 -17 -20 -24 -75 -12 -261 33 -238 56
6 6 33 1 70 -11 34 -12 65 -21 69 -21 13 0 -12 19 -56 42 -43 23 -65 48 -42
48 6 0 33 -13 59 -30z m-830 -56 c1 -10 -4 -28 -12 -39 -14 -19 -15 -19 -21 7
-9 34 0 61 18 56 6 -3 13 -13 15 -24z m68 -6 c-9 -45 -23 -57 -32 -24 -4 16
-1 32 6 41 21 25 33 17 26 -17z m-606 16 c22 -5 28 -9 18 -15 -29 -19 -91 -5
-71 15 8 8 13 8 53 0z m470 -20 c13 -34 13 -44 -4 -44 -13 0 -26 28 -26 58 0
22 20 13 30 -14z m920 -40 c80 -10 92 -20 32 -29 -57 -8 -113 -1 -184 21 -53
17 -55 20 -33 44 15 16 19 16 73 -6 31 -13 82 -26 112 -30z m-1420 -1 c0 -9
-58 -24 -96 -25 -69 -1 -73 12 -13 42 l53 27 28 -20 c15 -11 28 -22 28 -24z
m1870 -15 c102 -48 127 -64 115 -71 -21 -11 -114 -1 -180 20 -59 19 -161 68
-170 83 -12 19 23 10 96 -25 41 -19 79 -35 86 -35 29 0 10 19 -39 40 -29 12
-62 29 -73 36 -19 13 -18 14 7 14 15 0 86 -28 158 -62z m-2502 19 c-47 -30
-11 -36 40 -7 21 12 50 20 63 18 19 -3 4 -14 -73 -52 -82 -41 -109 -49 -170
-54 -50 -3 -70 -1 -63 6 18 19 220 120 228 115 5 -3 -6 -15 -25 -26z m720 -7
c10 -17 10 -20 -4 -20 -23 0 -55 20 -49 31 10 16 40 10 53 -11z m360 9 c-2 -6
-8 -10 -13 -10 -5 0 -11 4 -13 10 -2 6 4 11 13 11 9 0 15 -5 13 -11z m-881
-16 c2 -5 -23 -24 -56 -42 -115 -61 -74 -69 45 -9 78 39 106 32 33 -9 -107
-61 -253 -92 -299 -63 -12 7 -8 12 20 21 19 7 80 36 135 65 100 52 116 57 122
37z m1660 -5 c18 -7 32 -17 30 -23 -5 -15 -45 -18 -78 -5 -23 10 -27 15 -18
26 14 17 23 17 66 2z m453 -27 c70 -36 136 -61 203 -76 24 -5 27 -8 17 -20
-15 -18 -125 -20 -185 -4 -51 13 -195 80 -195 90 0 17 30 16 61 -2 69 -40 149
-68 149 -52 0 5 -30 24 -67 43 -37 19 -69 41 -71 48 -6 19 6 15 88 -27z
m-1919 6 c-6 -8 -29 -22 -51 -32 -22 -10 -40 -22 -40 -28 0 -17 59 2 105 33
39 27 75 32 75 10 0 -24 -193 -100 -255 -100 -27 0 -86 29 -60 30 6 0 46 20
88 44 71 41 96 51 136 55 10 1 11 -2 2 -12z m291 -8 c17 -9 18 -13 7 -20 -27
-17 -109 -8 -109 11 0 19 72 25 102 9z m1342 -53 c28 -22 62 -48 76 -57 l25
-17 -38 -7 c-57 -11 -122 3 -174 38 -84 57 -57 80 37 31 67 -35 82 -26 26 14
-25 18 -46 38 -46 43 0 18 41 -2 94 -45z m-1249 8 c-20 -15 -75 -19 -75 -6 0
4 12 15 27 24 21 12 32 14 47 6 19 -10 19 -11 1 -24z m1384 -1 c36 -21 89 -48
116 -60 47 -20 49 -22 24 -28 -45 -11 -162 31 -243 88 -27 19 -28 21 -10 28
33 13 45 10 113 -28z m-1615 18 c3 -5 -16 -23 -42 -40 -40 -26 -44 -31 -23
-31 14 0 42 12 63 26 30 21 43 25 59 18 20 -9 19 -12 -21 -38 -59 -39 -114
-56 -179 -56 -94 0 -94 13 0 58 46 22 93 47 104 55 23 19 32 20 39 8z m1261
-4 c33 -25 -8 -51 -44 -28 -16 11 -8 41 12 41 7 0 21 -6 32 -13z m-965 -31 c0
-15 -21 -26 -47 -26 -14 0 -14 3 2 20 21 23 45 26 45 6z m893 -14 c19 -20 6
-42 -23 -42 -25 0 -30 10 -18 36 13 29 20 30 41 6z m-1953 -1 c0 -4 -20 -16
-45 -25 -40 -16 -60 -36 -36 -36 7 0 112 30 159 45 6 3 12 1 12 -4 0 -14 -99
-52 -177 -68 -67 -14 -194 -11 -180 4 9 8 232 91 250 92 9 1 17 -3 17 -8z
m1130 1 c0 -14 -23 -32 -42 -32 -16 0 -16 3 -6 20 12 19 48 28 48 12z m520 -7
c14 -16 8 -50 -13 -79 -12 -17 -14 -17 -30 -1 -22 21 -22 53 0 77 20 22 27 22
43 3z m1281 -9 c30 -12 99 -38 153 -56 82 -27 96 -34 80 -43 -24 -13 -145 -12
-214 2 -62 13 -161 60 -168 79 -5 17 19 15 70 -8 52 -23 159 -52 166 -45 5 5
-49 30 -130 59 -49 18 -63 36 -29 36 10 0 43 -11 72 -24z m-1993 -1 c10 -9
-40 -54 -83 -75 -42 -20 -110 -26 -133 -12 -8 6 8 18 48 37 33 16 68 37 78 48
12 14 25 17 51 13 18 -3 36 -8 39 -11z m1152 -1 c8 -8 34 -27 58 -42 l46 -26
-28 -7 c-35 -10 -80 4 -123 37 l-36 27 24 13 c32 18 44 17 59 -2z m-871 -21
c8 -18 9 -29 2 -36 -14 -14 -51 19 -51 45 0 28 35 22 49 -9z m231 -20 c0 -28
-25 -63 -45 -63 -18 0 -48 37 -40 50 11 17 67 50 77 44 4 -3 8 -17 8 -31z
m106 22 c9 -21 -3 -62 -20 -68 -8 -3 -24 4 -36 15 l-21 20 22 24 c26 27 47 31
55 9z m-1206 -2 c0 -5 -19 -21 -43 -38 -33 -23 -38 -31 -23 -33 10 -2 38 11
63 28 27 20 48 29 54 23 11 -11 -16 -32 -117 -93 -63 -39 -76 -43 -164 -51
-92 -8 -181 -26 -325 -69 -38 -11 -108 -27 -154 -35 -75 -14 -86 -13 -117 1
-19 9 -34 20 -34 24 0 10 37 20 72 20 16 0 107 20 204 45 125 32 196 45 247
46 70 0 75 1 192 69 114 66 145 79 145 63z m693 -10 c13 -8 -34 -53 -88 -84
-49 -28 -91 -35 -130 -20 -16 6 -10 12 35 34 30 14 71 39 90 56 33 28 60 32
93 14z m286 3 c8 -9 8 -21 1 -40 -11 -31 -21 -32 -43 -8 -15 16 -15 20 -1 40
18 26 27 27 43 8z m549 5 c10 -6 10 -10 -3 -21 -12 -10 -21 -10 -41 -1 -14 6
-22 16 -19 21 7 12 45 13 63 1z m-1660 -16 c2 -2 -27 -20 -64 -41 -59 -33 -79
-38 -158 -45 -51 -4 -153 -23 -231 -44 -165 -44 -325 -58 -360 -32 -16 13 -17
16 -5 20 73 23 297 81 304 79 6 -2 53 -3 106 -3 107 0 197 19 269 56 37 19 55
23 91 18 25 -3 46 -7 48 -8z m929 -1 c8 -22 -92 -122 -137 -135 -21 -6 -44 -7
-58 -2 -22 8 -16 14 74 81 53 40 101 72 106 72 5 0 11 -7 15 -16z m921 -46
c39 -20 6 -56 -41 -44 -26 6 -87 52 -87 65 0 5 10 13 23 18 17 9 28 7 52 -9
17 -10 40 -24 53 -30z m827 -21 c42 -18 74 -22 190 -23 97 -2 169 -9 235 -23
52 -11 107 -21 122 -21 32 0 58 -9 58 -20 0 -5 -20 -16 -45 -26 -66 -25 -203
-14 -380 29 -108 27 -153 34 -197 30 -53 -5 -65 -2 -150 40 -51 25 -102 52
-113 61 -38 29 11 18 85 -19 39 -20 92 -38 118 -40 26 -3 40 -2 32 1 -116 50
-144 66 -131 74 9 5 34 -1 70 -17 31 -14 79 -35 106 -46z m-2405 51 c0 -7 -16
-24 -35 -37 -19 -13 -35 -27 -35 -32 0 -12 47 7 78 31 13 11 32 20 41 20 31
-1 -71 -80 -162 -126 -88 -43 -93 -45 -156 -38 -57 5 -87 0 -221 -34 -194 -50
-316 -70 -332 -54 -14 14 -23 11 177 62 88 22 207 45 263 51 117 11 149 24
277 113 81 56 105 66 105 44z m1200 -37 c0 -39 -9 -61 -25 -61 -20 0 -23 31
-8 63 18 35 33 35 33 -2z m110 19 c0 -5 -9 -10 -21 -10 -11 0 -17 5 -14 10 3
6 13 10 21 10 8 0 14 -4 14 -10z m737 -64 c230 -109 251 -116 314 -109 43 4
85 -3 199 -32 178 -46 188 -51 127 -60 -53 -8 -121 3 -265 41 -72 20 -105 24
-147 19 -81 -11 -158 18 -379 143 -55 31 -94 58 -88 60 6 2 57 -19 114 -47
113 -55 155 -70 143 -52 -3 6 -47 32 -96 56 -78 40 -102 55 -84 55 2 0 75 -33
162 -74z m-594 28 c38 -35 41 -54 8 -54 -20 0 -95 73 -85 83 15 15 40 5 77
-29z m741 -21 c119 -57 123 -58 211 -58 65 -1 118 -9 189 -28 54 -15 138 -32
187 -39 49 -6 89 -15 89 -19 0 -14 -79 -26 -126 -19 -27 5 -105 23 -174 41
-87 22 -149 33 -205 33 -78 1 -83 2 -225 73 -135 66 -142 71 -106 72 29 1 73
-15 160 -56z m-2020 38 c12 -19 -123 -130 -206 -170 -97 -47 -97 -47 -168 -38
-47 7 -75 2 -185 -29 -136 -38 -251 -53 -279 -37 -12 7 30 21 161 56 147 40
190 47 248 45 65 -3 77 0 145 34 41 21 104 60 140 87 36 27 79 51 95 54 17 2
33 5 37 6 4 0 9 -3 12 -8z m534 -4 c16 -19 -41 -103 -80 -116 -28 -10 -78 -6
-78 6 0 10 125 122 136 123 6 0 16 -6 22 -13z m82 -20 c16 -28 8 -56 -18 -65
-17 -5 -36 42 -28 73 8 31 25 28 46 -8z m318 21 c13 -13 16 -56 6 -82 -5 -12
-10 -13 -25 -6 -33 18 -42 47 -23 75 18 28 25 30 42 13z m800 -76 c194 -108
268 -135 361 -133 41 1 97 -5 125 -13 28 -8 71 -20 96 -26 38 -10 42 -13 25
-22 -28 -16 -172 -12 -242 6 -39 10 -92 15 -140 14 l-78 -3 -182 115 c-100 63
-182 118 -183 121 0 11 45 27 63 22 10 -2 80 -39 155 -81z m-894 59 c21 -23
15 -50 -15 -77 -21 -18 -21 -18 -40 5 -23 29 -24 49 -2 73 21 23 36 23 57 -1z
m425 -79 c15 -8 -22 -24 -43 -18 -32 8 -81 78 -72 103 6 14 15 8 59 -33 28
-27 54 -50 56 -52z m-526 44 c6 -14 -35 -56 -54 -56 -24 0 -37 68 -18 87 14
14 63 -7 72 -31z m-673 22 c0 -6 -23 -33 -52 -60 -29 -27 -45 -48 -37 -48 19
0 76 42 96 69 8 12 22 21 31 21 24 0 -73 -96 -133 -131 -49 -28 -91 -35 -129
-20 -16 6 -8 16 55 63 41 31 87 70 103 87 30 31 66 41 66 19z m1059 -21 c11
-18 29 -42 41 -52 23 -21 26 -35 7 -35 -22 0 -87 86 -87 115 0 16 21 1 39 -28z
m390 -3 c113 -66 183 -117 169 -125 -45 -29 -126 3 -209 80 -45 42 -51 52 -39
61 22 14 28 13 79 -16z m-421 -49 c19 -30 27 -54 22 -59 -15 -15 -37 11 -54
61 -29 83 -20 83 32 -2z m-918 25 c13 -8 12 -16 -9 -56 -35 -65 -80 -96 -148
-102 -35 -3 -54 -1 -52 5 2 6 38 38 80 71 42 34 81 68 89 76 14 18 20 19 40 6z
m1298 -52 c42 -35 88 -71 102 -80 l25 -17 -31 0 c-40 -1 -112 47 -165 110 -58
70 -26 64 69 -13z m-1208 3 c0 -22 -50 -93 -82 -115 -12 -9 -35 -16 -51 -16
l-29 0 42 48 c23 26 52 63 63 84 18 30 25 35 39 27 10 -5 18 -18 18 -28z m720
9 c0 -22 -5 -30 -18 -30 -10 0 -28 -7 -40 -16 -33 -23 -27 1 11 41 39 43 47
43 47 5z m434 -47 c72 -68 81 -80 68 -90 -21 -17 -24 -17 -63 10 -42 28 -123
132 -114 146 12 20 25 12 109 -66z m-884 52 c0 -15 -38 -40 -47 -31 -7 7 26
46 39 46 4 0 8 -7 8 -15z m355 5 c5 -9 -1 -25 -23 -58 -10 -14 -42 -6 -42 11
0 12 40 57 51 57 4 0 11 -4 14 -10z m154 -16 c12 -28 7 -44 -15 -44 -9 0 -14
11 -14 35 0 41 12 45 29 9z m-456 -4 c3 -13 0 -20 -8 -20 -17 0 -28 17 -20 30
10 16 22 12 28 -10z m71 1 c14 -15 15 -24 6 -40 -15 -28 -28 -26 -41 6 -18 48
4 69 35 34z m124 -6 c1 -11 -4 -29 -12 -40 -12 -16 -18 -18 -33 -9 -23 14 -28
41 -12 60 17 21 53 14 57 -11z m-483 -32 c-8 -20 -13 -39 -9 -42 8 -8 33 28
41 57 3 12 9 22 15 22 26 0 -34 -111 -72 -133 -26 -16 -70 -23 -70 -12 0 3 15
24 33 48 18 24 39 58 46 75 7 17 17 29 22 26 5 -3 2 -21 -6 -41z m1039 -35
c31 -35 56 -66 56 -69 0 -17 -36 -18 -68 -2 -45 23 -103 110 -81 124 26 16 37
9 93 -53z m-947 25 c-3 -16 -9 -36 -12 -45 -14 -35 16 -17 32 20 22 46 22 47
28 40 12 -12 -29 -89 -61 -118 -32 -28 -84 -41 -84 -22 0 5 12 19 26 33 14 13
35 45 46 71 23 54 33 62 25 21z m201 -27 c29 -25 47 -60 55 -103 8 -42 -2 -42
-31 2 -24 38 -37 43 -46 20 -10 -26 -22 -16 -35 26 -10 33 -16 40 -32 36 -25
-7 -24 8 2 34 23 23 51 19 87 -15z m659 -32 c41 -63 42 -81 3 -69 -16 5 -90
113 -90 131 0 2 10 4 23 3 16 0 33 -18 64 -65z m-227 16 c0 -6 -4 -10 -10 -10
-5 0 -10 -12 -10 -26 0 -14 -5 -34 -11 -45 -10 -20 -11 -20 -30 -3 -18 17 -20
16 -44 -6 l-25 -23 0 27 c0 38 24 91 50 109 20 14 26 14 51 1 16 -8 29 -19 29
-24z m-306 8 c13 -22 -11 -70 -33 -66 -20 4 -26 40 -11 68 13 23 28 22 44 -2z
m106 6 c0 -24 -19 -54 -34 -54 -22 0 -28 31 -10 51 21 23 44 25 44 3z m344
-43 c42 -69 43 -73 14 -69 -24 3 -92 103 -82 119 13 21 35 5 68 -50z m-284 33
c0 -8 -5 -12 -10 -9 -6 4 -8 11 -5 16 9 14 15 11 15 -7z m215 -54 c20 -40 22
-50 11 -59 -11 -10 -17 -2 -32 41 -9 29 -19 59 -22 67 -12 33 20 -4 43 -49z
m-659 -35 c-7 -38 -7 -38 -30 -29 -21 8 -20 16 5 48 26 33 33 28 25 -19z m80
-1 c8 -45 -15 -76 -40 -54 -20 16 -20 49 0 78 19 28 31 21 40 -24z m339 26 c7
-23 -2 -60 -15 -60 -15 0 -31 40 -25 60 8 26 32 26 40 0z m-95 -13 c0 -28 -17
-47 -36 -40 -28 11 -9 63 23 63 7 0 13 -10 13 -23z m300 -41 c0 -49 -14 -62
-33 -32 -20 30 -21 49 -6 78 11 21 12 21 25 3 8 -10 14 -33 14 -49z m-460 -5
c14 -27 13 -56 -4 -70 -12 -10 -17 -8 -25 8 -6 11 -11 30 -11 44 0 40 22 50
40 18z m104 -14 c8 -12 7 -20 -1 -28 -16 -16 -33 -2 -33 27 0 28 17 28 34 1z
m100 7 c6 -16 -9 -44 -24 -44 -12 0 -20 28 -14 45 8 20 30 19 38 -1z m154 -5
c3 -20 -36 -81 -48 -74 -15 9 -12 48 6 73 17 24 37 25 42 1z m-411 -64 c16
-33 16 -36 0 -53 -16 -15 -19 -15 -27 -2 -24 37 -24 90 0 90 6 0 18 -16 27
-35z m461 23 c7 -7 12 -20 12 -30 0 -29 -32 -99 -43 -95 -21 7 -26 68 -9 104
17 36 22 39 40 21z m-548 -17 c0 -11 -4 -23 -10 -26 -6 -4 -10 5 -10 19 0 14
5 26 10 26 6 0 10 -9 10 -19z m181 -48 c-16 -29 -24 8 -9 43 l12 29 4 -27 c2
-15 -1 -35 -7 -45z m115 56 c10 -17 -13 -36 -27 -22 -12 12 -4 33 11 33 5 0
12 -5 16 -11z m84 -23 c0 -32 -18 -43 -38 -23 -13 13 -13 19 -2 31 19 24 40
19 40 -8z m227 -18 c-3 -8 -6 -5 -6 6 -1 11 2 17 5 13 3 -3 4 -12 1 -19z
m-351 -20 c8 -27 -10 -45 -29 -30 -18 15 -10 63 9 55 7 -3 16 -14 20 -25z
m-222 -14 c11 -28 6 -47 -16 -71 -27 -29 -38 -29 -38 1 0 61 38 111 54 70z
m296 1 c9 -11 10 -19 2 -27 -14 -14 -32 -1 -32 23 0 23 13 25 30 4z m-170 -30
c13 -24 7 -75 -10 -75 -5 0 -19 14 -31 31 -18 26 -20 34 -9 54 15 27 32 24 50
-10z m308 -1 c1 -10 -4 -28 -12 -39 -14 -19 -15 -19 -21 -2 -10 24 3 69 18 64
7 -2 13 -12 15 -23z m128 -8 c3 -14 4 -33 2 -43 -3 -16 -6 -15 -21 8 -17 25
-14 59 4 59 5 0 11 -11 15 -24z m90 -8 c60 -52 128 -127 146 -161 20 -37 23
-98 6 -115 -17 -17 -64 -15 -93 4 -33 22 -135 148 -135 167 0 36 25 25 90 -37
37 -36 73 -66 79 -66 20 0 -3 31 -78 105 -59 58 -71 75 -71 102 0 41 10 41 56
1z m-282 -24 c21 -50 15 -72 -7 -27 -21 40 -30 73 -20 73 4 0 16 -21 27 -46z
m-452 10 c-2 -14 -28 -48 -57 -75 -54 -51 -112 -126 -103 -134 2 -2 38 29 80
70 42 41 81 75 87 75 6 0 11 -15 11 -34 0 -27 -10 -42 -55 -85 -77 -73 -147
-100 -175 -66 -18 22 -6 55 45 123 38 52 147 152 166 152 3 0 4 -12 1 -26z
m268 -40 c-28 -88 -113 -229 -131 -219 -18 12 -9 38 26 76 19 22 35 47 35 58
0 10 11 39 25 65 14 26 25 57 25 69 0 20 1 20 16 5 14 -14 14 -21 4 -54z
m-165 -50 c-8 -13 -20 -24 -25 -24 -19 0 -10 57 13 86 l22 29 3 -33 c2 -19 -4
-44 -13 -58z m1271 57 c-12 -19 -126 -82 -143 -79 -12 2 4 17 47 44 82 52 113
63 96 35z m-1056 2 c-1 -20 -32 -142 -47 -180 -13 -37 -20 -43 -44 -43 -16 0
-29 3 -29 6 0 3 15 33 34 67 18 34 41 83 51 110 10 26 22 47 26 47 5 0 9 -3 9
-7z m280 -24 c0 -20 -4 -29 -12 -27 -18 6 -22 39 -6 49 18 12 18 12 18 -22z
m-186 -79 c14 -52 26 -101 26 -107 0 -8 -13 -13 -30 -13 l-30 0 0 112 c0 61 2
109 4 107 2 -2 16 -47 30 -99z m129 68 c12 -28 12 -38 -1 -65 -9 -18 -19 -33
-24 -33 -11 0 -28 36 -28 60 0 18 26 70 36 70 2 0 10 -15 17 -32z m904 7 c24
-21 25 -24 9 -25 -20 0 -56 27 -56 42 0 15 18 8 47 -17z m-1271 -31 c4 -22 0
-36 -15 -54 l-20 -25 -1 47 c0 80 22 101 36 32z m1848 -7 c14 -38 -2 -47 -26
-14 -20 28 -41 36 -36 14 4 -19 -16 -21 -27 -2 -8 12 -4 21 14 36 21 17 26 18
45 6 12 -8 25 -26 30 -40z m107 24 c33 -34 37 -69 13 -126 -10 -26 -20 -35
-30 -31 -9 3 -17 6 -19 6 -2 0 -1 24 2 54 4 34 2 56 -6 60 -7 5 -11 -3 -11
-23 0 -16 -4 -33 -10 -36 -6 -4 -10 8 -10 29 0 19 -4 46 -9 59 -6 14 -7 28 -4
31 15 15 57 3 84 -23z m-1777 -71 c-10 -90 -15 -110 -29 -110 -25 0 -26 18 -3
104 24 90 41 93 32 6z m162 -86 c6 -23 4 -25 -16 -22 -19 2 -27 16 -46 82 -13
44 -24 87 -24 95 0 19 77 -120 86 -155z m1827 132 c65 -31 140 -104 169 -165
19 -38 23 -63 23 -141 0 -84 -3 -102 -28 -152 -75 -154 -242 -230 -402 -183
-33 9 -68 23 -78 30 -18 12 -16 14 24 26 24 7 56 21 71 31 15 10 44 18 68 18
136 0 230 92 230 225 0 71 -27 133 -75 173 -19 15 -47 46 -64 69 -17 24 -48
51 -68 60 -20 10 -39 24 -41 32 -8 23 110 7 171 -23z m-1707 12 c-12 -40 -17
-50 -22 -46 -5 6 13 58 20 58 3 0 4 -6 2 -12z m764 -9 c0 -9 -112 -69 -130
-69 -22 0 -7 17 47 52 51 33 83 40 83 17z m505 -19 c15 -16 17 -30 12 -81 -4
-33 -9 -65 -13 -70 -12 -20 -24 5 -24 52 0 31 -4 48 -10 44 -5 -3 -10 -15 -10
-26 0 -30 -18 -23 -25 10 -6 30 7 69 29 83 16 11 21 10 41 -12z m-410 -10 c-3
-5 -15 -10 -27 -10 -35 0 -130 -61 -187 -120 l-54 -55 7 35 c8 45 44 79 130
124 65 34 146 50 131 26z m749 -41 c14 -17 26 -40 26 -52 -1 -29 -33 -99 -54
-116 -26 -22 -39 4 -20 40 8 16 14 38 14 51 -1 22 -1 22 -16 -4 -8 -16 -19
-28 -24 -28 -19 0 -20 21 -3 79 21 71 38 77 77 30z m-2134 8 c0 -14 -20 -37
-32 -37 -12 0 -10 24 4 38 16 16 28 15 28 -1z m485 -5 c0 -18 -20 -15 -23 4
-3 10 1 15 10 12 7 -3 13 -10 13 -16z m639 2 c11 -28 6 -39 -9 -20 -8 11 -15
23 -15 28 0 14 18 9 24 -8z m790 -5 c33 -26 33 -56 1 -117 -14 -26 -25 -53
-25 -62 0 -12 -3 -12 -16 2 -16 15 -16 19 0 57 17 45 21 71 8 71 -4 0 -16 -23
-26 -51 -15 -42 -21 -48 -28 -34 -9 15 -2 129 9 148 8 14 51 7 77 -14z m-1228
-136 c-2 -2 -24 4 -50 13 -53 18 -71 41 -81 99 l-7 40 70 -75 c38 -41 69 -76
68 -77z m674 130 c0 -10 -140 -86 -146 -80 -6 6 117 86 134 86 6 1 12 -2 12
-6z m-1480 -52 c-15 -29 -2 -26 32 6 15 15 28 21 28 14 0 -31 -24 -52 -76 -67
-30 -8 -63 -25 -74 -36 -17 -19 -40 -18 -40 2 0 4 19 19 43 33 23 14 53 37 66
51 28 29 38 28 21 -3z m579 15 c6 -7 8 -21 5 -31 -7 -17 -8 -17 -21 1 -24 33
-10 62 16 30z m71 -11 c0 -22 47 -71 80 -85 19 -8 30 -19 28 -28 -5 -27 -25
-24 -54 8 -36 38 -56 39 -52 3 2 -22 -2 -29 -19 -31 -19 -3 -23 1 -23 23 0 29
-3 30 -67 4 -23 -10 -36 -10 -44 -2 -16 16 16 43 52 43 33 0 69 31 69 58 0 10
3 22 6 25 10 9 24 -2 24 -18z m929 16 c10 -7 6 -11 -15 -16 -16 -4 -74 -34
-129 -68 -81 -51 -102 -68 -111 -95 -8 -26 -13 -30 -21 -20 -8 9 -6 25 6 58
14 38 27 51 81 84 36 22 85 45 110 52 55 16 62 16 79 5z m-1460 -54 c11 -29
29 -44 64 -52 20 -5 25 -11 18 -18 -8 -8 -21 -6 -46 6 -45 22 -45 22 -45 -8 0
-27 -3 -28 -37 -19 -19 5 -21 9 -12 26 17 32 -5 44 -25 13 -22 -33 -76 -58
-93 -43 -25 20 -13 38 32 49 25 6 62 24 82 40 43 35 51 36 62 6z m1519 -49
c84 -107 153 -209 149 -221 -2 -6 -32 27 -67 74 -35 46 -83 108 -107 137 -24
30 -43 58 -43 63 0 22 22 5 68 -53z m522 13 c22 -42 6 -121 -25 -121 -22 0
-27 18 -15 56 8 25 9 39 2 46 -7 7 -14 -3 -23 -31 -10 -34 -17 -41 -33 -39
-17 2 -21 10 -20 39 1 20 11 51 23 68 22 30 23 30 51 16 16 -8 34 -24 40 -34z
m169 25 c34 -40 20 -116 -28 -160 -19 -17 -21 -17 -27 -2 -4 9 0 24 9 34 8 9
18 28 22 42 l7 25 -30 -28 c-42 -40 -47 -20 -11 47 32 59 39 64 58 42z m-774
-12 c61 -61 445 -613 445 -640 0 -8 -14 -10 -43 -7 -32 4 -52 0 -76 -15 -26
-16 -40 -18 -58 -11 -13 5 -37 9 -53 9 -25 0 -39 17 -147 183 -188 286 -258
407 -238 414 6 2 39 21 75 43 36 21 68 39 72 40 4 0 14 -7 23 -16z m-1210 -23
c3 -5 -8 -19 -24 -31 -30 -20 -30 -20 -41 -1 -8 16 -6 22 7 30 23 13 50 14 58
2z m65 -20 c0 -24 -103 -111 -131 -111 -25 0 -24 20 1 27 11 3 20 9 20 13 0 8
98 90 106 90 2 0 4 -9 4 -19z m1535 -21 c35 -36 37 -40 19 -46 -10 -4 -35 -22
-55 -41 l-36 -35 -7 27 c-6 25 1 110 11 128 9 16 31 5 68 -33z m-1489 3 c-10
-10 -19 5 -10 18 6 11 8 11 12 0 2 -7 1 -15 -2 -18z m-201 -3 c3 -5 -1 -10 -9
-10 -9 0 -16 5 -16 10 0 6 4 10 9 10 6 0 13 -4 16 -10z m549 -16 c4 -10 1 -14
-6 -12 -15 5 -23 28 -10 28 5 0 13 -7 16 -16z m-894 -3 c0 -5 -7 -11 -15 -15
-15 -5 -20 5 -8 17 9 10 23 9 23 -2z m250 1 c0 -10 -21 -32 -31 -32 -4 0 -5 9
-2 20 5 19 33 29 33 12z m420 -4 c0 -25 -53 -68 -84 -68 l-31 1 44 39 c44 40
71 51 71 28z m-125 -33 c-26 -22 -50 -35 -69 -35 l-29 0 23 25 c15 16 27 22
33 16 7 -7 19 -3 35 9 43 34 49 21 7 -15z m245 31 c0 -3 -4 -8 -10 -11 -5 -3
-10 -1 -10 4 0 6 5 11 10 11 6 0 10 -2 10 -4z m-680 -25 c0 -10 8 -29 18 -41
16 -20 19 -21 31 -6 36 43 72 0 69 -82 -2 -69 7 -86 60 -103 20 -7 48 -20 61
-30 33 -26 67 -24 96 6 30 29 31 38 4 81 -18 30 -19 35 -5 40 28 11 68 -6 150
-63 66 -47 76 -58 60 -64 -10 -4 -30 -8 -42 -8 -36 -1 -92 -62 -92 -99 0 -17
-5 -34 -10 -37 -6 -4 -22 -27 -36 -53 -13 -26 -36 -62 -49 -81 -32 -44 -32
-82 1 -121 37 -43 22 -50 -22 -10 -29 25 -42 30 -63 25 -14 -3 -49 -10 -77
-14 -62 -8 -75 -18 -99 -71 -15 -34 -16 -44 -5 -64 25 -48 85 -65 141 -42 12
5 22 -2 36 -27 14 -23 31 -36 51 -40 20 -4 39 -19 56 -44 14 -20 24 -39 22
-41 -8 -7 -51 20 -89 56 -36 35 -40 36 -102 34 -67 -2 -173 24 -229 57 -15 9
-43 40 -62 69 -19 28 -38 52 -43 52 -5 0 -23 23 -41 50 -31 48 -66 70 -89 56
-12 -8 -4 -34 17 -59 8 -9 13 -20 10 -23 -3 -3 -26 18 -51 47 -42 48 -46 57
-52 123 -6 65 -4 82 26 169 38 114 35 140 -24 173 l-38 21 34 30 c40 35 142
98 176 108 15 5 26 3 32 -6 6 -11 12 -10 28 5 17 16 94 43 129 45 6 1 12 -8
12 -18z m60 5 c0 -8 -7 -16 -15 -20 -10 -4 -15 1 -15 14 0 11 7 20 15 20 8 0
15 -6 15 -14z m155 1 c17 -13 17 -15 -6 -30 -25 -18 -79 -23 -79 -8 0 10 48
51 59 51 4 0 15 -6 26 -13z m538 -4 c13 -12 -26 -43 -55 -43 -34 0 -36 13 -6
34 24 17 50 21 61 9z m1462 -13 c27 -30 23 -76 -8 -108 -33 -33 -45 -23 -21
17 19 33 14 51 -10 32 -12 -10 -17 -8 -26 8 -8 16 -7 26 6 46 20 30 35 32 59
5z m-824 -77 c29 -49 104 -168 167 -266 62 -98 112 -180 110 -182 -2 -2 -16
-1 -31 2 -29 6 -31 8 -41 56 -4 15 -19 39 -35 53 -16 14 -32 39 -35 56 -3 17
-22 46 -41 64 -19 18 -35 38 -35 44 0 16 -38 88 -58 108 -52 53 -93 152 -63
152 5 0 33 -39 62 -87z m-338 59 c9 -10 20 -33 23 -50 9 -47 -21 -43 -42 6
-13 27 -18 32 -21 19 -3 -13 -10 -16 -26 -11 -31 9 -41 20 -34 38 9 23 79 21
100 -2z m1011 4 c106 -44 100 -206 -9 -230 -22 -4 -60 -15 -85 -23 -60 -19
-72 -20 -77 -6 -5 14 76 63 106 63 64 0 110 45 99 97 -3 14 -8 9 -20 -18 -14
-31 -22 -38 -56 -44 -22 -3 -68 -20 -102 -36 -59 -28 -63 -28 -76 -12 -8 10
-19 34 -24 53 -11 34 -10 37 42 91 29 30 62 61 73 67 27 16 89 15 129 -2z
m300 -24 c6 -21 5 -41 -4 -62 -15 -37 -72 -88 -78 -70 -3 7 7 22 21 34 15 11
29 35 33 51 l7 30 -27 -32 c-32 -38 -46 -42 -46 -12 0 24 59 99 75 95 5 -1 14
-17 19 -34z m-1779 18 c3 -5 -3 -10 -15 -10 -12 0 -18 5 -15 10 3 6 10 10 15
10 5 0 12 -4 15 -10z m245 0 c0 -5 -12 -10 -27 -9 l-28 1 25 8 c14 4 26 8 28
9 1 1 2 -3 2 -9z m319 -5 c16 -8 31 -22 35 -30 15 -41 -1 -135 -24 -135 -5 0
-10 22 -10 49 0 28 -4 53 -10 56 -6 4 -10 -7 -10 -25 0 -53 -24 -29 -31 31 -8
75 -2 82 50 54z m128 -68 c32 -28 38 -76 18 -136 -32 -97 -68 -86 -46 13 11
51 7 91 -9 81 -4 -2 -10 -27 -14 -55 -7 -50 -21 -65 -33 -34 -3 9 2 32 11 51
11 22 15 46 11 64 -12 52 15 59 62 16z m-734 6 c-7 -17 17 -16 41 2 22 17 66
20 66 6 0 -6 -4 -13 -10 -16 -14 -8 -13 -25 2 -25 6 0 26 12 45 26 21 16 43
24 60 22 l27 -3 -39 -37 c-52 -49 -23 -52 35 -3 42 35 85 53 97 41 4 -4 -16
-27 -45 -52 -29 -25 -52 -50 -52 -56 0 -13 36 11 108 69 46 38 56 42 74 32 22
-12 22 -12 2 -28 -77 -62 -117 -101 -111 -107 4 -4 39 18 79 49 57 43 76 53
86 44 15 -12 -7 -37 -88 -99 -19 -15 -32 -30 -28 -33 9 -9 36 7 93 54 27 23
55 41 62 41 22 0 26 -23 7 -39 -77 -62 -115 -99 -107 -104 5 -3 40 19 78 49
37 30 73 53 79 51 27 -9 12 -37 -47 -85 l-65 -52 -276 0 c-177 0 -276 4 -276
10 0 22 41 50 73 50 75 0 109 32 65 60 -12 8 -52 37 -88 64 -71 54 -142 76
-180 56 -26 -14 -25 -31 1 -64 14 -18 19 -35 15 -50 -9 -36 -34 -40 -77 -11
-21 14 -44 25 -52 25 -7 0 -23 7 -35 16 -19 13 -22 22 -16 47 15 71 5 68 214
66 151 -2 187 -5 183 -16z m1707 -73 c0 -34 -3 -40 -21 -40 -15 0 -19 4 -15
16 5 13 1 14 -24 9 -17 -4 -30 -4 -30 -1 0 7 72 56 82 56 5 0 8 -18 8 -40z
m-878 0 c14 -11 33 -35 41 -53 19 -40 15 -63 -33 -157 -30 -59 -33 -63 -46
-45 -19 25 -18 31 11 93 27 58 30 72 17 72 -5 0 -17 -18 -27 -40 -41 -91 -66
-71 -30 24 14 37 25 80 25 96 0 35 8 37 42 10z m-1742 -49 c0 -15 -161 -141
-181 -141 -33 0 -21 16 62 84 73 59 119 82 119 57z m-405 -10 c27 -6 28 -7 10
-15 -11 -4 -69 -12 -130 -16 -126 -9 -250 -38 -339 -77 -70 -32 -190 -118
-281 -203 -65 -60 -125 -99 -125 -80 0 6 35 46 78 88 111 112 281 218 425 267
109 36 282 54 362 36z m435 -34 c0 -32 -79 -97 -118 -97 -22 0 -23 2 -11 17
20 23 109 93 120 93 5 0 9 -6 9 -13z m-420 -11 c0 -2 -34 -53 -76 -113 -87
-123 -185 -316 -212 -416 -18 -70 -35 -89 -40 -49 -5 31 33 141 81 237 74 149
247 387 247 341z m1926 -8 c12 -18 -66 -78 -101 -78 l-30 0 47 45 c47 45 71
55 84 33z m-2081 -133 c-87 -128 -138 -222 -170 -310 -10 -27 -21 -54 -25 -58
-4 -4 -29 21 -55 55 -27 35 -64 76 -83 92 -45 39 -123 65 -196 66 l-60 0 30
31 c46 49 153 123 232 163 97 49 234 81 354 85 l57 1 -84 -125z m2124 92 c14
-18 -5 -37 -36 -37 -27 0 -29 7 -6 32 19 21 27 22 42 5z m280 -21 c31 -50 27
-84 -20 -157 -51 -79 -48 -76 -59 -59 -12 18 -4 44 27 93 13 21 22 46 20 55
-2 12 -14 0 -38 -37 -33 -53 -34 -54 -37 -26 -4 34 55 165 74 165 7 0 22 -15
33 -34z m478 -65 c47 -64 60 -91 46 -91 -9 0 -103 133 -103 145 0 16 20 -3 57
-54z m313 -5 c0 -36 -46 -86 -78 -86 -63 0 -102 12 -102 31 0 13 8 19 23 20
12 1 27 2 32 4 6 1 20 3 33 3 44 4 21 22 -28 22 -46 0 -60 7 -43 23 3 4 42 7
85 7 76 0 78 -1 78 -24z m-2880 5 c0 -10 -50 -45 -56 -39 -2 2 3 14 12 26 15
22 44 30 44 13z m1690 -2 l45 2 -23 -24 c-44 -46 -17 -52 35 -7 30 27 84 42
82 23 0 -5 -22 -26 -49 -48 -27 -22 -49 -46 -49 -53 -1 -8 28 10 64 38 63 50
95 59 95 26 0 -8 -8 -21 -19 -28 -42 -30 -102 -90 -99 -99 2 -6 32 12 67 41
36 28 69 49 75 47 27 -9 12 -37 -49 -86 -58 -47 -78 -71 -59 -71 3 0 35 23 71
51 49 39 67 49 76 40 16 -16 2 -36 -62 -88 l-52 -43 -432 1 -432 0 -32 41
c-18 22 -33 46 -33 54 0 8 15 31 33 51 18 21 39 52 46 69 7 18 22 42 33 54
l21 22 301 -8 c166 -4 321 -7 346 -5z m-1605 -24 c-76 -64 -208 -165 -216
-165 -24 0 32 72 99 128 62 50 82 62 111 62 l36 0 -30 -25z m111 -2 c-9 -43
18 -176 42 -211 12 -16 22 -35 22 -41 0 -7 -40 -11 -120 -11 -104 0 -120 2
-120 16 0 15 -2 15 -24 0 -17 -11 -32 -13 -47 -7 -21 7 -17 13 54 70 65 54
118 111 103 111 -2 0 -57 -43 -122 -95 -73 -59 -126 -95 -141 -95 -13 0 -23 5
-23 10 0 12 5 17 185 164 102 84 148 115 168 115 26 1 28 -1 23 -26z m1961
-15 c23 -29 23 -70 1 -139 -17 -52 -26 -69 -40 -69 -27 0 -31 20 -13 69 17 50
18 61 7 61 -5 0 -19 -23 -32 -50 -24 -52 -49 -56 -30 -5 13 34 82 144 91 144
4 1 11 -5 16 -11z m617 -77 c24 -10 27 -15 21 -39 -18 -73 -92 -98 -145 -47
-43 41 -38 49 26 41 49 -6 55 -4 45 8 -7 8 -30 17 -52 21 -34 6 -38 9 -27 22
14 17 79 14 132 -6z m-524 -36 c37 -19 56 -55 64 -126 7 -55 7 -56 -23 -69
-41 -17 -53 -6 -51 49 1 25 1 55 1 66 -2 30 -17 -1 -26 -52 -7 -47 -18 -54
-35 -24 -20 38 -5 133 26 164 10 9 10 9 44 -8z m357 -48 c49 -47 54 -56 45
-74 -6 -11 -25 -26 -42 -33 -47 -19 -91 5 -129 72 -39 68 -26 86 27 35 50 -49
72 -48 33 2 -37 46 -38 51 -10 51 12 0 45 -24 76 -53z m-191 11 c12 -10 30
-37 40 -59 19 -43 14 -62 -19 -83 -20 -13 -36 5 -37 39 0 26 -17 52 -26 42 -5
-4 -2 -28 4 -54 14 -50 9 -65 -13 -42 -10 10 -45 146 -45 176 0 1 8 3 18 5 26
6 55 -3 78 -24z m-3129 -26 c86 -45 144 -114 198 -235 28 -65 26 -65 -63 8
-47 39 -62 58 -67 86 -15 85 -81 144 -150 134 -22 -3 -78 -8 -124 -11 -64 -5
-82 -3 -76 6 28 45 203 53 282 12z m2703 -14 c0 -23 -44 -58 -73 -58 -36 0
-32 11 18 49 39 29 55 31 55 9z m-1635 -19 c11 -17 -1 -21 -15 -4 -8 9 -8 15
-2 15 6 0 14 -5 17 -11z m-1082 -21 c23 -12 57 -67 57 -93 0 -10 -23 -64 -50
-120 -53 -105 -90 -229 -90 -300 0 -35 -4 -44 -25 -53 -14 -6 -37 -29 -52 -51
-24 -33 -72 -61 -107 -61 -23 0 15 221 61 358 19 57 32 106 30 109 -11 11 -60
-104 -82 -192 -13 -51 -29 -146 -35 -211 -11 -121 -23 -153 -54 -141 -21 8
-21 116 -1 226 41 215 177 512 249 541 22 9 69 4 99 -12z m1605 -5 c3 -10 -17
-13 -80 -12 -67 1 -75 3 -41 8 24 4 46 11 50 15 11 11 66 2 71 -11z m1857 7
c-3 -5 -13 -10 -21 -10 -8 0 -12 5 -9 10 3 6 13 10 21 10 8 0 12 -4 9 -10z
m60 -50 c4 -6 -7 -10 -27 -10 -44 0 -121 -38 -185 -90 -40 -33 -57 -55 -70
-94 -16 -47 -18 -49 -21 -22 -2 16 4 49 13 73 17 45 55 77 150 128 49 26 128
34 140 15z m-268 -18 l33 -17 -34 -27 c-33 -27 -34 -27 -52 -7 -15 17 -16 22
-4 44 16 29 15 29 57 7z m-2638 -18 c-13 -14 -41 -39 -61 -56 l-38 -30 0 30
c0 22 9 35 37 55 21 15 49 27 62 27 l24 0 -24 -26z m542 16 c10 -6 19 -17 19
-25 0 -8 17 -32 38 -53 50 -53 132 -83 246 -90 84 -5 91 -7 127 -39 21 -19 60
-43 86 -53 48 -19 46 -19 -479 -20 -463 0 -528 2 -528 15 0 8 -4 15 -9 15 -5
0 -14 -7 -21 -15 -7 -8 -27 -15 -44 -15 l-31 1 58 55 c87 81 65 85 -33 5 -47
-38 -88 -67 -92 -64 -21 12 1 40 102 128 61 53 110 99 110 101 0 13 -26 -4
-109 -71 -52 -41 -95 -75 -97 -75 -2 0 -4 9 -4 20 0 13 34 48 96 100 l97 80
221 3 c122 1 222 3 224 5 2 1 12 -3 23 -8z m482 -18 c9 -45 152 -105 172 -72
11 18 -4 44 -35 62 -16 9 -30 22 -30 28 0 7 138 10 432 10 426 0 431 0 414
-19 -30 -34 -9 -43 34 -15 24 16 49 24 66 22 27 -3 26 -5 -34 -53 -34 -27 -62
-53 -62 -57 0 -17 24 -5 87 42 62 47 84 54 82 27 0 -7 -36 -41 -79 -77 -75
-61 -92 -80 -72 -80 5 0 40 25 79 55 39 30 74 55 78 55 3 0 5 -10 3 -22 -2
-14 -39 -52 -98 -100 l-95 -78 -218 0 -217 0 -57 32 c-63 36 -113 40 -225 19
-82 -15 -139 -3 -165 36 -35 50 -62 73 -87 73 -20 0 -29 8 -40 35 -18 43 -39
52 -71 31 -34 -22 -46 -20 -85 13 -30 25 -33 31 -21 45 11 13 34 16 126 16
l113 0 5 -28z m-1903 -12 c19 -19 17 -44 -6 -81 -5 -9 -104 70 -104 84 0 15
37 6 55 -13 21 -24 39 -16 25 11 -14 26 4 25 30 -1z m2000 -11 c31 -21 37 -28
20 -24 -39 11 -80 34 -80 45 0 16 12 12 60 -21z m1730 17 c0 -8 -172 -117
-177 -113 -7 7 68 62 122 90 56 29 55 29 55 23z m-283 -45 c21 -26 22 -71 3
-71 -10 0 -80 80 -80 92 0 20 56 5 77 -21z m393 -8 c13 -13 9 -14 -35 -8 -49
6 -52 4 -134 -52 -76 -52 -86 -63 -101 -106 -20 -63 -32 -51 -14 15 16 62 37
84 129 137 57 33 76 39 105 34 19 -3 42 -12 50 -20z m-3918 -21 c24 -23 38
-44 34 -50 -12 -19 -64 -14 -104 11 -20 13 -46 27 -56 31 -14 5 -16 10 -9 17
8 8 20 6 43 -6 17 -9 41 -15 53 -13 20 3 19 5 -13 25 -31 20 -32 23 -12 23 13
0 41 -17 64 -38z m3868 -38 c11 -28 -3 -44 -81 -91 -36 -22 -37 -22 -60 -5
-14 12 -19 24 -14 31 9 15 124 91 137 91 5 0 13 -12 18 -26z m58 4 c5 -7 13
-23 16 -35 9 -29 -19 -32 -34 -4 -20 39 -7 69 18 39z m-4022 -20 c48 -24 55
-41 23 -59 -16 -8 -37 -8 -85 2 -75 15 -80 35 -8 31 45 -2 48 -1 30 13 -11 8
-24 15 -29 15 -4 0 -5 5 -2 10 9 15 23 12 71 -12z m524 3 c5 -11 10 -24 10
-30 0 -17 -51 -71 -83 -87 l-30 -16 31 43 c35 47 40 64 17 55 -19 -7 -19 4 1
32 19 27 40 28 54 3z m2700 -38 c0 -10 -23 -37 -50 -61 -37 -32 -57 -42 -77
-40 -25 3 -22 7 43 60 38 32 72 58 77 58 4 0 7 -8 7 -17z m790 -28 c49 -25 43
-34 -73 -111 -68 -45 -77 -44 -77 9 1 39 4 45 52 80 59 42 59 42 98 22z
m-4075 -18 c58 -15 68 -37 34 -73 -20 -21 -31 -24 -96 -24 -57 0 -73 3 -73 14
0 21 15 28 63 30 56 3 54 20 -3 26 l-45 5 25 18 c29 20 31 20 95 4z m640 -17
c33 -63 -7 -112 -108 -133 -60 -12 -67 -12 -65 1 2 8 21 21 43 29 44 15 91 53
65 53 -8 -1 -26 -7 -40 -15 -14 -8 -33 -14 -44 -15 -28 0 -4 24 55 56 26 15
50 33 53 40 9 22 24 16 41 -16z m2653 -12 c-2 -17 -11 -24 -33 -26 l-30 -4 24
26 c30 32 43 33 39 4z m602 -48 c0 -46 -7 -48 -44 -19 -17 13 -26 30 -26 48 0
38 8 43 41 25 25 -12 29 -21 29 -54z m-1306 27 c34 -19 84 -41 111 -50 28 -10
81 -42 118 -71 37 -30 89 -63 115 -72 55 -20 82 -41 82 -63 0 -9 -20 -35 -45
-59 -32 -31 -49 -58 -60 -97 -13 -42 -27 -63 -74 -106 -33 -30 -72 -64 -88
-76 -17 -12 -34 -38 -41 -60 -9 -30 -22 -45 -54 -63 -105 -59 -158 -134 -158
-225 0 -30 -2 -55 -4 -55 -42 0 -82 80 -90 185 -6 68 -3 95 18 176 l25 97 -18
53 c-13 37 -33 65 -65 93 -31 28 -57 65 -81 116 -19 41 -35 80 -35 86 0 7 12
35 27 64 26 49 26 54 12 93 l-14 42 65 11 c36 6 94 12 129 13 56 1 73 -4 125
-32z m-1666 -33 c23 -7 28 -29 13 -53 -7 -10 -21 -12 -54 -7 -37 6 -45 10 -40
24 12 35 38 47 81 36z m95 -46 c-24 -23 -40 -20 -30 7 4 8 17 15 29 15 l22 0
-21 -22z m125 13 c-4 -12 -128 -111 -139 -111 -5 0 -9 8 -9 18 0 18 34 55 80
85 26 18 74 23 68 8z m1122 -9 c0 -9 -9 -34 -20 -55 -27 -50 -25 -81 9 -154
16 -34 27 -64 24 -67 -10 -10 -1093 -7 -1093 3 0 5 7 14 15 21 8 7 12 16 9 21
-3 5 -23 -4 -44 -21 -35 -28 -80 -40 -80 -22 0 4 25 30 56 58 31 28 53 54 48
57 -5 3 -41 -19 -79 -49 -39 -29 -73 -54 -77 -54 -5 0 -8 8 -8 18 0 9 35 49
77 89 43 40 73 72 67 73 -6 0 -42 -25 -81 -55 -39 -30 -74 -55 -77 -55 -3 0
-6 10 -6 23 0 17 18 38 63 75 35 28 74 62 88 76 25 25 31 26 175 29 82 1 326
4 542 5 369 2 392 1 392 -16z m850 2 c0 -14 2 -14 22 0 12 9 36 16 53 16 30
-1 30 -1 -29 -54 -86 -77 -64 -85 29 -10 44 35 85 62 90 61 30 -10 7 -40 -87
-116 -96 -77 -125 -107 -116 -116 2 -2 49 32 103 75 55 44 102 75 103 69 10
-29 -15 -62 -100 -127 -87 -69 -94 -72 -145 -72 -29 0 -53 4 -53 8 0 5 11 18
25 30 18 16 25 32 25 60 0 42 -10 51 -93 82 -29 11 -75 40 -102 64 l-50 45
163 1 c140 0 162 -2 162 -16z m-3132 -4 c26 0 32 -4 32 -20 0 -38 -28 -78 -62
-88 -54 -17 -138 -25 -138 -14 0 19 52 52 92 58 21 4 38 10 38 15 0 15 -59 10
-91 -7 -37 -19 -46 -13 -31 21 15 32 47 46 92 40 19 -3 50 -5 68 -5z m648 -62
c-9 -50 -47 -78 -106 -78 -26 0 -55 3 -64 6 -30 12 -16 24 28 24 26 0 48 6 56
15 11 13 5 15 -41 15 -70 0 -53 19 33 36 100 19 101 19 94 -18z m283 16 c27
-6 32 -11 29 -33 -4 -32 -51 -57 -120 -64 -42 -4 -48 -2 -48 14 0 13 12 21 40
29 49 13 61 30 21 30 -31 0 -42 14 -18 23 18 8 60 8 96 1z m-935 -106 c15 -58
-8 -96 -84 -133 -19 -10 -43 -24 -52 -32 -19 -17 -38 -10 -38 16 0 22 46 66
83 80 33 13 37 36 5 25 -41 -12 -77 -34 -87 -51 -16 -29 -24 -7 -11 31 15 46
31 58 98 72 78 17 79 17 86 -8z m946 -13 c0 -30 -60 -82 -122 -106 -35 -13
-66 -25 -70 -27 -5 -2 -8 3 -8 11 0 8 18 22 40 32 40 18 72 45 52 45 -5 0 -28
-7 -51 -15 -45 -16 -51 -9 -23 26 17 20 54 31 175 48 4 1 7 -6 7 -14z m-389
-5 c41 0 38 -30 -6 -69 -26 -22 -46 -31 -72 -31 -51 0 -113 21 -113 37 0 12
11 13 54 8 31 -4 62 -3 72 3 14 8 7 11 -34 17 -29 4 -55 11 -58 16 -9 16 39
29 85 24 24 -3 57 -5 72 -5z m2695 -77 c-22 -20 -46 -33 -62 -33 -27 0 -27 0
-8 21 10 12 37 35 59 51 35 26 40 27 44 12 2 -11 -11 -31 -33 -51z m-2828 -40
c30 -7 28 -26 -8 -57 -44 -37 -88 -42 -144 -17 -75 33 -57 76 19 46 32 -12 49
-14 62 -6 20 11 21 9 -41 28 -17 5 -31 14 -33 20 -6 18 29 20 77 5 25 -7 55
-16 68 -19z m-408 -2 c24 -45 12 -80 -47 -142 -31 -33 -61 -58 -67 -56 -21 7
-16 26 19 72 46 60 35 74 -15 18 -40 -45 -50 -46 -50 -4 0 38 24 67 83 101 62
35 63 36 77 11z m894 3 c23 -60 -8 -105 -121 -177 -7 -5 -17 1 -24 15 -11 20
-7 26 37 64 57 50 53 71 -4 25 -50 -39 -66 -40 -57 -3 9 36 11 38 81 66 72 29
80 30 88 10z m-379 -64 c55 -93 138 -160 198 -160 21 0 25 -6 30 -39 3 -22 18
-59 34 -83 17 -23 33 -60 37 -81 4 -23 20 -50 41 -72 42 -41 57 -97 43 -157
-33 -147 69 -316 243 -400 96 -47 185 -68 317 -75 59 -3 112 -10 118 -14 52
-41 205 -52 314 -24 142 37 57 -32 -105 -85 -38 -13 -91 -34 -117 -47 -84 -42
-176 -56 -333 -49 -225 9 -389 64 -575 192 -281 195 -364 248 -423 272 -77 33
-131 89 -140 145 -3 22 -18 54 -32 73 l-26 35 16 72 c10 40 20 125 23 190 4
93 9 123 23 140 l17 22 11 -28 c15 -39 14 -121 -4 -214 -18 -94 -19 -131 -4
-116 21 21 42 140 43 249 l1 111 40 38 c22 21 58 48 80 59 22 12 51 38 64 59
13 20 27 37 30 37 3 0 19 -23 36 -50z m645 10 c0 -13 -71 -60 -82 -54 -26 16
14 64 54 64 15 0 28 -4 28 -10z m1206 -9 c24 -14 33 -30 44 -74 11 -50 11 -63
-6 -121 l-19 -66 -482 0 c-352 0 -482 3 -485 11 -3 9 -9 9 -25 0 -12 -6 -37
-11 -55 -11 l-33 1 33 29 c17 16 32 32 32 35 0 14 -27 2 -64 -29 -47 -38 -75
-49 -94 -37 -10 6 5 22 52 60 60 48 79 71 59 71 -5 0 -37 -23 -72 -50 -71 -55
-76 -57 -84 -35 -4 9 18 36 61 74 37 33 64 63 60 67 -4 3 -36 -17 -72 -45 -70
-54 -81 -59 -89 -37 -3 8 23 39 65 77 39 35 66 65 60 67 -6 2 -41 -20 -77 -49
-52 -40 -69 -49 -75 -39 -12 19 -7 24 58 76 l57 44 560 0 c529 0 562 -1 591
-19z m674 9 c0 -7 7 -7 20 0 12 6 33 10 47 8 25 -3 21 -8 -50 -64 -74 -59
-127 -114 -110 -114 4 0 59 41 120 90 75 60 121 90 138 90 14 0 25 -4 25 -9 0
-6 -74 -71 -165 -145 l-165 -136 -85 0 c-82 0 -85 1 -85 23 1 29 23 56 91 105
68 49 105 92 114 132 6 28 9 30 56 30 27 0 49 -5 49 -10z m-2804 -41 c70 -34
72 -44 13 -75 -39 -20 -78 -17 -123 9 -72 40 -50 64 29 31 25 -10 41 -12 48
-5 6 6 -8 17 -42 31 -28 12 -48 26 -45 31 10 17 56 9 120 -22z m812 -56 c11
-27 43 -86 70 -133 l50 -85 -31 -27 c-59 -50 -74 -54 -102 -28 -16 15 -25 35
-25 54 0 36 -30 105 -53 125 -11 8 -17 28 -17 52 0 34 5 42 38 63 20 14 40 25
43 25 4 1 16 -20 27 -46z m-993 -19 c22 -46 7 -107 -41 -172 -1 -2 -12 -1 -23
3 -25 8 -26 26 -5 66 8 17 14 38 12 47 -3 11 -12 2 -27 -28 -30 -57 -28 -55
-46 -40 -28 23 -17 59 36 115 29 30 57 51 64 49 7 -3 21 -21 30 -40z m3126 -2
c-25 -49 -163 -162 -198 -162 -14 0 -23 4 -21 9 4 11 232 200 236 196 2 -2 -6
-21 -17 -43z m-2272 3 c12 -46 1 -84 -44 -146 -30 -40 -40 -47 -51 -38 -21 17
-17 48 11 81 21 25 34 68 21 68 -2 0 -16 -18 -31 -40 -33 -47 -45 -50 -45 -12
0 34 13 52 65 91 52 39 62 38 74 -4z m-749 -65 c-20 -37 -70 -15 -70 31 l0 29
40 -20 c35 -18 39 -23 30 -40z m-31 -52 c22 -20 23 -27 17 -91 -8 -91 -16
-119 -30 -114 -11 4 -12 15 -5 72 5 42 -14 48 -22 7 -4 -18 -9 -36 -13 -39
-11 -12 -46 30 -46 56 0 27 54 131 68 131 5 0 19 -10 31 -22z m835 -10 c9 -13
16 -43 16 -69 0 -42 -14 -72 -65 -137 -1 -1 -10 0 -19 4 -21 8 -20 26 5 68 11
19 19 43 17 53 -3 13 -11 5 -32 -30 -29 -48 -46 -53 -46 -13 0 25 83 146 99
146 6 0 17 -10 25 -22z m2136 -18 c-6 -11 -18 -20 -27 -20 -14 0 -14 2 2 20
10 11 22 20 27 20 5 0 4 -9 -2 -20z m-3126 -46 c23 -9 20 -17 -14 -37 -30 -18
-30 -18 -30 6 0 35 12 43 44 31z m1321 -34 c-3 -5 -15 -10 -26 -10 -10 0 -19
5 -19 10 0 6 12 10 26 10 14 0 23 -4 19 -10z m65 -25 c-45 -38 -55 -41 -66
-24 -10 17 47 58 79 59 l29 0 -42 -35z m1020 -46 c6 -45 19 -96 27 -114 19
-41 13 -60 -22 -69 -33 -8 -42 -2 -25 19 17 20 2 19 -35 -4 -26 -15 -52 -18
-170 -18 -83 0 -143 5 -147 11 -4 6 -15 6 -33 -2 -42 -19 -68 -16 -60 8 4 12
2 20 -5 20 -7 0 -23 -9 -37 -20 -25 -19 -63 -27 -63 -13 0 4 10 17 22 30 32
35 0 30 -42 -7 -21 -17 -47 -29 -65 -30 l-29 0 39 40 c21 22 36 42 34 45 -3 3
-32 -15 -65 -40 -40 -30 -69 -44 -89 -44 -30 0 -29 0 30 54 32 30 56 57 52 61
-7 7 -20 0 -101 -65 -52 -40 -86 -49 -86 -21 0 5 29 33 65 61 60 47 78 69 56
69 -5 0 -40 -25 -76 -55 -37 -30 -73 -55 -81 -55 -33 0 -20 26 43 85 83 78 63
86 -27 11 -55 -46 -67 -53 -84 -44 -19 10 -15 16 48 73 38 34 65 65 60 68 -6
3 -41 -19 -78 -49 -54 -42 -72 -52 -82 -43 -22 18 -18 24 44 73 l57 46 456 0
457 0 12 -81z m435 62 c-50 -46 -267 -221 -275 -221 -14 0 -12 44 2 58 9 9 8
12 -5 12 -22 0 -21 5 3 56 12 23 42 58 67 78 45 35 48 36 137 36 89 0 90 0 71
-19z m110 8 c-4 -6 -74 -66 -156 -135 -103 -85 -157 -124 -174 -124 -14 0 -25
2 -25 4 0 3 70 63 156 135 108 91 163 131 180 131 15 0 23 -4 19 -11z m114 4
c0 -5 -70 -65 -156 -135 -102 -84 -164 -128 -179 -128 -13 0 -24 3 -24 8 0 6
89 83 250 216 35 28 65 45 83 45 15 1 27 -2 26 -6z m-3014 -59 l27 -35 -26
-38 c-15 -21 -38 -49 -51 -61 -22 -21 -25 -21 -31 -6 -4 11 4 33 24 62 37 51
25 59 -20 12 l-30 -33 5 43 c5 44 38 92 63 92 6 0 24 -16 39 -36z m1009 -6
c25 -35 20 -104 -9 -155 -23 -37 -29 -42 -45 -33 -25 13 -25 15 1 56 11 19 19
44 17 56 -3 20 -6 18 -28 -20 -25 -44 -43 -50 -48 -16 -3 20 72 134 88 134 5
0 16 -10 24 -22z m-943 -100 c29 -47 21 -105 -22 -160 -18 -24 -34 -45 -36
-47 -2 -3 -13 5 -25 17 l-21 21 27 41 c15 23 26 49 24 58 -3 12 -12 5 -32 -25
-16 -24 -33 -43 -37 -43 -13 0 -10 41 4 66 16 29 80 102 90 103 4 1 16 -14 28
-31z m1029 -28 c12 -17 24 -48 27 -70 5 -35 1 -43 -39 -86 -31 -33 -50 -45
-62 -41 -22 9 -20 20 8 54 13 15 26 39 30 53 7 22 4 21 -29 -12 -41 -44 -45
-45 -45 -16 0 22 69 148 82 148 4 0 16 -14 28 -30z m-953 -176 c-2 -23 -20
-67 -38 -97 -51 -84 -82 -72 -38 14 11 22 19 48 17 57 -3 11 -14 -3 -32 -38
-28 -53 -29 -54 -38 -30 -11 31 0 57 55 129 l41 53 19 -23 c14 -18 18 -34 14
-65z m1933 47 c0 -4 -27 -30 -61 -56 -49 -39 -64 -46 -81 -38 -19 8 -17 12 32
56 37 33 61 47 81 47 16 0 29 -4 29 -9z m110 1 c0 -11 -57 -64 -95 -88 -28
-18 -76 -22 -75 -6 1 16 125 102 146 102 13 0 24 -4 24 -8z m-454 -17 c-22
-16 -46 -20 -46 -7 0 15 13 22 39 22 25 -1 25 -1 7 -15z m89 -15 c-22 -22 -36
-28 -53 -23 l-23 6 22 23 c14 15 34 24 53 24 l31 0 -30 -30z m145 26 c0 -2
-22 -21 -50 -41 -37 -27 -55 -35 -71 -30 -21 7 -20 9 17 41 26 22 49 33 72 34
17 0 32 -2 32 -4z m330 1 c0 -2 -29 -27 -64 -55 -56 -46 -107 -67 -106 -44 1
16 123 102 146 102 13 0 24 -1 24 -3z m65 -42 c-52 -47 -78 -59 -115 -53 -34
5 93 98 134 98 l31 -1 -50 -44z m122 11 c-32 -29 -101 -55 -113 -44 -2 2 18
21 44 41 31 24 57 36 77 36 l30 0 -38 -33z m94 19 c-42 -19 -52 -19 -27 0 11
8 29 15 40 15 16 -1 12 -5 -13 -15z m-1413 -39 c19 -38 7 -89 -30 -132 -39
-44 -66 -60 -81 -45 -7 7 0 21 22 46 17 20 31 46 31 58 0 19 -6 16 -40 -23
l-39 -45 -1 33 c0 27 10 44 52 88 28 30 56 53 62 51 6 -2 17 -16 24 -31z
m-1178 -65 c0 -34 -3 -38 -20 -34 -24 6 -25 21 -4 51 21 30 24 28 24 -17z
m220 -13 c25 -42 25 -69 -1 -146 -22 -66 -26 -69 -51 -49 -15 11 -15 16 -3 52
8 22 14 51 14 65 -1 22 -3 20 -19 -15 -11 -22 -21 -49 -25 -60 l-5 -20 -16 20
c-9 12 -13 31 -10 46 7 36 69 139 84 139 7 0 21 -15 32 -32z m1451 -72 c63
-14 155 -30 204 -37 102 -13 339 -7 398 11 22 6 41 9 44 6 11 -10 -79 -46
-145 -58 -160 -27 -642 50 -642 103 0 6 6 9 14 6 7 -3 65 -17 127 -31z m-471
-40 c0 -28 -7 -52 -18 -66 -23 -29 -48 -19 -31 11 14 28 4 36 -19 16 -19 -17
-42 -23 -42 -10 0 13 93 102 102 97 4 -3 8 -25 8 -48z m349 -39 c21 -46 42
-95 46 -108 6 -21 6 -22 -8 -9 -13 13 -87 178 -87 194 0 20 16 -5 49 -77z
m-1240 48 c33 -17 41 -33 41 -83 -1 -52 -25 -137 -39 -136 -6 1 -16 2 -22 3
-7 1 -8 24 -3 71 4 48 3 70 -4 70 -6 0 -14 -27 -18 -60 -7 -62 -16 -73 -34
-41 -14 28 -12 63 6 107 9 22 20 49 25 62 10 26 12 26 48 7z m1415 -41 c95
-20 162 -27 313 -31 l193 -6 -23 -40 c-35 -63 -172 -192 -280 -264 -104 -70
-240 -131 -245 -110 -1 7 4 39 11 72 l14 60 84 31 c110 40 141 57 173 94 46
55 27 83 -37 56 -53 -22 -180 -39 -230 -32 -44 7 -45 7 -80 84 -49 108 -54
127 -32 118 10 -3 72 -18 139 -32z m574 -46 c-96 -143 -234 -270 -405 -372
-53 -31 -254 -126 -268 -126 -3 0 1 11 10 23 10 16 35 29 76 41 188 52 439
248 539 422 26 44 66 79 79 68 2 -2 -12 -27 -31 -56z m-1873 -10 c43 -19 65
-76 65 -163 0 -68 -2 -75 -19 -75 -26 0 -31 9 -35 75 -6 84 -26 96 -26 16 0
-68 -12 -77 -40 -28 -12 22 -12 37 -2 98 12 68 18 89 27 89 2 0 16 -5 30 -12z
m149 -90 c38 -17 55 -49 66 -125 13 -92 13 -93 -10 -93 -22 0 -35 24 -45 81
-3 21 -13 43 -22 50 -14 12 -15 11 -10 -6 13 -45 18 -105 9 -105 -13 0 -39 31
-47 58 -3 12 -3 52 0 87 8 69 14 74 59 53z m139 -57 c14 -6 37 -22 52 -38 33
-35 78 -120 70 -133 -13 -21 -46 -9 -63 21 -43 79 -81 96 -42 19 12 -23 19
-44 16 -47 -10 -11 -56 8 -66 27 -12 22 -29 147 -22 155 8 8 28 6 55 -4z m278
-127 c5 -3 7 -10 3 -15 -3 -6 -20 -1 -40 11 -18 12 -42 20 -51 18 -14 -3 -11
-8 15 -23 36 -22 37 -38 3 -43 -35 -5 -75 39 -95 105 -7 21 -3 20 75 -13 45
-19 86 -37 90 -40z m679 -22 c0 -38 -32 -123 -56 -149 -21 -23 -24 -24 -20 -8
3 11 13 49 22 85 16 65 29 90 45 90 5 0 9 -8 9 -18z"/>
<path d="M5425 7704 c-20 -20 -5 -41 33 -47 26 -4 26 -4 5 -12 -13 -4 -23 -11
-23 -16 0 -14 36 -10 49 5 17 20 3 46 -25 46 -13 0 -24 5 -24 10 0 6 7 10 15
10 8 0 15 5 15 10 0 15 -27 12 -45 -6z"/>
<path d="M4511 7683 c-20 -4 -22 -9 -17 -35 3 -17 6 -37 6 -44 0 -16 55 -19
65 -4 4 6 -5 10 -19 10 -32 0 -33 13 -3 28 22 10 22 11 -5 11 -32 1 -39 21 -8
21 11 0 20 5 20 10 0 6 -3 9 -7 9 -5 -1 -19 -4 -32 -6z"/>
<path d="M4580 7645 c0 -25 5 -45 10 -45 6 0 10 9 10 21 0 15 4 19 16 15 9 -4
23 -1 30 5 11 9 14 6 14 -15 0 -14 5 -26 10 -26 6 0 10 20 10 45 0 50 -4 53
-33 28 -18 -17 -19 -17 -32 0 -22 30 -35 20 -35 -28z"/>
<path d="M5380 7684 c0 -19 24 -84 32 -84 11 0 10 21 -3 59 -9 27 -29 44 -29
25z"/>
<path d="M4706 7664 c-9 -24 -7 -74 3 -74 5 0 11 9 14 21 3 12 10 18 16 15 14
-9 41 22 35 39 -8 20 -60 19 -68 -1z m39 -4 c3 -5 1 -10 -4 -10 -6 0 -11 5
-11 10 0 6 2 10 4 10 3 0 8 -4 11 -10z"/>
<path d="M4795 7658 c-10 -33 -11 -78 -1 -78 6 0 21 -3 34 -6 12 -4 22 -2 22
4 0 5 -9 12 -20 15 -11 3 -20 11 -20 17 0 7 8 10 20 7 11 -3 23 -1 26 4 3 5
-4 9 -15 9 -12 0 -21 5 -21 10 0 6 9 10 20 10 11 0 20 5 20 10 0 15 -60 12
-65 -2z"/>
<path d="M5301 7653 c0 -10 6 -32 12 -49 11 -29 14 -30 46 -22 35 10 35 22 -1
23 -16 0 -24 9 -30 33 -9 34 -29 44 -27 15z"/>
<path d="M4422 7644 c-26 -18 -19 -44 12 -44 33 0 40 -12 14 -27 -23 -12 -23
-12 -2 -13 26 0 48 24 40 45 -3 8 -17 15 -31 15 -28 0 -34 17 -7 22 10 2 13 6
6 10 -6 4 -20 0 -32 -8z"/>
<path d="M4876 7629 c-9 -44 -8 -59 4 -59 6 0 10 7 10 15 0 22 18 18 25 -5 8
-25 29 -27 22 -1 -2 10 0 25 4 34 11 19 -14 47 -40 47 -13 0 -21 -10 -25 -31z
m44 1 c0 -5 -4 -10 -10 -10 -5 0 -10 5 -10 10 0 6 5 10 10 10 6 0 10 -4 10
-10z"/>
<path d="M5232 7652 c-9 -6 -11 -21 -6 -50 5 -34 11 -42 28 -42 11 0 28 5 36
10 12 8 9 10 -12 10 -34 0 -36 13 -5 28 22 10 22 11 -5 11 -32 1 -39 21 -8 21
11 0 20 5 20 10 0 12 -30 13 -48 2z"/>
<path d="M4996 7609 c-3 -17 -6 -38 -6 -45 0 -21 21 -17 27 5 3 13 11 17 24
14 10 -3 19 0 19 6 0 6 -9 11 -20 11 -11 0 -20 5 -20 10 0 6 9 10 20 10 11 0
20 5 20 10 0 6 -13 10 -29 10 -24 0 -29 -5 -35 -31z"/>
<path d="M5080 7590 c0 -27 5 -50 10 -50 6 0 10 23 10 50 0 28 -4 50 -10 50
-5 0 -10 -22 -10 -50z"/>
<path d="M5119 7636 c-2 -3 -3 -25 -1 -50 4 -45 4 -45 35 -39 52 9 72 47 41
77 -14 15 -64 22 -75 12z m65 -33 c9 -23 -24 -50 -36 -30 -4 6 -8 20 -8 30 0
22 36 23 44 0z"/>
<path d="M3460 5257 c-35 -18 -40 -70 -8 -91 30 -20 67 -10 74 19 14 55 -22
94 -66 72z"/>
<path d="M3347 4143 c10 -29 45 -63 65 -63 10 0 18 5 18 10 0 6 -3 10 -7 10
-5 0 -22 14 -40 30 -37 34 -45 37 -36 13z"/>
<path d="M3640 3721 c-15 -29 -12 -71 9 -116 l18 -40 -1 87 c-1 89 -7 104 -26
69z"/>
<path d="M3106 3551 c-3 -5 11 -11 32 -15 84 -14 120 -34 353 -197 134 -95
272 -184 305 -200 115 -53 328 -94 369 -72 12 7 -11 13 -86 22 -217 26 -304
69 -608 295 -157 117 -265 176 -321 176 -21 0 -41 -4 -44 -9z"/>
<path d="M1965 7755 c-14 -13 -25 -31 -25 -39 0 -14 90 -97 141 -130 24 -15
27 -15 41 1 40 47 47 86 23 133 -32 61 -134 81 -180 35z"/>
<path d="M1660 7076 c0 -12 66 -110 87 -129 20 -17 21 -17 54 47 18 36 31 68
27 71 -9 9 -168 19 -168 11z"/>
<path d="M8308 6913 c-10 -2 -18 -9 -18 -14 0 -14 48 -107 59 -113 11 -7 74
61 96 103 l16 31 -68 -1 c-38 -1 -76 -3 -85 -6z"/>
<path d="M1145 5772 c-50 -23 -91 -70 -105 -120 -13 -49 -13 -67 3 -80 6 -5
108 -25 225 -43 l213 -32 22 22 c18 17 22 33 22 84 0 80 -26 119 -104 155 -76
35 -216 42 -276 14z"/>
<path d="M8342 3754 c-16 -11 -22 -24 -20 -41 2 -19 16 -30 68 -53 60 -27 66
-28 78 -13 6 9 12 31 12 49 0 61 -84 96 -138 58z"/>
<path d="M8175 3368 c-35 -19 -55 -52 -55 -92 0 -34 6 -46 48 -86 120 -115
312 -104 312 18 0 89 -109 172 -224 172 -34 0 -70 -6 -81 -12z"/>
<path d="M2402 2371 c-65 -69 -112 -128 -112 -139 0 -33 65 -82 108 -82 104 1
217 141 197 246 -5 32 -54 94 -72 94 -6 0 -60 -54 -121 -119z"/>
<path d="M6481 1801 c-17 -11 -10 -52 18 -117 22 -49 36 -54 75 -23 44 35 33
108 -21 137 -26 14 -53 15 -72 3z"/>
<path d="M3616 1590 c-20 -22 -36 -44 -36 -49 0 -10 88 -47 93 -40 6 9 -6 129
-13 129 -4 0 -24 -18 -44 -40z"/>
<path d="M6086 1513 c-3 -21 -6 -50 -6 -65 l0 -26 50 16 c28 9 50 19 50 24 0
11 -70 88 -80 88 -4 0 -10 -17 -14 -37z"/>
</g>
</svg>
